<?xml version="1.0"?>
<Project_Data Version="8.00">
<Project_Settings>
<ProfileName>MP4 with Smart Player (up to 1080p)</ProfileName>
<ProjectWidth>1364</ProjectWidth>
<ProjectHeight>624</ProjectHeight>
<IsCustomProject>1</IsCustomProject>
<SavedProjectSettings>1</SavedProjectSettings>
<LastFlashTemplate>-1</LastFlashTemplate>
</Project_Settings>


<AutoSaveFile>C:\Users\CEN\AppData\Local\TechSmith\Camtasia Studio\8.0\Auto-Saves\OpenProj2829874.autosave.camproj</AutoSaveFile>

<ProjectID>65B9B80B-62C6-4978-998D-6B13B1EFC637</ProjectID>

<PowerPointProject>0</PowerPointProject>

<PowerPointFilename></PowerPointFilename>


<Project_Notes>
</Project_Notes>

<Project_MetaData>
<Project_MetaData_Object>
<FieldArrayKey>8</FieldArrayKey>
<Value>OpenProj</Value>
</Project_MetaData_Object>
<Project_MetaData_Object>
<FieldArrayKey>13</FieldArrayKey>
<Value>2014-11-28 08:05:41 PM</Value>
</Project_MetaData_Object>
<Project_MetaData_Object>
<FieldArrayKey>16</FieldArrayKey>
<Value>ENU</Value>
</Project_MetaData_Object>
</Project_MetaData>

<CSMLData>
<GoProject id="1" version="3.0" >
 <Project id="2" editRate="30/1" version="3.0" >
  <Author></Author>
  <Comment></Comment>
  <System></System>
  <SourceBin id="3"  >
    <Source id="4" src="C:\Users\CEN\Desktop\video\part 1.wav" lastMod="20141129T010730" rect="(0,0,0,0)" >
      <SourceTrack range="(0,392333333)" type="2" editRate="10000000/1" trackRect="(0,0,0,0)" sampleRate="22050/1" bitDepth="16" numChannels="1" filename="" metaData="" />
    </Source>
    <Source id="5" src="C:\Users\CEN\Desktop\video\part 1 - 2.wav" lastMod="20141129T011032" rect="(0,0,0,0)" >
      <SourceTrack range="(0,1266000000)" type="2" editRate="10000000/1" trackRect="(0,0,0,0)" sampleRate="22050/1" bitDepth="16" numChannels="1" filename="" metaData="" />
    </Source>
    <Source id="6" src="C:\Users\CEN\Desktop\video\part 2 - 1.wav" lastMod="20141129T011309" rect="(0,0,0,0)" >
      <SourceTrack range="(0,1247333333)" type="2" editRate="10000000/1" trackRect="(0,0,0,0)" sampleRate="22050/1" bitDepth="16" numChannels="1" filename="" metaData="" />
    </Source>
    <Source id="7" src="C:\Users\CEN\Desktop\video\part 2 - 2.wav" lastMod="20141129T011516" rect="(0,0,0,0)" >
      <SourceTrack range="(0,906333333)" type="2" editRate="10000000/1" trackRect="(0,0,0,0)" sampleRate="22050/1" bitDepth="16" numChannels="1" filename="" metaData="" />
    </Source>
    <Source id="8" src="C:\Users\CEN\Desktop\video\part 2 - 3.wav" lastMod="20141129T011705" rect="(0,0,0,0)" >
      <SourceTrack range="(0,941000000)" type="2" editRate="10000000/1" trackRect="(0,0,0,0)" sampleRate="22050/1" bitDepth="16" numChannels="1" filename="" metaData="" />
    </Source>
    <Source id="9" src="C:\Users\CEN\Desktop\video\part 2 - 4.wav" lastMod="20141129T011757" rect="(0,0,0,0)" >
      <SourceTrack range="(0,390000000)" type="2" editRate="10000000/1" trackRect="(0,0,0,0)" sampleRate="22050/1" bitDepth="16" numChannels="1" filename="" metaData="" />
    </Source>
    <Source id="10" src="C:\Users\CEN\Desktop\video\part 3 - 1.wav" lastMod="20141129T012054" rect="(0,0,0,0)" >
      <SourceTrack range="(0,1022333333)" type="2" editRate="10000000/1" trackRect="(0,0,0,0)" sampleRate="22050/1" bitDepth="16" numChannels="1" filename="" metaData="" />
    </Source>
    <Source id="11" src="C:\Users\CEN\Desktop\video\part 3 - 2.wav" lastMod="20141129T012148" rect="(0,0,0,0)" >
      <SourceTrack range="(0,405000000)" type="2" editRate="10000000/1" trackRect="(0,0,0,0)" sampleRate="22050/1" bitDepth="16" numChannels="1" filename="" metaData="" />
    </Source>
    <Source id="12" src="C:\Users\CEN\Desktop\video\part 3 - 3.wav" lastMod="20141129T012343" rect="(0,0,0,0)" >
      <SourceTrack range="(0,653666667)" type="2" editRate="10000000/1" trackRect="(0,0,0,0)" sampleRate="22050/1" bitDepth="16" numChannels="1" filename="" metaData="" />
    </Source>
    <Source id="13" src="C:\Users\CEN\Desktop\video\part 4 - 1.wav" lastMod="20141129T021203" rect="(0,0,0,0)" >
      <SourceTrack range="(0,461333333)" type="2" editRate="10000000/1" trackRect="(0,0,0,0)" sampleRate="22050/1" bitDepth="16" numChannels="1" filename="" metaData="" />
    </Source>
    <Source id="14" src="C:\Users\CEN\Desktop\video\part 4 - 2.wav" lastMod="20141129T021251" rect="(0,0,0,0)" >
      <SourceTrack range="(0,308666667)" type="2" editRate="10000000/1" trackRect="(0,0,0,0)" sampleRate="22050/1" bitDepth="16" numChannels="1" filename="" metaData="" />
    </Source>
    <Source id="15" src="C:\Users\CEN\Desktop\video\video intro.trec" lastMod="20141129T115341" rect="(0,0,1364,624)" >
      <SourceTrack range="(0,1325)" type="0" editRate="30/1" trackRect="(0,0,1364,624)" sampleRate="0/1" bitDepth="0" numChannels="0" filename="video intro.trec!Strack0.tsc2" metaData="video intro.trec;" />
    </Source>
    <Source id="16" src="C:\Users\CEN\Desktop\video\video part 1.trec" lastMod="20141129T120148" rect="(0,0,1364,624)" >
      <SourceTrack range="(0,3783)" type="0" editRate="30/1" trackRect="(0,0,1364,624)" sampleRate="0/1" bitDepth="0" numChannels="0" filename="video part 1.trec!Strack0.tsc2" metaData="video part 1.trec;" />
    </Source>
    <Source id="17" src="C:\Users\CEN\Desktop\video\videp part 2 - 1.trec" lastMod="20141129T125510" rect="(0,0,1364,624)" >
      <SourceTrack range="(0,3771)" type="0" editRate="30/1" trackRect="(0,0,1364,624)" sampleRate="0/1" bitDepth="0" numChannels="0" filename="videp part 2 - 1.trec!Strack0.tsc2" metaData="videp part 2 - 1.trec;" />
    </Source>
    <Source id="18" src="C:\Users\CEN\Desktop\video\video part 2 presentation.trec" lastMod="20141129T125725" rect="(0,0,1364,624)" >
      <SourceTrack range="(0,86)" type="0" editRate="30/1" trackRect="(0,0,1364,624)" sampleRate="0/1" bitDepth="0" numChannels="0" filename="video part 2 presentation.trec!Strack0.tsc2" metaData="video part 2 presentation.trec;" />
    </Source>
    <Source id="19" src="C:\Users\CEN\Desktop\video\videp part 2 - 2.trec" lastMod="20141129T131123" rect="(0,0,1364,624)" >
      <SourceTrack range="(0,2781)" type="0" editRate="30/1" trackRect="(0,0,1364,624)" sampleRate="0/1" bitDepth="0" numChannels="0" filename="videp part 2 - 2.trec!Strack0.tsc2" metaData="videp part 2 - 2.trec;" />
    </Source>
    <Source id="20" src="C:\Users\CEN\Desktop\video\videp part 2 - 3.trec" lastMod="20141129T132233" rect="(0,0,1364,624)" >
      <SourceTrack range="(0,3339)" type="0" editRate="30/1" trackRect="(0,0,1364,624)" sampleRate="0/1" bitDepth="0" numChannels="0" filename="videp part 2 - 3.trec!Strack0.tsc2" metaData="videp part 2 - 3.trec;" />
    </Source>
    <Source id="21" src="C:\Users\CEN\Desktop\video\videp part 2 - 4.trec" lastMod="20141129T132904" rect="(0,0,1364,624)" >
      <SourceTrack range="(0,1216)" type="0" editRate="30/1" trackRect="(0,0,1364,624)" sampleRate="0/1" bitDepth="0" numChannels="0" filename="videp part 2 - 4.trec!Strack0.tsc2" metaData="videp part 2 - 4.trec;" />
    </Source>
    <Source id="22" src="C:\Users\CEN\Desktop\video\part 4 - 3.wav" lastMod="20141129T134527" rect="(0,0,0,0)" >
      <SourceTrack range="(0,187333333)" type="2" editRate="10000000/1" trackRect="(0,0,0,0)" sampleRate="22050/1" bitDepth="16" numChannels="1" filename="" metaData="" />
    </Source>
    <Source id="23" src="C:\Users\CEN\Desktop\video\part 4 - 4.wav" lastMod="20141129T134609" rect="(0,0,0,0)" >
      <SourceTrack range="(0,286333333)" type="2" editRate="10000000/1" trackRect="(0,0,0,0)" sampleRate="22050/1" bitDepth="16" numChannels="1" filename="" metaData="" />
    </Source>
    <Source id="24" src="C:\Users\CEN\Desktop\video\part 4 - 5.wav" lastMod="20141129T134629" rect="(0,0,0,0)" >
      <SourceTrack range="(0,50000000)" type="2" editRate="10000000/1" trackRect="(0,0,0,0)" sampleRate="22050/1" bitDepth="16" numChannels="1" filename="" metaData="" />
    </Source>
    <Source id="25" src="C:\Users\CEN\Desktop\video\conclussions.wav" lastMod="20141129T134720" rect="(0,0,0,0)" >
      <SourceTrack range="(0,403000000)" type="2" editRate="10000000/1" trackRect="(0,0,0,0)" sampleRate="22050/1" bitDepth="16" numChannels="1" filename="" metaData="" />
    </Source>
    <Source id="26" src="C:\Users\CEN\Desktop\video\Thank you.wav" lastMod="20141129T134844" rect="(0,0,0,0)" >
      <SourceTrack range="(0,93666667)" type="2" editRate="10000000/1" trackRect="(0,0,0,0)" sampleRate="22050/1" bitDepth="16" numChannels="1" filename="" metaData="" />
    </Source>
    <Source id="27" src="C:\Users\CEN\Desktop\video\videp part 3 - 1.trec" lastMod="20141129T135455" rect="(0,0,1364,624)" >
      <SourceTrack range="(0,3104)" type="0" editRate="30/1" trackRect="(0,0,1364,624)" sampleRate="0/1" bitDepth="0" numChannels="0" filename="videp part 3 - 1.trec!Strack0.tsc2" metaData="videp part 3 - 1.trec;" />
    </Source>
    <Source id="28" src="C:\Users\CEN\Desktop\video\videp part 3 - 2.trec" lastMod="20141129T140425" rect="(0,0,1364,624)" >
      <SourceTrack range="(0,1270)" type="0" editRate="30/1" trackRect="(0,0,1364,624)" sampleRate="0/1" bitDepth="0" numChannels="0" filename="videp part 3 - 2.trec!Strack0.tsc2" metaData="videp part 3 - 2.trec;" />
    </Source>
    <Source id="29" src="C:\Users\CEN\Desktop\video\videp part 3 - 3.trec" lastMod="20141129T141146" rect="(0,0,1364,624)" >
      <SourceTrack range="(0,1931)" type="0" editRate="30/1" trackRect="(0,0,1364,624)" sampleRate="0/1" bitDepth="0" numChannels="0" filename="videp part 3 - 3.trec!Strack0.tsc2" metaData="videp part 3 - 3.trec;" />
    </Source>
    <Source id="30" src="C:\Users\CEN\Desktop\video\videp part 3 - 3 - extra.trec" lastMod="20141129T141427" rect="(0,0,1364,624)" >
      <SourceTrack range="(0,138)" type="0" editRate="30/1" trackRect="(0,0,1364,624)" sampleRate="0/1" bitDepth="0" numChannels="0" filename="videp part 3 - 3 - extra.trec!Strack0.tsc2" metaData="videp part 3 - 3 - extra.trec;" />
    </Source>
    <Source id="31" src="C:\Users\CEN\Desktop\video\video part 4 presentation.trec" lastMod="20141129T141642" rect="(0,0,1364,624)" >
      <SourceTrack range="(0,126)" type="0" editRate="30/1" trackRect="(0,0,1364,624)" sampleRate="0/1" bitDepth="0" numChannels="0" filename="video part 4 presentation.trec!Strack0.tsc2" metaData="video part 4 presentation.trec;" />
    </Source>
    <Source id="32" src="C:\Users\CEN\Desktop\video\video part 4 - 1.trec" lastMod="20141129T144355" rect="(0,0,1364,624)" >
      <SourceTrack range="(0,2148)" type="0" editRate="30/1" trackRect="(0,0,1364,624)" sampleRate="0/1" bitDepth="0" numChannels="0" filename="video part 4 - 1.trec!Strack0.tsc2" metaData="video part 4 - 1.trec;" />
    </Source>
    <Source id="33" src="C:\Users\CEN\Desktop\video\video part 4 - 2.trec" lastMod="20141129T145138" rect="(0,0,1364,624)" >
      <SourceTrack range="(0,1130)" type="0" editRate="30/1" trackRect="(0,0,1364,624)" sampleRate="0/1" bitDepth="0" numChannels="0" filename="video part 4 - 2.trec!Strack0.tsc2" metaData="video part 4 - 2.trec;" />
    </Source>
    <Source id="34" src="C:\Users\CEN\Desktop\video\video part 4 - 3.trec" lastMod="20141129T145519" rect="(0,0,1364,624)" >
      <SourceTrack range="(0,721)" type="0" editRate="30/1" trackRect="(0,0,1364,624)" sampleRate="0/1" bitDepth="0" numChannels="0" filename="video part 4 - 3.trec!Strack0.tsc2" metaData="video part 4 - 3.trec;" />
    </Source>
    <Source id="35" src="C:\Users\CEN\Desktop\video\video part 4 - 4.trec" lastMod="20141129T150041" rect="(0,0,1364,624)" >
      <SourceTrack range="(0,929)" type="0" editRate="30/1" trackRect="(0,0,1364,624)" sampleRate="0/1" bitDepth="0" numChannels="0" filename="video part 4 - 4.trec!Strack0.tsc2" metaData="video part 4 - 4.trec;" />
    </Source>
    <Source id="36" src="C:\Users\CEN\Desktop\video\video part 5 presentation.trec" lastMod="20141129T150331" rect="(0,0,1364,624)" >
      <SourceTrack range="(0,150)" type="0" editRate="30/1" trackRect="(0,0,1364,624)" sampleRate="0/1" bitDepth="0" numChannels="0" filename="video part 5 presentation.trec!Strack0.tsc2" metaData="video part 5 presentation.trec;" />
    </Source>
    <Source id="37" src="C:\Users\CEN\Desktop\video\conclussion.trec" lastMod="20141129T150842" rect="(0,0,1364,624)" >
      <SourceTrack range="(0,1114)" type="0" editRate="30/1" trackRect="(0,0,1364,624)" sampleRate="0/1" bitDepth="0" numChannels="0" filename="conclussion.trec!Strack0.tsc2" metaData="conclussion.trec;" />
    </Source>
    <Source id="38" src="C:\Users\CEN\Desktop\video\thank you.trec" lastMod="20141129T151314" rect="(0,0,1364,624)" >
      <SourceTrack range="(0,683)" type="0" editRate="30/1" trackRect="(0,0,1364,624)" sampleRate="0/1" bitDepth="0" numChannels="0" filename="thank you.trec!Strack0.tsc2" metaData="thank you.trec;" />
    </Source>
    <Source id="39" src="C:\Users\CEN\Desktop\video\video part 3 presentattion.trec" lastMod="20141129T135655" rect="(0,0,1364,624)" >
      <SourceTrack range="(0,115)" type="0" editRate="30/1" trackRect="(0,0,1364,624)" sampleRate="0/1" bitDepth="0" numChannels="0" filename="video part 3 presentattion.trec!Strack0.tsc2" metaData="video part 3 presentattion.trec;" />
    </Source>
  </SourceBin>
  <Timeline id="40"  >
   <Attributes>
    <Attribute id="41" value="1364" name="width"/>
    <Attribute id="42" value="624" name="height"/>
    <Attribute id="43" value="(0,0,0,255)" name="backgroundColor"/>
   </Attributes>
    <GenericMixer id="44"  name="Unified Mixer">
     <MetaData>
      <entry key="MixerType" val="TimelineMixer"/>
     </MetaData>
     <Tracks>
      <GenericTrack id="45"  >
       <Attributes>
        <Attribute id="46" value="" name="ident"/>
        <Attribute id="47" value="0" name="audioMuted"/>
        <Attribute id="48" value="0" name="videoHidden"/>
       </Attributes>
       <MetaData>
        <entry key="IsLocked" val="False"/>
        <entry key="WinTrackHeight" val="62"/>
       </MetaData>
       <Medias>
        <ScreenVMFile id="49" start="10" duration="1283" scalar="1/1" mediaStart="42/1" mediaDuration="1283/1" trackNumber="0" src="15" >
         <Transformer>
          <VectorParam id="50"  name="translation">
           <InterpolatingParam id="51" interp="linr"  time="-9999999/1" value="-3.0502178560709581e-010" leadInLength="0/1"  interpolater="leadin-linr"  />
           <InterpolatingParam id="52" interp="linr"  time="-9999999/1" value="4.2007286538137123e-011" leadInLength="0/1"  interpolater="leadin-linr"  />
           <InterpolatingParam id="53" interp="linr"  time="-9999999/1" value="0" leadInLength="0/1"  interpolater="leadin-linr"  />
          </VectorParam>
          <VectorParam id="54"  name="rotation">
           <InterpolatingParam id="55" interp="linr"  time="-9999999/1" value="0" leadInLength="0/1"  interpolater="leadin-linr"  />
           <InterpolatingParam id="56" interp="linr"  time="-9999999/1" value="0" leadInLength="0/1"  interpolater="leadin-linr"  />
           <InterpolatingParam id="57" interp="linr"  time="-9999999/1" value="0" leadInLength="0/1"  interpolater="leadin-linr"  />
          </VectorParam>
          <VectorParam id="58"  name="shear">
           <InterpolatingParam id="59" interp="linr"  time="-9999999/1" value="0" leadInLength="0/1"  interpolater="leadin-linr"  />
           <InterpolatingParam id="60" interp="linr"  time="-9999999/1" value="0" leadInLength="0/1"  interpolater="leadin-linr"  />
           <InterpolatingParam id="61" interp="linr"  time="-9999999/1" value="0" leadInLength="0/1"  interpolater="leadin-linr"  />
          </VectorParam>
          <VectorParam id="62"  name="scale">
           <InterpolatingParam id="63" interp="linr"  time="-9999999/1" value="1" leadInLength="0/1"  interpolater="leadin-linr"  />
           <InterpolatingParam id="64" interp="linr"  time="-9999999/1" value="1" leadInLength="0/1"  interpolater="leadin-linr"  />
           <InterpolatingParam id="65" interp="linr"  time="-9999999/1" value="1" leadInLength="0/1"  interpolater="leadin-linr"  />
          </VectorParam>
          <VectorParam id="66"  name="anchor">
           <InterpolatingParam id="67" interp="linr"  time="0/1" value="0" leadInLength="0/1"  />
           <InterpolatingParam id="68" interp="linr"  time="0/1" value="0" leadInLength="0/1"  />
           <InterpolatingParam id="69" interp="linr"  time="0/1" value="0" leadInLength="0/1"  />
          </VectorParam>
         </Transformer>
         <Parameters>
          <VectorParam id="70"  name="sourceCrop">
           <InterpolatingParam id="71" interp="linr"  time="0/1" value="0" leadInLength="0/1"  />
           <InterpolatingParam id="72" interp="linr"  time="0/1" value="0" leadInLength="0/1"  />
           <InterpolatingParam id="73" interp="linr"  time="0/1" value="0" leadInLength="0/1"  />
           <InterpolatingParam id="74" interp="linr"  time="0/1" value="0" leadInLength="0/1"  />
          </VectorParam>
          <VectorParam id="75"  name="geometryCrop">
           <InterpolatingParam id="76" interp="linr"  time="-9999999/1" value="0" leadInLength="0/1"  interpolater="leadin-linr"  />
           <InterpolatingParam id="77" interp="linr"  time="-9999999/1" value="0" leadInLength="0/1"  interpolater="leadin-linr"  />
           <InterpolatingParam id="78" interp="linr"  time="-9999999/1" value="0" leadInLength="0/1"  interpolater="leadin-linr"  />
           <InterpolatingParam id="79" interp="linr"  time="-9999999/1" value="0" leadInLength="0/1"  interpolater="leadin-linr"  />
          </VectorParam>
          <InterpolatingParam id="80" interp="linr"  time="-9999999/1" value="1" leadInLength="0/1"  interpolater="leadin-linr"  name="opacity"/>
          <InterpolatingParam id="81" interp="linr"  time="0/1" value="1" leadInLength="0/1"  name="cursorOpacity"/>
          <InterpolatingParam id="82" interp="linr"  time="0/1" value="1" leadInLength="0/1"  name="cursorScale"/>
         </Parameters>
         <Effects>
          <GenericEffect id="83" name = "CursorBaseEffectName" >
           <Parameters>
           <InterpolatingParam id="84" interp="linr"  time="-9999999/1" value="1" leadInLength="0/1"   name="cursorSize"/>
           <InterpolatingParam id="85" interp="linr"  time="-9999999/1" value="0" leadInLength="0/1"   name="highlightBlurRadius"/>
           <InterpolatingParam id="86" interp="linr"  time="-9999999/1" value="0" leadInLength="0/1"   name="highlightColorBlue"/>
           <InterpolatingParam id="87" interp="linr"  time="-9999999/1" value="255" leadInLength="0/1"   name="highlightColorGreen"/>
           <InterpolatingParam id="88" interp="linr"  time="-9999999/1" value="255" leadInLength="0/1"   name="highlightColorRed"/>
           <InterpolatingParam id="89" interp="linr"  time="-9999999/1" value="5" leadInLength="0/1"   name="highlightFeatherSize"/>
           <InterpolatingParam id="90" interp="linr"  time="-9999999/1" value="2" leadInLength="0/1"   name="highlightMagnification"/>
           <InterpolatingParam id="91" interp="linr"  time="-9999999/1" value="1" leadInLength="0/1"   name="highlightOpacity"/>
           <InterpolatingParam id="92" interp="linr"  time="-9999999/1" value="45" leadInLength="0/1"   name="highlightSize"/>
           <Parameter id="93"   name="highlightType">
            <Keyframes>
            <Keyframe id="94"  time="-9999999/1" value="0" leadInLength="0/1"  />
            </Keyframes>
           </Parameter>
           <InterpolatingParam id="95" interp="linr"  time="-9999999/1" value="0" leadInLength="0/1"   name="leftClickColorBlue"/>
           <InterpolatingParam id="96" interp="linr"  time="-9999999/1" value="0" leadInLength="0/1"   name="leftClickColorGreen"/>
           <InterpolatingParam id="97" interp="linr"  time="-9999999/1" value="255" leadInLength="0/1"   name="leftClickColorRed"/>
           <InterpolatingParam id="98" interp="linr"  time="-9999999/1" value="0.80000000000000004" leadInLength="0/1"   name="leftClickDuration"/>
           <InterpolatingParam id="99" interp="linr"  time="-9999999/1" value="20" leadInLength="0/1"   name="leftClickSize"/>
           <Parameter id="100"   name="leftClickSoundFilename">
            <Keyframes>
            <Keyframe id="101"  time="-9999999/1" value="" leadInLength="0/1"  />
            </Keyframes>
           </Parameter>
           <InterpolatingParam id="102" interp="linr"  time="-9999999/1" value="1" leadInLength="0/1"   name="leftClickSoundVolume"/>
           <Parameter id="103"   name="leftClickType">
            <Keyframes>
            <Keyframe id="104"  time="-9999999/1" value="0" leadInLength="0/1"  />
            </Keyframes>
           </Parameter>
           <InterpolatingParam id="105" interp="linr"  time="-9999999/1" value="1" leadInLength="0/1"   name="opacity"/>
           <InterpolatingParam id="106" interp="linr"  time="-9999999/1" value="255" leadInLength="0/1"   name="rightClickColorBlue"/>
           <InterpolatingParam id="107" interp="linr"  time="-9999999/1" value="0" leadInLength="0/1"   name="rightClickColorGreen"/>
           <InterpolatingParam id="108" interp="linr"  time="-9999999/1" value="0" leadInLength="0/1"   name="rightClickColorRed"/>
           <InterpolatingParam id="109" interp="linr"  time="-9999999/1" value="0.80000000000000004" leadInLength="0/1"   name="rightClickDuration"/>
           <InterpolatingParam id="110" interp="linr"  time="-9999999/1" value="20" leadInLength="0/1"   name="rightClickSize"/>
           <Parameter id="111"   name="rightClickSoundFilename">
            <Keyframes>
            <Keyframe id="112"  time="-9999999/1" value="" leadInLength="0/1"  />
            </Keyframes>
           </Parameter>
           <InterpolatingParam id="113" interp="linr"  time="-9999999/1" value="1" leadInLength="0/1"   name="rightClickSoundVolume"/>
           <Parameter id="114"   name="rightClickType">
            <Keyframes>
            <Keyframe id="115"  time="-9999999/1" value="0" leadInLength="0/1"  />
            </Keyframes>
           </Parameter>
           </Parameters>
          </GenericEffect>
         </Effects>
         <Attributes>
          <Attribute id="116" value="" name="ident"/>
         </Attributes>
         <MetaData>
          <entry key="AutoAppliedSmartFocus" val="False"/>
          <entry key="WinSubProjectDisplayName" val=""/>
         </MetaData>
         <ExtraData>
          <Entry key="ZoomPanBin">
           <ZoomPanBin id="117"  >
            <ZoomPanKeyframes>
             <ZoomPanKeyframe id="118" timeRangeEnd="-9999999/1" timeRangeDuration="0/1" interpolaterName="leadin-linr"  />
            </ZoomPanKeyframes>
           </ZoomPanBin>
          </Entry>
          <Entry key="CursorEffectBin">
           <CursorEffectBin id="119"  >
            <CursorEffectKeyframes>
             <CursorEffectKeyframe id="120" timeRangeEnd="-9999999/1" timeRangeDuration="0/1" interpolaterName=""  />
            </CursorEffectKeyframes>
           </CursorEffectBin>
          </Entry>
         </ExtraData>
        </ScreenVMFile>
        <ScreenVMFile id="121" start="1293" duration="3681" scalar="1/1" mediaStart="75/1" mediaDuration="3681/1" trackNumber="0" src="16" >
         <Transformer>
          <VectorParam id="122"  name="translation">
           <InterpolatingParam id="123" interp="linr"  time="-9999999/1" value="0" leadInLength="0/1"  />
           <InterpolatingParam id="124" interp="linr"  time="-9999999/1" value="0" leadInLength="0/1"  />
           <InterpolatingParam id="125" interp="linr"  time="-9999999/1" value="0" leadInLength="0/1"  />
          </VectorParam>
          <VectorParam id="126"  name="rotation">
           <InterpolatingParam id="127" interp="linr"  time="-9999999/1" value="0" leadInLength="0/1"  />
           <InterpolatingParam id="128" interp="linr"  time="-9999999/1" value="0" leadInLength="0/1"  />
           <InterpolatingParam id="129" interp="linr"  time="-9999999/1" value="0" leadInLength="0/1"  />
          </VectorParam>
          <VectorParam id="130"  name="shear">
           <InterpolatingParam id="131" interp="linr"  time="-9999999/1" value="0" leadInLength="0/1"  />
           <InterpolatingParam id="132" interp="linr"  time="-9999999/1" value="0" leadInLength="0/1"  />
           <InterpolatingParam id="133" interp="linr"  time="-9999999/1" value="0" leadInLength="0/1"  />
          </VectorParam>
          <VectorParam id="134"  name="scale">
           <InterpolatingParam id="135" interp="linr"  time="-9999999/1" value="1" leadInLength="0/1"  />
           <InterpolatingParam id="136" interp="linr"  time="-9999999/1" value="1" leadInLength="0/1"  />
           <InterpolatingParam id="137" interp="linr"  time="-9999999/1" value="1" leadInLength="0/1"  />
          </VectorParam>
          <VectorParam id="138"  name="anchor">
           <InterpolatingParam id="139" interp="linr"  time="0/1" value="0" leadInLength="0/1"  />
           <InterpolatingParam id="140" interp="linr"  time="0/1" value="0" leadInLength="0/1"  />
           <InterpolatingParam id="141" interp="linr"  time="0/1" value="0" leadInLength="0/1"  />
          </VectorParam>
         </Transformer>
         <Parameters>
          <VectorParam id="142"  name="sourceCrop">
           <InterpolatingParam id="143" interp="linr"  time="0/1" value="0" leadInLength="0/1"  />
           <InterpolatingParam id="144" interp="linr"  time="0/1" value="0" leadInLength="0/1"  />
           <InterpolatingParam id="145" interp="linr"  time="0/1" value="0" leadInLength="0/1"  />
           <InterpolatingParam id="146" interp="linr"  time="0/1" value="0" leadInLength="0/1"  />
          </VectorParam>
          <VectorParam id="147"  name="geometryCrop">
           <InterpolatingParam id="148" interp="linr"  time="-9999999/1" value="0" leadInLength="0/1"  />
           <InterpolatingParam id="149" interp="linr"  time="-9999999/1" value="0" leadInLength="0/1"  />
           <InterpolatingParam id="150" interp="linr"  time="-9999999/1" value="0" leadInLength="0/1"  />
           <InterpolatingParam id="151" interp="linr"  time="-9999999/1" value="0" leadInLength="0/1"  />
          </VectorParam>
          <InterpolatingParam id="152" interp="linr"  time="-9999999/1" value="1" leadInLength="0/1"  name="opacity"/>
          <InterpolatingParam id="153" interp="linr"  time="0/1" value="1" leadInLength="0/1"  name="cursorOpacity"/>
          <InterpolatingParam id="154" interp="linr"  time="0/1" value="1" leadInLength="0/1"  name="cursorScale"/>
         </Parameters>
         <Effects>
          <GenericEffect id="155" name = "CursorBaseEffectName" >
           <Parameters>
           <InterpolatingParam id="156" interp="linr"  time="-9999999/1" value="1" leadInLength="0/1"   name="cursorSize"/>
           <InterpolatingParam id="157" interp="linr"  time="-9999999/1" value="0" leadInLength="0/1"   name="highlightBlurRadius"/>
           <InterpolatingParam id="158" interp="linr"  time="-9999999/1" value="0" leadInLength="0/1"   name="highlightColorBlue"/>
           <InterpolatingParam id="159" interp="linr"  time="-9999999/1" value="255" leadInLength="0/1"   name="highlightColorGreen"/>
           <InterpolatingParam id="160" interp="linr"  time="-9999999/1" value="255" leadInLength="0/1"   name="highlightColorRed"/>
           <InterpolatingParam id="161" interp="linr"  time="-9999999/1" value="5" leadInLength="0/1"   name="highlightFeatherSize"/>
           <InterpolatingParam id="162" interp="linr"  time="-9999999/1" value="2" leadInLength="0/1"   name="highlightMagnification"/>
           <InterpolatingParam id="163" interp="linr"  time="-9999999/1" value="1" leadInLength="0/1"   name="highlightOpacity"/>
           <InterpolatingParam id="164" interp="linr"  time="-9999999/1" value="45" leadInLength="0/1"   name="highlightSize"/>
           <Parameter id="165"   name="highlightType">
            <Keyframes>
            <Keyframe id="166"  time="-9999999/1" value="0" leadInLength="0/1"  />
            </Keyframes>
           </Parameter>
           <InterpolatingParam id="167" interp="linr"  time="-9999999/1" value="0" leadInLength="0/1"   name="leftClickColorBlue"/>
           <InterpolatingParam id="168" interp="linr"  time="-9999999/1" value="0" leadInLength="0/1"   name="leftClickColorGreen"/>
           <InterpolatingParam id="169" interp="linr"  time="-9999999/1" value="255" leadInLength="0/1"   name="leftClickColorRed"/>
           <InterpolatingParam id="170" interp="linr"  time="-9999999/1" value="0.80000000000000004" leadInLength="0/1"   name="leftClickDuration"/>
           <InterpolatingParam id="171" interp="linr"  time="-9999999/1" value="20" leadInLength="0/1"   name="leftClickSize"/>
           <Parameter id="172"   name="leftClickSoundFilename">
            <Keyframes>
            <Keyframe id="173"  time="-9999999/1" value="" leadInLength="0/1"  />
            </Keyframes>
           </Parameter>
           <InterpolatingParam id="174" interp="linr"  time="-9999999/1" value="1" leadInLength="0/1"   name="leftClickSoundVolume"/>
           <Parameter id="175"   name="leftClickType">
            <Keyframes>
            <Keyframe id="176"  time="-9999999/1" value="0" leadInLength="0/1"  />
            </Keyframes>
           </Parameter>
           <InterpolatingParam id="177" interp="linr"  time="-9999999/1" value="1" leadInLength="0/1"   name="opacity"/>
           <InterpolatingParam id="178" interp="linr"  time="-9999999/1" value="255" leadInLength="0/1"   name="rightClickColorBlue"/>
           <InterpolatingParam id="179" interp="linr"  time="-9999999/1" value="0" leadInLength="0/1"   name="rightClickColorGreen"/>
           <InterpolatingParam id="180" interp="linr"  time="-9999999/1" value="0" leadInLength="0/1"   name="rightClickColorRed"/>
           <InterpolatingParam id="181" interp="linr"  time="-9999999/1" value="0.80000000000000004" leadInLength="0/1"   name="rightClickDuration"/>
           <InterpolatingParam id="182" interp="linr"  time="-9999999/1" value="20" leadInLength="0/1"   name="rightClickSize"/>
           <Parameter id="183"   name="rightClickSoundFilename">
            <Keyframes>
            <Keyframe id="184"  time="-9999999/1" value="" leadInLength="0/1"  />
            </Keyframes>
           </Parameter>
           <InterpolatingParam id="185" interp="linr"  time="-9999999/1" value="1" leadInLength="0/1"   name="rightClickSoundVolume"/>
           <Parameter id="186"   name="rightClickType">
            <Keyframes>
            <Keyframe id="187"  time="-9999999/1" value="0" leadInLength="0/1"  />
            </Keyframes>
           </Parameter>
           </Parameters>
          </GenericEffect>
         </Effects>
         <Attributes>
          <Attribute id="188" value="" name="ident"/>
         </Attributes>
         <MetaData>
          <entry key="AutoAppliedSmartFocus" val="False"/>
          <entry key="WinSubProjectDisplayName" val=""/>
         </MetaData>
         <ExtraData>
          <Entry key="ZoomPanBin">
           <ZoomPanBin id="189"  >
            <ZoomPanKeyframes>
             <ZoomPanKeyframe id="190" timeRangeEnd="-9999999/1" timeRangeDuration="0/1" interpolaterName="linr"  />
            </ZoomPanKeyframes>
           </ZoomPanBin>
          </Entry>
          <Entry key="CursorEffectBin">
           <CursorEffectBin id="191"  >
            <CursorEffectKeyframes>
             <CursorEffectKeyframe id="192" timeRangeEnd="-9999999/1" timeRangeDuration="0/1" interpolaterName=""  />
            </CursorEffectKeyframes>
           </CursorEffectBin>
          </Entry>
         </ExtraData>
        </ScreenVMFile>
        <ScreenVMFile id="193" start="4974" duration="86" scalar="1/1" mediaStart="0/1" mediaDuration="86/1" trackNumber="0" src="18" >
         <Transformer>
          <VectorParam id="194"  name="translation">
           <InterpolatingParam id="195" interp="linr"  time="-9999999/1" value="0" leadInLength="0/1"  />
           <InterpolatingParam id="196" interp="linr"  time="-9999999/1" value="0" leadInLength="0/1"  />
           <InterpolatingParam id="197" interp="linr"  time="-9999999/1" value="0" leadInLength="0/1"  />
          </VectorParam>
          <VectorParam id="198"  name="rotation">
           <InterpolatingParam id="199" interp="linr"  time="-9999999/1" value="0" leadInLength="0/1"  />
           <InterpolatingParam id="200" interp="linr"  time="-9999999/1" value="0" leadInLength="0/1"  />
           <InterpolatingParam id="201" interp="linr"  time="-9999999/1" value="0" leadInLength="0/1"  />
          </VectorParam>
          <VectorParam id="202"  name="shear">
           <InterpolatingParam id="203" interp="linr"  time="-9999999/1" value="0" leadInLength="0/1"  />
           <InterpolatingParam id="204" interp="linr"  time="-9999999/1" value="0" leadInLength="0/1"  />
           <InterpolatingParam id="205" interp="linr"  time="-9999999/1" value="0" leadInLength="0/1"  />
          </VectorParam>
          <VectorParam id="206"  name="scale">
           <InterpolatingParam id="207" interp="linr"  time="-9999999/1" value="1" leadInLength="0/1"  />
           <InterpolatingParam id="208" interp="linr"  time="-9999999/1" value="1" leadInLength="0/1"  />
           <InterpolatingParam id="209" interp="linr"  time="-9999999/1" value="1" leadInLength="0/1"  />
          </VectorParam>
          <VectorParam id="210"  name="anchor">
           <InterpolatingParam id="211" interp="linr"  time="0/1" value="0" leadInLength="0/1"  />
           <InterpolatingParam id="212" interp="linr"  time="0/1" value="0" leadInLength="0/1"  />
           <InterpolatingParam id="213" interp="linr"  time="0/1" value="0" leadInLength="0/1"  />
          </VectorParam>
         </Transformer>
         <Parameters>
          <VectorParam id="214"  name="sourceCrop">
           <InterpolatingParam id="215" interp="linr"  time="0/1" value="0" leadInLength="0/1"  />
           <InterpolatingParam id="216" interp="linr"  time="0/1" value="0" leadInLength="0/1"  />
           <InterpolatingParam id="217" interp="linr"  time="0/1" value="0" leadInLength="0/1"  />
           <InterpolatingParam id="218" interp="linr"  time="0/1" value="0" leadInLength="0/1"  />
          </VectorParam>
          <VectorParam id="219"  name="geometryCrop">
           <InterpolatingParam id="220" interp="linr"  time="-9999999/1" value="0" leadInLength="0/1"  />
           <InterpolatingParam id="221" interp="linr"  time="-9999999/1" value="0" leadInLength="0/1"  />
           <InterpolatingParam id="222" interp="linr"  time="-9999999/1" value="0" leadInLength="0/1"  />
           <InterpolatingParam id="223" interp="linr"  time="-9999999/1" value="0" leadInLength="0/1"  />
          </VectorParam>
          <InterpolatingParam id="224" interp="linr"  time="-9999999/1" value="1" leadInLength="0/1"  name="opacity"/>
          <InterpolatingParam id="225" interp="linr"  time="0/1" value="1" leadInLength="0/1"  name="cursorOpacity"/>
          <InterpolatingParam id="226" interp="linr"  time="0/1" value="1" leadInLength="0/1"  name="cursorScale"/>
         </Parameters>
         <Effects>
          <GenericEffect id="227" name = "CursorBaseEffectName" >
           <Parameters>
           <InterpolatingParam id="228" interp="linr"  time="-9999999/1" value="1" leadInLength="0/1"   name="cursorSize"/>
           <InterpolatingParam id="229" interp="linr"  time="-9999999/1" value="0" leadInLength="0/1"   name="highlightBlurRadius"/>
           <InterpolatingParam id="230" interp="linr"  time="-9999999/1" value="0" leadInLength="0/1"   name="highlightColorBlue"/>
           <InterpolatingParam id="231" interp="linr"  time="-9999999/1" value="255" leadInLength="0/1"   name="highlightColorGreen"/>
           <InterpolatingParam id="232" interp="linr"  time="-9999999/1" value="255" leadInLength="0/1"   name="highlightColorRed"/>
           <InterpolatingParam id="233" interp="linr"  time="-9999999/1" value="5" leadInLength="0/1"   name="highlightFeatherSize"/>
           <InterpolatingParam id="234" interp="linr"  time="-9999999/1" value="2" leadInLength="0/1"   name="highlightMagnification"/>
           <InterpolatingParam id="235" interp="linr"  time="-9999999/1" value="1" leadInLength="0/1"   name="highlightOpacity"/>
           <InterpolatingParam id="236" interp="linr"  time="-9999999/1" value="45" leadInLength="0/1"   name="highlightSize"/>
           <Parameter id="237"   name="highlightType">
            <Keyframes>
            <Keyframe id="238"  time="-9999999/1" value="0" leadInLength="0/1"  />
            </Keyframes>
           </Parameter>
           <InterpolatingParam id="239" interp="linr"  time="-9999999/1" value="0" leadInLength="0/1"   name="leftClickColorBlue"/>
           <InterpolatingParam id="240" interp="linr"  time="-9999999/1" value="0" leadInLength="0/1"   name="leftClickColorGreen"/>
           <InterpolatingParam id="241" interp="linr"  time="-9999999/1" value="255" leadInLength="0/1"   name="leftClickColorRed"/>
           <InterpolatingParam id="242" interp="linr"  time="-9999999/1" value="0.80000000000000004" leadInLength="0/1"   name="leftClickDuration"/>
           <InterpolatingParam id="243" interp="linr"  time="-9999999/1" value="20" leadInLength="0/1"   name="leftClickSize"/>
           <Parameter id="244"   name="leftClickSoundFilename">
            <Keyframes>
            <Keyframe id="245"  time="-9999999/1" value="" leadInLength="0/1"  />
            </Keyframes>
           </Parameter>
           <InterpolatingParam id="246" interp="linr"  time="-9999999/1" value="1" leadInLength="0/1"   name="leftClickSoundVolume"/>
           <Parameter id="247"   name="leftClickType">
            <Keyframes>
            <Keyframe id="248"  time="-9999999/1" value="0" leadInLength="0/1"  />
            </Keyframes>
           </Parameter>
           <InterpolatingParam id="249" interp="linr"  time="-9999999/1" value="1" leadInLength="0/1"   name="opacity"/>
           <InterpolatingParam id="250" interp="linr"  time="-9999999/1" value="255" leadInLength="0/1"   name="rightClickColorBlue"/>
           <InterpolatingParam id="251" interp="linr"  time="-9999999/1" value="0" leadInLength="0/1"   name="rightClickColorGreen"/>
           <InterpolatingParam id="252" interp="linr"  time="-9999999/1" value="0" leadInLength="0/1"   name="rightClickColorRed"/>
           <InterpolatingParam id="253" interp="linr"  time="-9999999/1" value="0.80000000000000004" leadInLength="0/1"   name="rightClickDuration"/>
           <InterpolatingParam id="254" interp="linr"  time="-9999999/1" value="20" leadInLength="0/1"   name="rightClickSize"/>
           <Parameter id="255"   name="rightClickSoundFilename">
            <Keyframes>
            <Keyframe id="256"  time="-9999999/1" value="" leadInLength="0/1"  />
            </Keyframes>
           </Parameter>
           <InterpolatingParam id="257" interp="linr"  time="-9999999/1" value="1" leadInLength="0/1"   name="rightClickSoundVolume"/>
           <Parameter id="258"   name="rightClickType">
            <Keyframes>
            <Keyframe id="259"  time="-9999999/1" value="0" leadInLength="0/1"  />
            </Keyframes>
           </Parameter>
           </Parameters>
          </GenericEffect>
         </Effects>
         <Attributes>
          <Attribute id="260" value="" name="ident"/>
         </Attributes>
         <MetaData>
          <entry key="AutoAppliedSmartFocus" val="False"/>
          <entry key="WinSubProjectDisplayName" val=""/>
         </MetaData>
         <ExtraData>
          <Entry key="ZoomPanBin">
           <ZoomPanBin id="261"  >
            <ZoomPanKeyframes>
             <ZoomPanKeyframe id="262" timeRangeEnd="-9999999/1" timeRangeDuration="0/1" interpolaterName="linr"  />
            </ZoomPanKeyframes>
           </ZoomPanBin>
          </Entry>
          <Entry key="CursorEffectBin">
           <CursorEffectBin id="263"  >
            <CursorEffectKeyframes>
             <CursorEffectKeyframe id="264" timeRangeEnd="-9999999/1" timeRangeDuration="0/1" interpolaterName=""  />
            </CursorEffectKeyframes>
           </CursorEffectBin>
          </Entry>
         </ExtraData>
        </ScreenVMFile>
        <ScreenVMFile id="265" start="5060" duration="3670" scalar="1/1" mediaStart="101/1" mediaDuration="3670/1" trackNumber="0" src="17" >
         <Transformer>
          <VectorParam id="266"  name="translation">
           <InterpolatingParam id="267" interp="linr"  time="-9999999/1" value="0" leadInLength="0/1"  />
           <InterpolatingParam id="268" interp="linr"  time="-9999999/1" value="0" leadInLength="0/1"  />
           <InterpolatingParam id="269" interp="linr"  time="-9999999/1" value="0" leadInLength="0/1"  />
          </VectorParam>
          <VectorParam id="270"  name="rotation">
           <InterpolatingParam id="271" interp="linr"  time="-9999999/1" value="0" leadInLength="0/1"  />
           <InterpolatingParam id="272" interp="linr"  time="-9999999/1" value="0" leadInLength="0/1"  />
           <InterpolatingParam id="273" interp="linr"  time="-9999999/1" value="0" leadInLength="0/1"  />
          </VectorParam>
          <VectorParam id="274"  name="shear">
           <InterpolatingParam id="275" interp="linr"  time="-9999999/1" value="0" leadInLength="0/1"  />
           <InterpolatingParam id="276" interp="linr"  time="-9999999/1" value="0" leadInLength="0/1"  />
           <InterpolatingParam id="277" interp="linr"  time="-9999999/1" value="0" leadInLength="0/1"  />
          </VectorParam>
          <VectorParam id="278"  name="scale">
           <InterpolatingParam id="279" interp="linr"  time="-9999999/1" value="1" leadInLength="0/1"  />
           <InterpolatingParam id="280" interp="linr"  time="-9999999/1" value="1" leadInLength="0/1"  />
           <InterpolatingParam id="281" interp="linr"  time="-9999999/1" value="1" leadInLength="0/1"  />
          </VectorParam>
          <VectorParam id="282"  name="anchor">
           <InterpolatingParam id="283" interp="linr"  time="0/1" value="0" leadInLength="0/1"  />
           <InterpolatingParam id="284" interp="linr"  time="0/1" value="0" leadInLength="0/1"  />
           <InterpolatingParam id="285" interp="linr"  time="0/1" value="0" leadInLength="0/1"  />
          </VectorParam>
         </Transformer>
         <Parameters>
          <VectorParam id="286"  name="sourceCrop">
           <InterpolatingParam id="287" interp="linr"  time="0/1" value="0" leadInLength="0/1"  />
           <InterpolatingParam id="288" interp="linr"  time="0/1" value="0" leadInLength="0/1"  />
           <InterpolatingParam id="289" interp="linr"  time="0/1" value="0" leadInLength="0/1"  />
           <InterpolatingParam id="290" interp="linr"  time="0/1" value="0" leadInLength="0/1"  />
          </VectorParam>
          <VectorParam id="291"  name="geometryCrop">
           <InterpolatingParam id="292" interp="linr"  time="-9999999/1" value="0" leadInLength="0/1"  />
           <InterpolatingParam id="293" interp="linr"  time="-9999999/1" value="0" leadInLength="0/1"  />
           <InterpolatingParam id="294" interp="linr"  time="-9999999/1" value="0" leadInLength="0/1"  />
           <InterpolatingParam id="295" interp="linr"  time="-9999999/1" value="0" leadInLength="0/1"  />
          </VectorParam>
          <InterpolatingParam id="296" interp="linr"  time="-9999999/1" value="1" leadInLength="0/1"  name="opacity"/>
          <InterpolatingParam id="297" interp="linr"  time="0/1" value="1" leadInLength="0/1"  name="cursorOpacity"/>
          <InterpolatingParam id="298" interp="linr"  time="0/1" value="1" leadInLength="0/1"  name="cursorScale"/>
         </Parameters>
         <Effects>
          <GenericEffect id="299" name = "CursorBaseEffectName" >
           <Parameters>
           <InterpolatingParam id="300" interp="linr"  time="-9999999/1" value="1" leadInLength="0/1"   name="cursorSize"/>
           <InterpolatingParam id="301" interp="linr"  time="-9999999/1" value="0" leadInLength="0/1"   name="highlightBlurRadius"/>
           <InterpolatingParam id="302" interp="linr"  time="-9999999/1" value="0" leadInLength="0/1"   name="highlightColorBlue"/>
           <InterpolatingParam id="303" interp="linr"  time="-9999999/1" value="255" leadInLength="0/1"   name="highlightColorGreen"/>
           <InterpolatingParam id="304" interp="linr"  time="-9999999/1" value="255" leadInLength="0/1"   name="highlightColorRed"/>
           <InterpolatingParam id="305" interp="linr"  time="-9999999/1" value="5" leadInLength="0/1"   name="highlightFeatherSize"/>
           <InterpolatingParam id="306" interp="linr"  time="-9999999/1" value="2" leadInLength="0/1"   name="highlightMagnification"/>
           <InterpolatingParam id="307" interp="linr"  time="-9999999/1" value="1" leadInLength="0/1"   name="highlightOpacity"/>
           <InterpolatingParam id="308" interp="linr"  time="-9999999/1" value="45" leadInLength="0/1"   name="highlightSize"/>
           <Parameter id="309"   name="highlightType">
            <Keyframes>
            <Keyframe id="310"  time="-9999999/1" value="0" leadInLength="0/1"  />
            </Keyframes>
           </Parameter>
           <InterpolatingParam id="311" interp="linr"  time="-9999999/1" value="0" leadInLength="0/1"   name="leftClickColorBlue"/>
           <InterpolatingParam id="312" interp="linr"  time="-9999999/1" value="0" leadInLength="0/1"   name="leftClickColorGreen"/>
           <InterpolatingParam id="313" interp="linr"  time="-9999999/1" value="255" leadInLength="0/1"   name="leftClickColorRed"/>
           <InterpolatingParam id="314" interp="linr"  time="-9999999/1" value="0.80000000000000004" leadInLength="0/1"   name="leftClickDuration"/>
           <InterpolatingParam id="315" interp="linr"  time="-9999999/1" value="20" leadInLength="0/1"   name="leftClickSize"/>
           <Parameter id="316"   name="leftClickSoundFilename">
            <Keyframes>
            <Keyframe id="317"  time="-9999999/1" value="" leadInLength="0/1"  />
            </Keyframes>
           </Parameter>
           <InterpolatingParam id="318" interp="linr"  time="-9999999/1" value="1" leadInLength="0/1"   name="leftClickSoundVolume"/>
           <Parameter id="319"   name="leftClickType">
            <Keyframes>
            <Keyframe id="320"  time="-9999999/1" value="0" leadInLength="0/1"  />
            </Keyframes>
           </Parameter>
           <InterpolatingParam id="321" interp="linr"  time="-9999999/1" value="1" leadInLength="0/1"   name="opacity"/>
           <InterpolatingParam id="322" interp="linr"  time="-9999999/1" value="255" leadInLength="0/1"   name="rightClickColorBlue"/>
           <InterpolatingParam id="323" interp="linr"  time="-9999999/1" value="0" leadInLength="0/1"   name="rightClickColorGreen"/>
           <InterpolatingParam id="324" interp="linr"  time="-9999999/1" value="0" leadInLength="0/1"   name="rightClickColorRed"/>
           <InterpolatingParam id="325" interp="linr"  time="-9999999/1" value="0.80000000000000004" leadInLength="0/1"   name="rightClickDuration"/>
           <InterpolatingParam id="326" interp="linr"  time="-9999999/1" value="20" leadInLength="0/1"   name="rightClickSize"/>
           <Parameter id="327"   name="rightClickSoundFilename">
            <Keyframes>
            <Keyframe id="328"  time="-9999999/1" value="" leadInLength="0/1"  />
            </Keyframes>
           </Parameter>
           <InterpolatingParam id="329" interp="linr"  time="-9999999/1" value="1" leadInLength="0/1"   name="rightClickSoundVolume"/>
           <Parameter id="330"   name="rightClickType">
            <Keyframes>
            <Keyframe id="331"  time="-9999999/1" value="0" leadInLength="0/1"  />
            </Keyframes>
           </Parameter>
           </Parameters>
          </GenericEffect>
         </Effects>
         <Attributes>
          <Attribute id="332" value="" name="ident"/>
         </Attributes>
         <MetaData>
          <entry key="AutoAppliedSmartFocus" val="False"/>
          <entry key="WinSubProjectDisplayName" val=""/>
         </MetaData>
         <ExtraData>
          <Entry key="ZoomPanBin">
           <ZoomPanBin id="333"  >
            <ZoomPanKeyframes>
             <ZoomPanKeyframe id="334" timeRangeEnd="-9999999/1" timeRangeDuration="0/1" interpolaterName="linr"  />
            </ZoomPanKeyframes>
           </ZoomPanBin>
          </Entry>
          <Entry key="CursorEffectBin">
           <CursorEffectBin id="335"  >
            <CursorEffectKeyframes>
             <CursorEffectKeyframe id="336" timeRangeEnd="-9999999/1" timeRangeDuration="0/1" interpolaterName=""  />
            </CursorEffectKeyframes>
           </CursorEffectBin>
          </Entry>
         </ExtraData>
        </ScreenVMFile>
        <ScreenVMFile id="337" start="8730" duration="2696" scalar="1/1" mediaStart="85/1" mediaDuration="2696/1" trackNumber="0" src="19" >
         <Transformer>
          <VectorParam id="338"  name="translation">
           <InterpolatingParam id="339" interp="linr"  time="-9999999/1" value="0" leadInLength="0/1"  />
           <InterpolatingParam id="340" interp="linr"  time="-9999999/1" value="0" leadInLength="0/1"  />
           <InterpolatingParam id="341" interp="linr"  time="-9999999/1" value="0" leadInLength="0/1"  />
          </VectorParam>
          <VectorParam id="342"  name="rotation">
           <InterpolatingParam id="343" interp="linr"  time="-9999999/1" value="0" leadInLength="0/1"  />
           <InterpolatingParam id="344" interp="linr"  time="-9999999/1" value="0" leadInLength="0/1"  />
           <InterpolatingParam id="345" interp="linr"  time="-9999999/1" value="0" leadInLength="0/1"  />
          </VectorParam>
          <VectorParam id="346"  name="shear">
           <InterpolatingParam id="347" interp="linr"  time="-9999999/1" value="0" leadInLength="0/1"  />
           <InterpolatingParam id="348" interp="linr"  time="-9999999/1" value="0" leadInLength="0/1"  />
           <InterpolatingParam id="349" interp="linr"  time="-9999999/1" value="0" leadInLength="0/1"  />
          </VectorParam>
          <VectorParam id="350"  name="scale">
           <InterpolatingParam id="351" interp="linr"  time="-9999999/1" value="1" leadInLength="0/1"  />
           <InterpolatingParam id="352" interp="linr"  time="-9999999/1" value="1" leadInLength="0/1"  />
           <InterpolatingParam id="353" interp="linr"  time="-9999999/1" value="1" leadInLength="0/1"  />
          </VectorParam>
          <VectorParam id="354"  name="anchor">
           <InterpolatingParam id="355" interp="linr"  time="0/1" value="0" leadInLength="0/1"  />
           <InterpolatingParam id="356" interp="linr"  time="0/1" value="0" leadInLength="0/1"  />
           <InterpolatingParam id="357" interp="linr"  time="0/1" value="0" leadInLength="0/1"  />
          </VectorParam>
         </Transformer>
         <Parameters>
          <VectorParam id="358"  name="sourceCrop">
           <InterpolatingParam id="359" interp="linr"  time="0/1" value="0" leadInLength="0/1"  />
           <InterpolatingParam id="360" interp="linr"  time="0/1" value="0" leadInLength="0/1"  />
           <InterpolatingParam id="361" interp="linr"  time="0/1" value="0" leadInLength="0/1"  />
           <InterpolatingParam id="362" interp="linr"  time="0/1" value="0" leadInLength="0/1"  />
          </VectorParam>
          <VectorParam id="363"  name="geometryCrop">
           <InterpolatingParam id="364" interp="linr"  time="-9999999/1" value="0" leadInLength="0/1"  />
           <InterpolatingParam id="365" interp="linr"  time="-9999999/1" value="0" leadInLength="0/1"  />
           <InterpolatingParam id="366" interp="linr"  time="-9999999/1" value="0" leadInLength="0/1"  />
           <InterpolatingParam id="367" interp="linr"  time="-9999999/1" value="0" leadInLength="0/1"  />
          </VectorParam>
          <InterpolatingParam id="368" interp="linr"  time="-9999999/1" value="1" leadInLength="0/1"  name="opacity"/>
          <InterpolatingParam id="369" interp="linr"  time="0/1" value="1" leadInLength="0/1"  name="cursorOpacity"/>
          <InterpolatingParam id="370" interp="linr"  time="0/1" value="1" leadInLength="0/1"  name="cursorScale"/>
         </Parameters>
         <Effects>
          <GenericEffect id="371" name = "CursorBaseEffectName" >
           <Parameters>
           <InterpolatingParam id="372" interp="linr"  time="-9999999/1" value="1" leadInLength="0/1"   name="cursorSize"/>
           <InterpolatingParam id="373" interp="linr"  time="-9999999/1" value="0" leadInLength="0/1"   name="highlightBlurRadius"/>
           <InterpolatingParam id="374" interp="linr"  time="-9999999/1" value="0" leadInLength="0/1"   name="highlightColorBlue"/>
           <InterpolatingParam id="375" interp="linr"  time="-9999999/1" value="255" leadInLength="0/1"   name="highlightColorGreen"/>
           <InterpolatingParam id="376" interp="linr"  time="-9999999/1" value="255" leadInLength="0/1"   name="highlightColorRed"/>
           <InterpolatingParam id="377" interp="linr"  time="-9999999/1" value="5" leadInLength="0/1"   name="highlightFeatherSize"/>
           <InterpolatingParam id="378" interp="linr"  time="-9999999/1" value="2" leadInLength="0/1"   name="highlightMagnification"/>
           <InterpolatingParam id="379" interp="linr"  time="-9999999/1" value="1" leadInLength="0/1"   name="highlightOpacity"/>
           <InterpolatingParam id="380" interp="linr"  time="-9999999/1" value="45" leadInLength="0/1"   name="highlightSize"/>
           <Parameter id="381"   name="highlightType">
            <Keyframes>
            <Keyframe id="382"  time="-9999999/1" value="0" leadInLength="0/1"  />
            </Keyframes>
           </Parameter>
           <InterpolatingParam id="383" interp="linr"  time="-9999999/1" value="0" leadInLength="0/1"   name="leftClickColorBlue"/>
           <InterpolatingParam id="384" interp="linr"  time="-9999999/1" value="0" leadInLength="0/1"   name="leftClickColorGreen"/>
           <InterpolatingParam id="385" interp="linr"  time="-9999999/1" value="255" leadInLength="0/1"   name="leftClickColorRed"/>
           <InterpolatingParam id="386" interp="linr"  time="-9999999/1" value="0.80000000000000004" leadInLength="0/1"   name="leftClickDuration"/>
           <InterpolatingParam id="387" interp="linr"  time="-9999999/1" value="20" leadInLength="0/1"   name="leftClickSize"/>
           <Parameter id="388"   name="leftClickSoundFilename">
            <Keyframes>
            <Keyframe id="389"  time="-9999999/1" value="" leadInLength="0/1"  />
            </Keyframes>
           </Parameter>
           <InterpolatingParam id="390" interp="linr"  time="-9999999/1" value="1" leadInLength="0/1"   name="leftClickSoundVolume"/>
           <Parameter id="391"   name="leftClickType">
            <Keyframes>
            <Keyframe id="392"  time="-9999999/1" value="0" leadInLength="0/1"  />
            </Keyframes>
           </Parameter>
           <InterpolatingParam id="393" interp="linr"  time="-9999999/1" value="1" leadInLength="0/1"   name="opacity"/>
           <InterpolatingParam id="394" interp="linr"  time="-9999999/1" value="255" leadInLength="0/1"   name="rightClickColorBlue"/>
           <InterpolatingParam id="395" interp="linr"  time="-9999999/1" value="0" leadInLength="0/1"   name="rightClickColorGreen"/>
           <InterpolatingParam id="396" interp="linr"  time="-9999999/1" value="0" leadInLength="0/1"   name="rightClickColorRed"/>
           <InterpolatingParam id="397" interp="linr"  time="-9999999/1" value="0.80000000000000004" leadInLength="0/1"   name="rightClickDuration"/>
           <InterpolatingParam id="398" interp="linr"  time="-9999999/1" value="20" leadInLength="0/1"   name="rightClickSize"/>
           <Parameter id="399"   name="rightClickSoundFilename">
            <Keyframes>
            <Keyframe id="400"  time="-9999999/1" value="" leadInLength="0/1"  />
            </Keyframes>
           </Parameter>
           <InterpolatingParam id="401" interp="linr"  time="-9999999/1" value="1" leadInLength="0/1"   name="rightClickSoundVolume"/>
           <Parameter id="402"   name="rightClickType">
            <Keyframes>
            <Keyframe id="403"  time="-9999999/1" value="0" leadInLength="0/1"  />
            </Keyframes>
           </Parameter>
           </Parameters>
          </GenericEffect>
         </Effects>
         <Attributes>
          <Attribute id="404" value="" name="ident"/>
         </Attributes>
         <MetaData>
          <entry key="AutoAppliedSmartFocus" val="False"/>
          <entry key="WinSubProjectDisplayName" val=""/>
         </MetaData>
         <ExtraData>
          <Entry key="ZoomPanBin">
           <ZoomPanBin id="405"  >
            <ZoomPanKeyframes>
             <ZoomPanKeyframe id="406" timeRangeEnd="-9999999/1" timeRangeDuration="0/1" interpolaterName="linr"  />
            </ZoomPanKeyframes>
           </ZoomPanBin>
          </Entry>
          <Entry key="CursorEffectBin">
           <CursorEffectBin id="407"  >
            <CursorEffectKeyframes>
             <CursorEffectKeyframe id="408" timeRangeEnd="-9999999/1" timeRangeDuration="0/1" interpolaterName=""  />
            </CursorEffectKeyframes>
           </CursorEffectBin>
          </Entry>
         </ExtraData>
        </ScreenVMFile>
        <ScreenVMFile id="409" start="11426" duration="2816" scalar="1/1" mediaStart="39/1" mediaDuration="2816/1" trackNumber="0" src="20" >
         <Transformer>
          <VectorParam id="410"  name="translation">
           <InterpolatingParam id="411" interp="linr"  time="-9999999/1" value="0" leadInLength="0/1"  />
           <InterpolatingParam id="412" interp="linr"  time="-9999999/1" value="0" leadInLength="0/1"  />
           <InterpolatingParam id="413" interp="linr"  time="-9999999/1" value="0" leadInLength="0/1"  />
          </VectorParam>
          <VectorParam id="414"  name="rotation">
           <InterpolatingParam id="415" interp="linr"  time="-9999999/1" value="0" leadInLength="0/1"  />
           <InterpolatingParam id="416" interp="linr"  time="-9999999/1" value="0" leadInLength="0/1"  />
           <InterpolatingParam id="417" interp="linr"  time="-9999999/1" value="0" leadInLength="0/1"  />
          </VectorParam>
          <VectorParam id="418"  name="shear">
           <InterpolatingParam id="419" interp="linr"  time="-9999999/1" value="0" leadInLength="0/1"  />
           <InterpolatingParam id="420" interp="linr"  time="-9999999/1" value="0" leadInLength="0/1"  />
           <InterpolatingParam id="421" interp="linr"  time="-9999999/1" value="0" leadInLength="0/1"  />
          </VectorParam>
          <VectorParam id="422"  name="scale">
           <InterpolatingParam id="423" interp="linr"  time="-9999999/1" value="1" leadInLength="0/1"  />
           <InterpolatingParam id="424" interp="linr"  time="-9999999/1" value="1" leadInLength="0/1"  />
           <InterpolatingParam id="425" interp="linr"  time="-9999999/1" value="1" leadInLength="0/1"  />
          </VectorParam>
          <VectorParam id="426"  name="anchor">
           <InterpolatingParam id="427" interp="linr"  time="0/1" value="0" leadInLength="0/1"  />
           <InterpolatingParam id="428" interp="linr"  time="0/1" value="0" leadInLength="0/1"  />
           <InterpolatingParam id="429" interp="linr"  time="0/1" value="0" leadInLength="0/1"  />
          </VectorParam>
         </Transformer>
         <Parameters>
          <VectorParam id="430"  name="sourceCrop">
           <InterpolatingParam id="431" interp="linr"  time="0/1" value="0" leadInLength="0/1"  />
           <InterpolatingParam id="432" interp="linr"  time="0/1" value="0" leadInLength="0/1"  />
           <InterpolatingParam id="433" interp="linr"  time="0/1" value="0" leadInLength="0/1"  />
           <InterpolatingParam id="434" interp="linr"  time="0/1" value="0" leadInLength="0/1"  />
          </VectorParam>
          <VectorParam id="435"  name="geometryCrop">
           <InterpolatingParam id="436" interp="linr"  time="-9999999/1" value="0" leadInLength="0/1"  />
           <InterpolatingParam id="437" interp="linr"  time="-9999999/1" value="0" leadInLength="0/1"  />
           <InterpolatingParam id="438" interp="linr"  time="-9999999/1" value="0" leadInLength="0/1"  />
           <InterpolatingParam id="439" interp="linr"  time="-9999999/1" value="0" leadInLength="0/1"  />
          </VectorParam>
          <InterpolatingParam id="440" interp="linr"  time="-9999999/1" value="1" leadInLength="0/1"  name="opacity"/>
          <InterpolatingParam id="441" interp="linr"  time="0/1" value="1" leadInLength="0/1"  name="cursorOpacity"/>
          <InterpolatingParam id="442" interp="linr"  time="0/1" value="1" leadInLength="0/1"  name="cursorScale"/>
         </Parameters>
         <Effects>
          <GenericEffect id="443" name = "CursorBaseEffectName" >
           <Parameters>
           <InterpolatingParam id="444" interp="linr"  time="-9999999/1" value="1" leadInLength="0/1"   name="cursorSize"/>
           <InterpolatingParam id="445" interp="linr"  time="-9999999/1" value="0" leadInLength="0/1"   name="highlightBlurRadius"/>
           <InterpolatingParam id="446" interp="linr"  time="-9999999/1" value="0" leadInLength="0/1"   name="highlightColorBlue"/>
           <InterpolatingParam id="447" interp="linr"  time="-9999999/1" value="255" leadInLength="0/1"   name="highlightColorGreen"/>
           <InterpolatingParam id="448" interp="linr"  time="-9999999/1" value="255" leadInLength="0/1"   name="highlightColorRed"/>
           <InterpolatingParam id="449" interp="linr"  time="-9999999/1" value="5" leadInLength="0/1"   name="highlightFeatherSize"/>
           <InterpolatingParam id="450" interp="linr"  time="-9999999/1" value="2" leadInLength="0/1"   name="highlightMagnification"/>
           <InterpolatingParam id="451" interp="linr"  time="-9999999/1" value="1" leadInLength="0/1"   name="highlightOpacity"/>
           <InterpolatingParam id="452" interp="linr"  time="-9999999/1" value="45" leadInLength="0/1"   name="highlightSize"/>
           <Parameter id="453"   name="highlightType">
            <Keyframes>
            <Keyframe id="454"  time="-9999999/1" value="0" leadInLength="0/1"  />
            </Keyframes>
           </Parameter>
           <InterpolatingParam id="455" interp="linr"  time="-9999999/1" value="0" leadInLength="0/1"   name="leftClickColorBlue"/>
           <InterpolatingParam id="456" interp="linr"  time="-9999999/1" value="0" leadInLength="0/1"   name="leftClickColorGreen"/>
           <InterpolatingParam id="457" interp="linr"  time="-9999999/1" value="255" leadInLength="0/1"   name="leftClickColorRed"/>
           <InterpolatingParam id="458" interp="linr"  time="-9999999/1" value="0.80000000000000004" leadInLength="0/1"   name="leftClickDuration"/>
           <InterpolatingParam id="459" interp="linr"  time="-9999999/1" value="20" leadInLength="0/1"   name="leftClickSize"/>
           <Parameter id="460"   name="leftClickSoundFilename">
            <Keyframes>
            <Keyframe id="461"  time="-9999999/1" value="" leadInLength="0/1"  />
            </Keyframes>
           </Parameter>
           <InterpolatingParam id="462" interp="linr"  time="-9999999/1" value="1" leadInLength="0/1"   name="leftClickSoundVolume"/>
           <Parameter id="463"   name="leftClickType">
            <Keyframes>
            <Keyframe id="464"  time="-9999999/1" value="0" leadInLength="0/1"  />
            </Keyframes>
           </Parameter>
           <InterpolatingParam id="465" interp="linr"  time="-9999999/1" value="1" leadInLength="0/1"   name="opacity"/>
           <InterpolatingParam id="466" interp="linr"  time="-9999999/1" value="255" leadInLength="0/1"   name="rightClickColorBlue"/>
           <InterpolatingParam id="467" interp="linr"  time="-9999999/1" value="0" leadInLength="0/1"   name="rightClickColorGreen"/>
           <InterpolatingParam id="468" interp="linr"  time="-9999999/1" value="0" leadInLength="0/1"   name="rightClickColorRed"/>
           <InterpolatingParam id="469" interp="linr"  time="-9999999/1" value="0.80000000000000004" leadInLength="0/1"   name="rightClickDuration"/>
           <InterpolatingParam id="470" interp="linr"  time="-9999999/1" value="20" leadInLength="0/1"   name="rightClickSize"/>
           <Parameter id="471"   name="rightClickSoundFilename">
            <Keyframes>
            <Keyframe id="472"  time="-9999999/1" value="" leadInLength="0/1"  />
            </Keyframes>
           </Parameter>
           <InterpolatingParam id="473" interp="linr"  time="-9999999/1" value="1" leadInLength="0/1"   name="rightClickSoundVolume"/>
           <Parameter id="474"   name="rightClickType">
            <Keyframes>
            <Keyframe id="475"  time="-9999999/1" value="0" leadInLength="0/1"  />
            </Keyframes>
           </Parameter>
           </Parameters>
          </GenericEffect>
         </Effects>
         <Attributes>
          <Attribute id="476" value="" name="ident"/>
         </Attributes>
         <MetaData>
          <entry key="AutoAppliedSmartFocus" val="False"/>
          <entry key="WinSubProjectDisplayName" val=""/>
         </MetaData>
         <ExtraData>
          <Entry key="ZoomPanBin">
           <ZoomPanBin id="477"  >
            <ZoomPanKeyframes>
             <ZoomPanKeyframe id="478" timeRangeEnd="-9999999/1" timeRangeDuration="0/1" interpolaterName="linr"  />
            </ZoomPanKeyframes>
           </ZoomPanBin>
          </Entry>
          <Entry key="CursorEffectBin">
           <CursorEffectBin id="479"  >
            <CursorEffectKeyframes>
             <CursorEffectKeyframe id="480" timeRangeEnd="-9999999/1" timeRangeDuration="0/1" interpolaterName=""  />
            </CursorEffectKeyframes>
           </CursorEffectBin>
          </Entry>
         </ExtraData>
        </ScreenVMFile>
        <ScreenVMFile id="481" start="14242" duration="1163" scalar="1/1" mediaStart="53/1" mediaDuration="1163/1" trackNumber="0" src="21" >
         <Transformer>
          <VectorParam id="482"  name="translation">
           <InterpolatingParam id="483" interp="linr"  time="-9999999/1" value="0" leadInLength="0/1"  />
           <InterpolatingParam id="484" interp="linr"  time="-9999999/1" value="0" leadInLength="0/1"  />
           <InterpolatingParam id="485" interp="linr"  time="-9999999/1" value="0" leadInLength="0/1"  />
          </VectorParam>
          <VectorParam id="486"  name="rotation">
           <InterpolatingParam id="487" interp="linr"  time="-9999999/1" value="0" leadInLength="0/1"  />
           <InterpolatingParam id="488" interp="linr"  time="-9999999/1" value="0" leadInLength="0/1"  />
           <InterpolatingParam id="489" interp="linr"  time="-9999999/1" value="0" leadInLength="0/1"  />
          </VectorParam>
          <VectorParam id="490"  name="shear">
           <InterpolatingParam id="491" interp="linr"  time="-9999999/1" value="0" leadInLength="0/1"  />
           <InterpolatingParam id="492" interp="linr"  time="-9999999/1" value="0" leadInLength="0/1"  />
           <InterpolatingParam id="493" interp="linr"  time="-9999999/1" value="0" leadInLength="0/1"  />
          </VectorParam>
          <VectorParam id="494"  name="scale">
           <InterpolatingParam id="495" interp="linr"  time="-9999999/1" value="1" leadInLength="0/1"  />
           <InterpolatingParam id="496" interp="linr"  time="-9999999/1" value="1" leadInLength="0/1"  />
           <InterpolatingParam id="497" interp="linr"  time="-9999999/1" value="1" leadInLength="0/1"  />
          </VectorParam>
          <VectorParam id="498"  name="anchor">
           <InterpolatingParam id="499" interp="linr"  time="0/1" value="0" leadInLength="0/1"  />
           <InterpolatingParam id="500" interp="linr"  time="0/1" value="0" leadInLength="0/1"  />
           <InterpolatingParam id="501" interp="linr"  time="0/1" value="0" leadInLength="0/1"  />
          </VectorParam>
         </Transformer>
         <Parameters>
          <VectorParam id="502"  name="sourceCrop">
           <InterpolatingParam id="503" interp="linr"  time="0/1" value="0" leadInLength="0/1"  />
           <InterpolatingParam id="504" interp="linr"  time="0/1" value="0" leadInLength="0/1"  />
           <InterpolatingParam id="505" interp="linr"  time="0/1" value="0" leadInLength="0/1"  />
           <InterpolatingParam id="506" interp="linr"  time="0/1" value="0" leadInLength="0/1"  />
          </VectorParam>
          <VectorParam id="507"  name="geometryCrop">
           <InterpolatingParam id="508" interp="linr"  time="-9999999/1" value="0" leadInLength="0/1"  />
           <InterpolatingParam id="509" interp="linr"  time="-9999999/1" value="0" leadInLength="0/1"  />
           <InterpolatingParam id="510" interp="linr"  time="-9999999/1" value="0" leadInLength="0/1"  />
           <InterpolatingParam id="511" interp="linr"  time="-9999999/1" value="0" leadInLength="0/1"  />
          </VectorParam>
          <InterpolatingParam id="512" interp="linr"  time="-9999999/1" value="1" leadInLength="0/1"  name="opacity"/>
          <InterpolatingParam id="513" interp="linr"  time="0/1" value="1" leadInLength="0/1"  name="cursorOpacity"/>
          <InterpolatingParam id="514" interp="linr"  time="0/1" value="1" leadInLength="0/1"  name="cursorScale"/>
         </Parameters>
         <Effects>
          <GenericEffect id="515" name = "CursorBaseEffectName" >
           <Parameters>
           <InterpolatingParam id="516" interp="linr"  time="-9999999/1" value="1" leadInLength="0/1"   name="cursorSize"/>
           <InterpolatingParam id="517" interp="linr"  time="-9999999/1" value="0" leadInLength="0/1"   name="highlightBlurRadius"/>
           <InterpolatingParam id="518" interp="linr"  time="-9999999/1" value="0" leadInLength="0/1"   name="highlightColorBlue"/>
           <InterpolatingParam id="519" interp="linr"  time="-9999999/1" value="255" leadInLength="0/1"   name="highlightColorGreen"/>
           <InterpolatingParam id="520" interp="linr"  time="-9999999/1" value="255" leadInLength="0/1"   name="highlightColorRed"/>
           <InterpolatingParam id="521" interp="linr"  time="-9999999/1" value="5" leadInLength="0/1"   name="highlightFeatherSize"/>
           <InterpolatingParam id="522" interp="linr"  time="-9999999/1" value="2" leadInLength="0/1"   name="highlightMagnification"/>
           <InterpolatingParam id="523" interp="linr"  time="-9999999/1" value="1" leadInLength="0/1"   name="highlightOpacity"/>
           <InterpolatingParam id="524" interp="linr"  time="-9999999/1" value="45" leadInLength="0/1"   name="highlightSize"/>
           <Parameter id="525"   name="highlightType">
            <Keyframes>
            <Keyframe id="526"  time="-9999999/1" value="0" leadInLength="0/1"  />
            </Keyframes>
           </Parameter>
           <InterpolatingParam id="527" interp="linr"  time="-9999999/1" value="0" leadInLength="0/1"   name="leftClickColorBlue"/>
           <InterpolatingParam id="528" interp="linr"  time="-9999999/1" value="0" leadInLength="0/1"   name="leftClickColorGreen"/>
           <InterpolatingParam id="529" interp="linr"  time="-9999999/1" value="255" leadInLength="0/1"   name="leftClickColorRed"/>
           <InterpolatingParam id="530" interp="linr"  time="-9999999/1" value="0.80000000000000004" leadInLength="0/1"   name="leftClickDuration"/>
           <InterpolatingParam id="531" interp="linr"  time="-9999999/1" value="20" leadInLength="0/1"   name="leftClickSize"/>
           <Parameter id="532"   name="leftClickSoundFilename">
            <Keyframes>
            <Keyframe id="533"  time="-9999999/1" value="" leadInLength="0/1"  />
            </Keyframes>
           </Parameter>
           <InterpolatingParam id="534" interp="linr"  time="-9999999/1" value="1" leadInLength="0/1"   name="leftClickSoundVolume"/>
           <Parameter id="535"   name="leftClickType">
            <Keyframes>
            <Keyframe id="536"  time="-9999999/1" value="0" leadInLength="0/1"  />
            </Keyframes>
           </Parameter>
           <InterpolatingParam id="537" interp="linr"  time="-9999999/1" value="1" leadInLength="0/1"   name="opacity"/>
           <InterpolatingParam id="538" interp="linr"  time="-9999999/1" value="255" leadInLength="0/1"   name="rightClickColorBlue"/>
           <InterpolatingParam id="539" interp="linr"  time="-9999999/1" value="0" leadInLength="0/1"   name="rightClickColorGreen"/>
           <InterpolatingParam id="540" interp="linr"  time="-9999999/1" value="0" leadInLength="0/1"   name="rightClickColorRed"/>
           <InterpolatingParam id="541" interp="linr"  time="-9999999/1" value="0.80000000000000004" leadInLength="0/1"   name="rightClickDuration"/>
           <InterpolatingParam id="542" interp="linr"  time="-9999999/1" value="20" leadInLength="0/1"   name="rightClickSize"/>
           <Parameter id="543"   name="rightClickSoundFilename">
            <Keyframes>
            <Keyframe id="544"  time="-9999999/1" value="" leadInLength="0/1"  />
            </Keyframes>
           </Parameter>
           <InterpolatingParam id="545" interp="linr"  time="-9999999/1" value="1" leadInLength="0/1"   name="rightClickSoundVolume"/>
           <Parameter id="546"   name="rightClickType">
            <Keyframes>
            <Keyframe id="547"  time="-9999999/1" value="0" leadInLength="0/1"  />
            </Keyframes>
           </Parameter>
           </Parameters>
          </GenericEffect>
         </Effects>
         <Attributes>
          <Attribute id="548" value="" name="ident"/>
         </Attributes>
         <MetaData>
          <entry key="AutoAppliedSmartFocus" val="False"/>
          <entry key="WinSubProjectDisplayName" val=""/>
         </MetaData>
         <ExtraData>
          <Entry key="ZoomPanBin">
           <ZoomPanBin id="549"  >
            <ZoomPanKeyframes>
             <ZoomPanKeyframe id="550" timeRangeEnd="-9999999/1" timeRangeDuration="0/1" interpolaterName="linr"  />
            </ZoomPanKeyframes>
           </ZoomPanBin>
          </Entry>
          <Entry key="CursorEffectBin">
           <CursorEffectBin id="551"  >
            <CursorEffectKeyframes>
             <CursorEffectKeyframe id="552" timeRangeEnd="-9999999/1" timeRangeDuration="0/1" interpolaterName=""  />
            </CursorEffectKeyframes>
           </CursorEffectBin>
          </Entry>
         </ExtraData>
        </ScreenVMFile>
        <ScreenVMFile id="553" start="15405" duration="86" scalar="1/1" mediaStart="29/1" mediaDuration="86/1" trackNumber="0" src="39" >
         <Transformer>
          <VectorParam id="554"  name="translation">
           <InterpolatingParam id="555" interp="linr"  time="-9999999/1" value="0" leadInLength="0/1"  />
           <InterpolatingParam id="556" interp="linr"  time="-9999999/1" value="0" leadInLength="0/1"  />
           <InterpolatingParam id="557" interp="linr"  time="-9999999/1" value="0" leadInLength="0/1"  />
          </VectorParam>
          <VectorParam id="558"  name="rotation">
           <InterpolatingParam id="559" interp="linr"  time="-9999999/1" value="0" leadInLength="0/1"  />
           <InterpolatingParam id="560" interp="linr"  time="-9999999/1" value="0" leadInLength="0/1"  />
           <InterpolatingParam id="561" interp="linr"  time="-9999999/1" value="0" leadInLength="0/1"  />
          </VectorParam>
          <VectorParam id="562"  name="shear">
           <InterpolatingParam id="563" interp="linr"  time="-9999999/1" value="0" leadInLength="0/1"  />
           <InterpolatingParam id="564" interp="linr"  time="-9999999/1" value="0" leadInLength="0/1"  />
           <InterpolatingParam id="565" interp="linr"  time="-9999999/1" value="0" leadInLength="0/1"  />
          </VectorParam>
          <VectorParam id="566"  name="scale">
           <InterpolatingParam id="567" interp="linr"  time="-9999999/1" value="1" leadInLength="0/1"  />
           <InterpolatingParam id="568" interp="linr"  time="-9999999/1" value="1" leadInLength="0/1"  />
           <InterpolatingParam id="569" interp="linr"  time="-9999999/1" value="1" leadInLength="0/1"  />
          </VectorParam>
          <VectorParam id="570"  name="anchor">
           <InterpolatingParam id="571" interp="linr"  time="0/1" value="0" leadInLength="0/1"  />
           <InterpolatingParam id="572" interp="linr"  time="0/1" value="0" leadInLength="0/1"  />
           <InterpolatingParam id="573" interp="linr"  time="0/1" value="0" leadInLength="0/1"  />
          </VectorParam>
         </Transformer>
         <Parameters>
          <VectorParam id="574"  name="sourceCrop">
           <InterpolatingParam id="575" interp="linr"  time="0/1" value="0" leadInLength="0/1"  />
           <InterpolatingParam id="576" interp="linr"  time="0/1" value="0" leadInLength="0/1"  />
           <InterpolatingParam id="577" interp="linr"  time="0/1" value="0" leadInLength="0/1"  />
           <InterpolatingParam id="578" interp="linr"  time="0/1" value="0" leadInLength="0/1"  />
          </VectorParam>
          <VectorParam id="579"  name="geometryCrop">
           <InterpolatingParam id="580" interp="linr"  time="-9999999/1" value="0" leadInLength="0/1"  />
           <InterpolatingParam id="581" interp="linr"  time="-9999999/1" value="0" leadInLength="0/1"  />
           <InterpolatingParam id="582" interp="linr"  time="-9999999/1" value="0" leadInLength="0/1"  />
           <InterpolatingParam id="583" interp="linr"  time="-9999999/1" value="0" leadInLength="0/1"  />
          </VectorParam>
          <InterpolatingParam id="584" interp="linr"  time="-9999999/1" value="1" leadInLength="0/1"  name="opacity"/>
          <InterpolatingParam id="585" interp="linr"  time="0/1" value="1" leadInLength="0/1"  name="cursorOpacity"/>
          <InterpolatingParam id="586" interp="linr"  time="0/1" value="1" leadInLength="0/1"  name="cursorScale"/>
         </Parameters>
         <Effects>
          <GenericEffect id="587" name = "CursorBaseEffectName" >
           <Parameters>
           <InterpolatingParam id="588" interp="linr"  time="-9999999/1" value="1" leadInLength="0/1"   name="cursorSize"/>
           <InterpolatingParam id="589" interp="linr"  time="-9999999/1" value="0" leadInLength="0/1"   name="highlightBlurRadius"/>
           <InterpolatingParam id="590" interp="linr"  time="-9999999/1" value="0" leadInLength="0/1"   name="highlightColorBlue"/>
           <InterpolatingParam id="591" interp="linr"  time="-9999999/1" value="255" leadInLength="0/1"   name="highlightColorGreen"/>
           <InterpolatingParam id="592" interp="linr"  time="-9999999/1" value="255" leadInLength="0/1"   name="highlightColorRed"/>
           <InterpolatingParam id="593" interp="linr"  time="-9999999/1" value="5" leadInLength="0/1"   name="highlightFeatherSize"/>
           <InterpolatingParam id="594" interp="linr"  time="-9999999/1" value="2" leadInLength="0/1"   name="highlightMagnification"/>
           <InterpolatingParam id="595" interp="linr"  time="-9999999/1" value="1" leadInLength="0/1"   name="highlightOpacity"/>
           <InterpolatingParam id="596" interp="linr"  time="-9999999/1" value="45" leadInLength="0/1"   name="highlightSize"/>
           <Parameter id="597"   name="highlightType">
            <Keyframes>
            <Keyframe id="598"  time="-9999999/1" value="0" leadInLength="0/1"  />
            </Keyframes>
           </Parameter>
           <InterpolatingParam id="599" interp="linr"  time="-9999999/1" value="0" leadInLength="0/1"   name="leftClickColorBlue"/>
           <InterpolatingParam id="600" interp="linr"  time="-9999999/1" value="0" leadInLength="0/1"   name="leftClickColorGreen"/>
           <InterpolatingParam id="601" interp="linr"  time="-9999999/1" value="255" leadInLength="0/1"   name="leftClickColorRed"/>
           <InterpolatingParam id="602" interp="linr"  time="-9999999/1" value="0.80000000000000004" leadInLength="0/1"   name="leftClickDuration"/>
           <InterpolatingParam id="603" interp="linr"  time="-9999999/1" value="20" leadInLength="0/1"   name="leftClickSize"/>
           <Parameter id="604"   name="leftClickSoundFilename">
            <Keyframes>
            <Keyframe id="605"  time="-9999999/1" value="" leadInLength="0/1"  />
            </Keyframes>
           </Parameter>
           <InterpolatingParam id="606" interp="linr"  time="-9999999/1" value="1" leadInLength="0/1"   name="leftClickSoundVolume"/>
           <Parameter id="607"   name="leftClickType">
            <Keyframes>
            <Keyframe id="608"  time="-9999999/1" value="0" leadInLength="0/1"  />
            </Keyframes>
           </Parameter>
           <InterpolatingParam id="609" interp="linr"  time="-9999999/1" value="1" leadInLength="0/1"   name="opacity"/>
           <InterpolatingParam id="610" interp="linr"  time="-9999999/1" value="255" leadInLength="0/1"   name="rightClickColorBlue"/>
           <InterpolatingParam id="611" interp="linr"  time="-9999999/1" value="0" leadInLength="0/1"   name="rightClickColorGreen"/>
           <InterpolatingParam id="612" interp="linr"  time="-9999999/1" value="0" leadInLength="0/1"   name="rightClickColorRed"/>
           <InterpolatingParam id="613" interp="linr"  time="-9999999/1" value="0.80000000000000004" leadInLength="0/1"   name="rightClickDuration"/>
           <InterpolatingParam id="614" interp="linr"  time="-9999999/1" value="20" leadInLength="0/1"   name="rightClickSize"/>
           <Parameter id="615"   name="rightClickSoundFilename">
            <Keyframes>
            <Keyframe id="616"  time="-9999999/1" value="" leadInLength="0/1"  />
            </Keyframes>
           </Parameter>
           <InterpolatingParam id="617" interp="linr"  time="-9999999/1" value="1" leadInLength="0/1"   name="rightClickSoundVolume"/>
           <Parameter id="618"   name="rightClickType">
            <Keyframes>
            <Keyframe id="619"  time="-9999999/1" value="0" leadInLength="0/1"  />
            </Keyframes>
           </Parameter>
           </Parameters>
          </GenericEffect>
         </Effects>
         <Attributes>
          <Attribute id="620" value="" name="ident"/>
         </Attributes>
         <MetaData>
          <entry key="AutoAppliedSmartFocus" val="False"/>
          <entry key="WinSubProjectDisplayName" val=""/>
         </MetaData>
         <ExtraData>
          <Entry key="ZoomPanBin">
           <ZoomPanBin id="621"  >
            <ZoomPanKeyframes>
             <ZoomPanKeyframe id="622" timeRangeEnd="-9999999/1" timeRangeDuration="0/1" interpolaterName="linr"  />
            </ZoomPanKeyframes>
           </ZoomPanBin>
          </Entry>
          <Entry key="CursorEffectBin">
           <CursorEffectBin id="623"  >
            <CursorEffectKeyframes>
             <CursorEffectKeyframe id="624" timeRangeEnd="-9999999/1" timeRangeDuration="0/1" interpolaterName=""  />
            </CursorEffectKeyframes>
           </CursorEffectBin>
          </Entry>
         </ExtraData>
        </ScreenVMFile>
        <ScreenVMFile id="625" start="15491" duration="3065" scalar="1/1" mediaStart="39/1" mediaDuration="3065/1" trackNumber="0" src="27" >
         <Transformer>
          <VectorParam id="626"  name="translation">
           <InterpolatingParam id="627" interp="linr"  time="-9999999/1" value="-3.0502178560709581e-010" leadInLength="0/1"  />
           <InterpolatingParam id="628" interp="linr"  time="-9999999/1" value="4.2007286538137123e-011" leadInLength="0/1"  />
           <InterpolatingParam id="629" interp="linr"  time="-9999999/1" value="0" leadInLength="0/1"  />
          </VectorParam>
          <VectorParam id="630"  name="rotation">
           <InterpolatingParam id="631" interp="linr"  time="-9999999/1" value="0" leadInLength="0/1"  />
           <InterpolatingParam id="632" interp="linr"  time="-9999999/1" value="0" leadInLength="0/1"  />
           <InterpolatingParam id="633" interp="linr"  time="-9999999/1" value="0" leadInLength="0/1"  />
          </VectorParam>
          <VectorParam id="634"  name="shear">
           <InterpolatingParam id="635" interp="linr"  time="-9999999/1" value="0" leadInLength="0/1"  />
           <InterpolatingParam id="636" interp="linr"  time="-9999999/1" value="0" leadInLength="0/1"  />
           <InterpolatingParam id="637" interp="linr"  time="-9999999/1" value="0" leadInLength="0/1"  />
          </VectorParam>
          <VectorParam id="638"  name="scale">
           <InterpolatingParam id="639" interp="linr"  time="-9999999/1" value="1" leadInLength="0/1"  />
           <InterpolatingParam id="640" interp="linr"  time="-9999999/1" value="1" leadInLength="0/1"  />
           <InterpolatingParam id="641" interp="linr"  time="-9999999/1" value="1" leadInLength="0/1"  />
          </VectorParam>
          <VectorParam id="642"  name="anchor">
           <InterpolatingParam id="643" interp="linr"  time="0/1" value="0" leadInLength="0/1"  />
           <InterpolatingParam id="644" interp="linr"  time="0/1" value="0" leadInLength="0/1"  />
           <InterpolatingParam id="645" interp="linr"  time="0/1" value="0" leadInLength="0/1"  />
          </VectorParam>
         </Transformer>
         <Parameters>
          <VectorParam id="646"  name="sourceCrop">
           <InterpolatingParam id="647" interp="linr"  time="0/1" value="0" leadInLength="0/1"  />
           <InterpolatingParam id="648" interp="linr"  time="0/1" value="0" leadInLength="0/1"  />
           <InterpolatingParam id="649" interp="linr"  time="0/1" value="0" leadInLength="0/1"  />
           <InterpolatingParam id="650" interp="linr"  time="0/1" value="0" leadInLength="0/1"  />
          </VectorParam>
          <VectorParam id="651"  name="geometryCrop">
           <InterpolatingParam id="652" interp="linr"  time="-9999999/1" value="0" leadInLength="0/1"  />
           <InterpolatingParam id="653" interp="linr"  time="-9999999/1" value="0" leadInLength="0/1"  />
           <InterpolatingParam id="654" interp="linr"  time="-9999999/1" value="0" leadInLength="0/1"  />
           <InterpolatingParam id="655" interp="linr"  time="-9999999/1" value="0" leadInLength="0/1"  />
          </VectorParam>
          <InterpolatingParam id="656" interp="linr"  time="-9999999/1" value="1" leadInLength="0/1"  name="opacity"/>
          <InterpolatingParam id="657" interp="linr"  time="0/1" value="1" leadInLength="0/1"  name="cursorOpacity"/>
          <InterpolatingParam id="658" interp="linr"  time="0/1" value="1" leadInLength="0/1"  name="cursorScale"/>
         </Parameters>
         <Effects>
          <GenericEffect id="659" name = "CursorBaseEffectName" >
           <Parameters>
           <InterpolatingParam id="660" interp="linr"  time="-9999999/1" value="1" leadInLength="0/1"   name="cursorSize"/>
           <InterpolatingParam id="661" interp="linr"  time="-9999999/1" value="0" leadInLength="0/1"   name="highlightBlurRadius"/>
           <InterpolatingParam id="662" interp="linr"  time="-9999999/1" value="0" leadInLength="0/1"   name="highlightColorBlue"/>
           <InterpolatingParam id="663" interp="linr"  time="-9999999/1" value="255" leadInLength="0/1"   name="highlightColorGreen"/>
           <InterpolatingParam id="664" interp="linr"  time="-9999999/1" value="255" leadInLength="0/1"   name="highlightColorRed"/>
           <InterpolatingParam id="665" interp="linr"  time="-9999999/1" value="5" leadInLength="0/1"   name="highlightFeatherSize"/>
           <InterpolatingParam id="666" interp="linr"  time="-9999999/1" value="2" leadInLength="0/1"   name="highlightMagnification"/>
           <InterpolatingParam id="667" interp="linr"  time="-9999999/1" value="1" leadInLength="0/1"   name="highlightOpacity"/>
           <InterpolatingParam id="668" interp="linr"  time="-9999999/1" value="45" leadInLength="0/1"   name="highlightSize"/>
           <Parameter id="669"   name="highlightType">
            <Keyframes>
            <Keyframe id="670"  time="-9999999/1" value="0" leadInLength="0/1"  />
            </Keyframes>
           </Parameter>
           <InterpolatingParam id="671" interp="linr"  time="-9999999/1" value="0" leadInLength="0/1"   name="leftClickColorBlue"/>
           <InterpolatingParam id="672" interp="linr"  time="-9999999/1" value="0" leadInLength="0/1"   name="leftClickColorGreen"/>
           <InterpolatingParam id="673" interp="linr"  time="-9999999/1" value="255" leadInLength="0/1"   name="leftClickColorRed"/>
           <InterpolatingParam id="674" interp="linr"  time="-9999999/1" value="0.80000000000000004" leadInLength="0/1"   name="leftClickDuration"/>
           <InterpolatingParam id="675" interp="linr"  time="-9999999/1" value="20" leadInLength="0/1"   name="leftClickSize"/>
           <Parameter id="676"   name="leftClickSoundFilename">
            <Keyframes>
            <Keyframe id="677"  time="-9999999/1" value="" leadInLength="0/1"  />
            </Keyframes>
           </Parameter>
           <InterpolatingParam id="678" interp="linr"  time="-9999999/1" value="1" leadInLength="0/1"   name="leftClickSoundVolume"/>
           <Parameter id="679"   name="leftClickType">
            <Keyframes>
            <Keyframe id="680"  time="-9999999/1" value="0" leadInLength="0/1"  />
            </Keyframes>
           </Parameter>
           <InterpolatingParam id="681" interp="linr"  time="-9999999/1" value="1" leadInLength="0/1"   name="opacity"/>
           <InterpolatingParam id="682" interp="linr"  time="-9999999/1" value="255" leadInLength="0/1"   name="rightClickColorBlue"/>
           <InterpolatingParam id="683" interp="linr"  time="-9999999/1" value="0" leadInLength="0/1"   name="rightClickColorGreen"/>
           <InterpolatingParam id="684" interp="linr"  time="-9999999/1" value="0" leadInLength="0/1"   name="rightClickColorRed"/>
           <InterpolatingParam id="685" interp="linr"  time="-9999999/1" value="0.80000000000000004" leadInLength="0/1"   name="rightClickDuration"/>
           <InterpolatingParam id="686" interp="linr"  time="-9999999/1" value="20" leadInLength="0/1"   name="rightClickSize"/>
           <Parameter id="687"   name="rightClickSoundFilename">
            <Keyframes>
            <Keyframe id="688"  time="-9999999/1" value="" leadInLength="0/1"  />
            </Keyframes>
           </Parameter>
           <InterpolatingParam id="689" interp="linr"  time="-9999999/1" value="1" leadInLength="0/1"   name="rightClickSoundVolume"/>
           <Parameter id="690"   name="rightClickType">
            <Keyframes>
            <Keyframe id="691"  time="-9999999/1" value="0" leadInLength="0/1"  />
            </Keyframes>
           </Parameter>
           </Parameters>
          </GenericEffect>
         </Effects>
         <Attributes>
          <Attribute id="692" value="" name="ident"/>
         </Attributes>
         <MetaData>
          <entry key="AutoAppliedSmartFocus" val="False"/>
          <entry key="WinSubProjectDisplayName" val=""/>
         </MetaData>
         <ExtraData>
          <Entry key="ZoomPanBin">
           <ZoomPanBin id="693"  >
            <ZoomPanKeyframes>
             <ZoomPanKeyframe id="694" timeRangeEnd="-9999999/1" timeRangeDuration="0/1" interpolaterName="linr"  />
            </ZoomPanKeyframes>
           </ZoomPanBin>
          </Entry>
          <Entry key="CursorEffectBin">
           <CursorEffectBin id="695"  >
            <CursorEffectKeyframes>
             <CursorEffectKeyframe id="696" timeRangeEnd="-9999999/1" timeRangeDuration="0/1" interpolaterName=""  />
            </CursorEffectKeyframes>
           </CursorEffectBin>
          </Entry>
         </ExtraData>
        </ScreenVMFile>
        <ScreenVMFile id="697" start="18556" duration="1208" scalar="1/1" mediaStart="62/1" mediaDuration="1208/1" trackNumber="0" src="28" >
         <Transformer>
          <VectorParam id="698"  name="translation">
           <InterpolatingParam id="699" interp="linr"  time="-9999999/1" value="0" leadInLength="0/1"  />
           <InterpolatingParam id="700" interp="linr"  time="-9999999/1" value="0" leadInLength="0/1"  />
           <InterpolatingParam id="701" interp="linr"  time="-9999999/1" value="0" leadInLength="0/1"  />
          </VectorParam>
          <VectorParam id="702"  name="rotation">
           <InterpolatingParam id="703" interp="linr"  time="-9999999/1" value="0" leadInLength="0/1"  />
           <InterpolatingParam id="704" interp="linr"  time="-9999999/1" value="0" leadInLength="0/1"  />
           <InterpolatingParam id="705" interp="linr"  time="-9999999/1" value="0" leadInLength="0/1"  />
          </VectorParam>
          <VectorParam id="706"  name="shear">
           <InterpolatingParam id="707" interp="linr"  time="-9999999/1" value="0" leadInLength="0/1"  />
           <InterpolatingParam id="708" interp="linr"  time="-9999999/1" value="0" leadInLength="0/1"  />
           <InterpolatingParam id="709" interp="linr"  time="-9999999/1" value="0" leadInLength="0/1"  />
          </VectorParam>
          <VectorParam id="710"  name="scale">
           <InterpolatingParam id="711" interp="linr"  time="-9999999/1" value="1" leadInLength="0/1"  />
           <InterpolatingParam id="712" interp="linr"  time="-9999999/1" value="1" leadInLength="0/1"  />
           <InterpolatingParam id="713" interp="linr"  time="-9999999/1" value="1" leadInLength="0/1"  />
          </VectorParam>
          <VectorParam id="714"  name="anchor">
           <InterpolatingParam id="715" interp="linr"  time="0/1" value="0" leadInLength="0/1"  />
           <InterpolatingParam id="716" interp="linr"  time="0/1" value="0" leadInLength="0/1"  />
           <InterpolatingParam id="717" interp="linr"  time="0/1" value="0" leadInLength="0/1"  />
          </VectorParam>
         </Transformer>
         <Parameters>
          <VectorParam id="718"  name="sourceCrop">
           <InterpolatingParam id="719" interp="linr"  time="0/1" value="0" leadInLength="0/1"  />
           <InterpolatingParam id="720" interp="linr"  time="0/1" value="0" leadInLength="0/1"  />
           <InterpolatingParam id="721" interp="linr"  time="0/1" value="0" leadInLength="0/1"  />
           <InterpolatingParam id="722" interp="linr"  time="0/1" value="0" leadInLength="0/1"  />
          </VectorParam>
          <VectorParam id="723"  name="geometryCrop">
           <InterpolatingParam id="724" interp="linr"  time="-9999999/1" value="0" leadInLength="0/1"  />
           <InterpolatingParam id="725" interp="linr"  time="-9999999/1" value="0" leadInLength="0/1"  />
           <InterpolatingParam id="726" interp="linr"  time="-9999999/1" value="0" leadInLength="0/1"  />
           <InterpolatingParam id="727" interp="linr"  time="-9999999/1" value="0" leadInLength="0/1"  />
          </VectorParam>
          <InterpolatingParam id="728" interp="linr"  time="-9999999/1" value="1" leadInLength="0/1"  name="opacity"/>
          <InterpolatingParam id="729" interp="linr"  time="0/1" value="1" leadInLength="0/1"  name="cursorOpacity"/>
          <InterpolatingParam id="730" interp="linr"  time="0/1" value="1" leadInLength="0/1"  name="cursorScale"/>
         </Parameters>
         <Effects>
          <GenericEffect id="731" name = "CursorBaseEffectName" >
           <Parameters>
           <InterpolatingParam id="732" interp="linr"  time="-9999999/1" value="1" leadInLength="0/1"   name="cursorSize"/>
           <InterpolatingParam id="733" interp="linr"  time="-9999999/1" value="0" leadInLength="0/1"   name="highlightBlurRadius"/>
           <InterpolatingParam id="734" interp="linr"  time="-9999999/1" value="0" leadInLength="0/1"   name="highlightColorBlue"/>
           <InterpolatingParam id="735" interp="linr"  time="-9999999/1" value="255" leadInLength="0/1"   name="highlightColorGreen"/>
           <InterpolatingParam id="736" interp="linr"  time="-9999999/1" value="255" leadInLength="0/1"   name="highlightColorRed"/>
           <InterpolatingParam id="737" interp="linr"  time="-9999999/1" value="5" leadInLength="0/1"   name="highlightFeatherSize"/>
           <InterpolatingParam id="738" interp="linr"  time="-9999999/1" value="2" leadInLength="0/1"   name="highlightMagnification"/>
           <InterpolatingParam id="739" interp="linr"  time="-9999999/1" value="1" leadInLength="0/1"   name="highlightOpacity"/>
           <InterpolatingParam id="740" interp="linr"  time="-9999999/1" value="45" leadInLength="0/1"   name="highlightSize"/>
           <Parameter id="741"   name="highlightType">
            <Keyframes>
            <Keyframe id="742"  time="-9999999/1" value="0" leadInLength="0/1"  />
            </Keyframes>
           </Parameter>
           <InterpolatingParam id="743" interp="linr"  time="-9999999/1" value="0" leadInLength="0/1"   name="leftClickColorBlue"/>
           <InterpolatingParam id="744" interp="linr"  time="-9999999/1" value="0" leadInLength="0/1"   name="leftClickColorGreen"/>
           <InterpolatingParam id="745" interp="linr"  time="-9999999/1" value="255" leadInLength="0/1"   name="leftClickColorRed"/>
           <InterpolatingParam id="746" interp="linr"  time="-9999999/1" value="0.80000000000000004" leadInLength="0/1"   name="leftClickDuration"/>
           <InterpolatingParam id="747" interp="linr"  time="-9999999/1" value="20" leadInLength="0/1"   name="leftClickSize"/>
           <Parameter id="748"   name="leftClickSoundFilename">
            <Keyframes>
            <Keyframe id="749"  time="-9999999/1" value="" leadInLength="0/1"  />
            </Keyframes>
           </Parameter>
           <InterpolatingParam id="750" interp="linr"  time="-9999999/1" value="1" leadInLength="0/1"   name="leftClickSoundVolume"/>
           <Parameter id="751"   name="leftClickType">
            <Keyframes>
            <Keyframe id="752"  time="-9999999/1" value="0" leadInLength="0/1"  />
            </Keyframes>
           </Parameter>
           <InterpolatingParam id="753" interp="linr"  time="-9999999/1" value="1" leadInLength="0/1"   name="opacity"/>
           <InterpolatingParam id="754" interp="linr"  time="-9999999/1" value="255" leadInLength="0/1"   name="rightClickColorBlue"/>
           <InterpolatingParam id="755" interp="linr"  time="-9999999/1" value="0" leadInLength="0/1"   name="rightClickColorGreen"/>
           <InterpolatingParam id="756" interp="linr"  time="-9999999/1" value="0" leadInLength="0/1"   name="rightClickColorRed"/>
           <InterpolatingParam id="757" interp="linr"  time="-9999999/1" value="0.80000000000000004" leadInLength="0/1"   name="rightClickDuration"/>
           <InterpolatingParam id="758" interp="linr"  time="-9999999/1" value="20" leadInLength="0/1"   name="rightClickSize"/>
           <Parameter id="759"   name="rightClickSoundFilename">
            <Keyframes>
            <Keyframe id="760"  time="-9999999/1" value="" leadInLength="0/1"  />
            </Keyframes>
           </Parameter>
           <InterpolatingParam id="761" interp="linr"  time="-9999999/1" value="1" leadInLength="0/1"   name="rightClickSoundVolume"/>
           <Parameter id="762"   name="rightClickType">
            <Keyframes>
            <Keyframe id="763"  time="-9999999/1" value="0" leadInLength="0/1"  />
            </Keyframes>
           </Parameter>
           </Parameters>
          </GenericEffect>
         </Effects>
         <Attributes>
          <Attribute id="764" value="" name="ident"/>
         </Attributes>
         <MetaData>
          <entry key="AutoAppliedSmartFocus" val="False"/>
          <entry key="WinSubProjectDisplayName" val=""/>
         </MetaData>
         <ExtraData>
          <Entry key="ZoomPanBin">
           <ZoomPanBin id="765"  >
            <ZoomPanKeyframes>
             <ZoomPanKeyframe id="766" timeRangeEnd="-9999999/1" timeRangeDuration="0/1" interpolaterName="linr"  />
            </ZoomPanKeyframes>
           </ZoomPanBin>
          </Entry>
          <Entry key="CursorEffectBin">
           <CursorEffectBin id="767"  >
            <CursorEffectKeyframes>
             <CursorEffectKeyframe id="768" timeRangeEnd="-9999999/1" timeRangeDuration="0/1" interpolaterName=""  />
            </CursorEffectKeyframes>
           </CursorEffectBin>
          </Entry>
         </ExtraData>
        </ScreenVMFile>
        <ScreenVMFile id="769" start="19764" duration="1900" scalar="1/1" mediaStart="31/1" mediaDuration="1900/1" trackNumber="0" src="29" >
         <Transformer>
          <VectorParam id="770"  name="translation">
           <InterpolatingParam id="771" interp="linr"  time="-9999999/1" value="0" leadInLength="0/1"  />
           <InterpolatingParam id="772" interp="linr"  time="-9999999/1" value="0" leadInLength="0/1"  />
           <InterpolatingParam id="773" interp="linr"  time="-9999999/1" value="0" leadInLength="0/1"  />
          </VectorParam>
          <VectorParam id="774"  name="rotation">
           <InterpolatingParam id="775" interp="linr"  time="-9999999/1" value="0" leadInLength="0/1"  />
           <InterpolatingParam id="776" interp="linr"  time="-9999999/1" value="0" leadInLength="0/1"  />
           <InterpolatingParam id="777" interp="linr"  time="-9999999/1" value="0" leadInLength="0/1"  />
          </VectorParam>
          <VectorParam id="778"  name="shear">
           <InterpolatingParam id="779" interp="linr"  time="-9999999/1" value="0" leadInLength="0/1"  />
           <InterpolatingParam id="780" interp="linr"  time="-9999999/1" value="0" leadInLength="0/1"  />
           <InterpolatingParam id="781" interp="linr"  time="-9999999/1" value="0" leadInLength="0/1"  />
          </VectorParam>
          <VectorParam id="782"  name="scale">
           <InterpolatingParam id="783" interp="linr"  time="-9999999/1" value="1" leadInLength="0/1"  />
           <InterpolatingParam id="784" interp="linr"  time="-9999999/1" value="1" leadInLength="0/1"  />
           <InterpolatingParam id="785" interp="linr"  time="-9999999/1" value="1" leadInLength="0/1"  />
          </VectorParam>
          <VectorParam id="786"  name="anchor">
           <InterpolatingParam id="787" interp="linr"  time="0/1" value="0" leadInLength="0/1"  />
           <InterpolatingParam id="788" interp="linr"  time="0/1" value="0" leadInLength="0/1"  />
           <InterpolatingParam id="789" interp="linr"  time="0/1" value="0" leadInLength="0/1"  />
          </VectorParam>
         </Transformer>
         <Parameters>
          <VectorParam id="790"  name="sourceCrop">
           <InterpolatingParam id="791" interp="linr"  time="0/1" value="0" leadInLength="0/1"  />
           <InterpolatingParam id="792" interp="linr"  time="0/1" value="0" leadInLength="0/1"  />
           <InterpolatingParam id="793" interp="linr"  time="0/1" value="0" leadInLength="0/1"  />
           <InterpolatingParam id="794" interp="linr"  time="0/1" value="0" leadInLength="0/1"  />
          </VectorParam>
          <VectorParam id="795"  name="geometryCrop">
           <InterpolatingParam id="796" interp="linr"  time="-9999999/1" value="0" leadInLength="0/1"  />
           <InterpolatingParam id="797" interp="linr"  time="-9999999/1" value="0" leadInLength="0/1"  />
           <InterpolatingParam id="798" interp="linr"  time="-9999999/1" value="0" leadInLength="0/1"  />
           <InterpolatingParam id="799" interp="linr"  time="-9999999/1" value="0" leadInLength="0/1"  />
          </VectorParam>
          <InterpolatingParam id="800" interp="linr"  time="-9999999/1" value="1" leadInLength="0/1"  name="opacity"/>
          <InterpolatingParam id="801" interp="linr"  time="0/1" value="1" leadInLength="0/1"  name="cursorOpacity"/>
          <InterpolatingParam id="802" interp="linr"  time="0/1" value="1" leadInLength="0/1"  name="cursorScale"/>
         </Parameters>
         <Effects>
          <GenericEffect id="803" name = "CursorBaseEffectName" >
           <Parameters>
           <InterpolatingParam id="804" interp="linr"  time="-9999999/1" value="1" leadInLength="0/1"   name="cursorSize"/>
           <InterpolatingParam id="805" interp="linr"  time="-9999999/1" value="0" leadInLength="0/1"   name="highlightBlurRadius"/>
           <InterpolatingParam id="806" interp="linr"  time="-9999999/1" value="0" leadInLength="0/1"   name="highlightColorBlue"/>
           <InterpolatingParam id="807" interp="linr"  time="-9999999/1" value="255" leadInLength="0/1"   name="highlightColorGreen"/>
           <InterpolatingParam id="808" interp="linr"  time="-9999999/1" value="255" leadInLength="0/1"   name="highlightColorRed"/>
           <InterpolatingParam id="809" interp="linr"  time="-9999999/1" value="5" leadInLength="0/1"   name="highlightFeatherSize"/>
           <InterpolatingParam id="810" interp="linr"  time="-9999999/1" value="2" leadInLength="0/1"   name="highlightMagnification"/>
           <InterpolatingParam id="811" interp="linr"  time="-9999999/1" value="1" leadInLength="0/1"   name="highlightOpacity"/>
           <InterpolatingParam id="812" interp="linr"  time="-9999999/1" value="45" leadInLength="0/1"   name="highlightSize"/>
           <Parameter id="813"   name="highlightType">
            <Keyframes>
            <Keyframe id="814"  time="-9999999/1" value="0" leadInLength="0/1"  />
            </Keyframes>
           </Parameter>
           <InterpolatingParam id="815" interp="linr"  time="-9999999/1" value="0" leadInLength="0/1"   name="leftClickColorBlue"/>
           <InterpolatingParam id="816" interp="linr"  time="-9999999/1" value="0" leadInLength="0/1"   name="leftClickColorGreen"/>
           <InterpolatingParam id="817" interp="linr"  time="-9999999/1" value="255" leadInLength="0/1"   name="leftClickColorRed"/>
           <InterpolatingParam id="818" interp="linr"  time="-9999999/1" value="0.80000000000000004" leadInLength="0/1"   name="leftClickDuration"/>
           <InterpolatingParam id="819" interp="linr"  time="-9999999/1" value="20" leadInLength="0/1"   name="leftClickSize"/>
           <Parameter id="820"   name="leftClickSoundFilename">
            <Keyframes>
            <Keyframe id="821"  time="-9999999/1" value="" leadInLength="0/1"  />
            </Keyframes>
           </Parameter>
           <InterpolatingParam id="822" interp="linr"  time="-9999999/1" value="1" leadInLength="0/1"   name="leftClickSoundVolume"/>
           <Parameter id="823"   name="leftClickType">
            <Keyframes>
            <Keyframe id="824"  time="-9999999/1" value="0" leadInLength="0/1"  />
            </Keyframes>
           </Parameter>
           <InterpolatingParam id="825" interp="linr"  time="-9999999/1" value="1" leadInLength="0/1"   name="opacity"/>
           <InterpolatingParam id="826" interp="linr"  time="-9999999/1" value="255" leadInLength="0/1"   name="rightClickColorBlue"/>
           <InterpolatingParam id="827" interp="linr"  time="-9999999/1" value="0" leadInLength="0/1"   name="rightClickColorGreen"/>
           <InterpolatingParam id="828" interp="linr"  time="-9999999/1" value="0" leadInLength="0/1"   name="rightClickColorRed"/>
           <InterpolatingParam id="829" interp="linr"  time="-9999999/1" value="0.80000000000000004" leadInLength="0/1"   name="rightClickDuration"/>
           <InterpolatingParam id="830" interp="linr"  time="-9999999/1" value="20" leadInLength="0/1"   name="rightClickSize"/>
           <Parameter id="831"   name="rightClickSoundFilename">
            <Keyframes>
            <Keyframe id="832"  time="-9999999/1" value="" leadInLength="0/1"  />
            </Keyframes>
           </Parameter>
           <InterpolatingParam id="833" interp="linr"  time="-9999999/1" value="1" leadInLength="0/1"   name="rightClickSoundVolume"/>
           <Parameter id="834"   name="rightClickType">
            <Keyframes>
            <Keyframe id="835"  time="-9999999/1" value="0" leadInLength="0/1"  />
            </Keyframes>
           </Parameter>
           </Parameters>
          </GenericEffect>
         </Effects>
         <Attributes>
          <Attribute id="836" value="" name="ident"/>
         </Attributes>
         <MetaData>
          <entry key="AutoAppliedSmartFocus" val="False"/>
          <entry key="WinSubProjectDisplayName" val=""/>
         </MetaData>
         <ExtraData>
          <Entry key="ZoomPanBin">
           <ZoomPanBin id="837"  >
            <ZoomPanKeyframes>
             <ZoomPanKeyframe id="838" timeRangeEnd="-9999999/1" timeRangeDuration="0/1" interpolaterName="linr"  />
            </ZoomPanKeyframes>
           </ZoomPanBin>
          </Entry>
          <Entry key="CursorEffectBin">
           <CursorEffectBin id="839"  >
            <CursorEffectKeyframes>
             <CursorEffectKeyframe id="840" timeRangeEnd="-9999999/1" timeRangeDuration="0/1" interpolaterName=""  />
            </CursorEffectKeyframes>
           </CursorEffectBin>
          </Entry>
         </ExtraData>
        </ScreenVMFile>
        <ScreenVMFile id="841" start="21664" duration="92" scalar="1/1" mediaStart="0/1" mediaDuration="92/1" trackNumber="0" src="30" >
         <Transformer>
          <VectorParam id="842"  name="translation">
           <InterpolatingParam id="843" interp="linr"  time="-9999999/1" value="0" leadInLength="0/1"  />
           <InterpolatingParam id="844" interp="linr"  time="-9999999/1" value="0" leadInLength="0/1"  />
           <InterpolatingParam id="845" interp="linr"  time="-9999999/1" value="0" leadInLength="0/1"  />
          </VectorParam>
          <VectorParam id="846"  name="rotation">
           <InterpolatingParam id="847" interp="linr"  time="-9999999/1" value="0" leadInLength="0/1"  />
           <InterpolatingParam id="848" interp="linr"  time="-9999999/1" value="0" leadInLength="0/1"  />
           <InterpolatingParam id="849" interp="linr"  time="-9999999/1" value="0" leadInLength="0/1"  />
          </VectorParam>
          <VectorParam id="850"  name="shear">
           <InterpolatingParam id="851" interp="linr"  time="-9999999/1" value="0" leadInLength="0/1"  />
           <InterpolatingParam id="852" interp="linr"  time="-9999999/1" value="0" leadInLength="0/1"  />
           <InterpolatingParam id="853" interp="linr"  time="-9999999/1" value="0" leadInLength="0/1"  />
          </VectorParam>
          <VectorParam id="854"  name="scale">
           <InterpolatingParam id="855" interp="linr"  time="-9999999/1" value="1" leadInLength="0/1"  />
           <InterpolatingParam id="856" interp="linr"  time="-9999999/1" value="1" leadInLength="0/1"  />
           <InterpolatingParam id="857" interp="linr"  time="-9999999/1" value="1" leadInLength="0/1"  />
          </VectorParam>
          <VectorParam id="858"  name="anchor">
           <InterpolatingParam id="859" interp="linr"  time="0/1" value="0" leadInLength="0/1"  />
           <InterpolatingParam id="860" interp="linr"  time="0/1" value="0" leadInLength="0/1"  />
           <InterpolatingParam id="861" interp="linr"  time="0/1" value="0" leadInLength="0/1"  />
          </VectorParam>
         </Transformer>
         <Parameters>
          <VectorParam id="862"  name="sourceCrop">
           <InterpolatingParam id="863" interp="linr"  time="0/1" value="0" leadInLength="0/1"  />
           <InterpolatingParam id="864" interp="linr"  time="0/1" value="0" leadInLength="0/1"  />
           <InterpolatingParam id="865" interp="linr"  time="0/1" value="0" leadInLength="0/1"  />
           <InterpolatingParam id="866" interp="linr"  time="0/1" value="0" leadInLength="0/1"  />
          </VectorParam>
          <VectorParam id="867"  name="geometryCrop">
           <InterpolatingParam id="868" interp="linr"  time="-9999999/1" value="0" leadInLength="0/1"  />
           <InterpolatingParam id="869" interp="linr"  time="-9999999/1" value="0" leadInLength="0/1"  />
           <InterpolatingParam id="870" interp="linr"  time="-9999999/1" value="0" leadInLength="0/1"  />
           <InterpolatingParam id="871" interp="linr"  time="-9999999/1" value="0" leadInLength="0/1"  />
          </VectorParam>
          <InterpolatingParam id="872" interp="linr"  time="-9999999/1" value="1" leadInLength="0/1"  name="opacity"/>
          <InterpolatingParam id="873" interp="linr"  time="0/1" value="1" leadInLength="0/1"  name="cursorOpacity"/>
          <InterpolatingParam id="874" interp="linr"  time="0/1" value="1" leadInLength="0/1"  name="cursorScale"/>
         </Parameters>
         <Effects>
          <GenericEffect id="875" name = "CursorBaseEffectName" >
           <Parameters>
           <InterpolatingParam id="876" interp="linr"  time="-9999999/1" value="1" leadInLength="0/1"   name="cursorSize"/>
           <InterpolatingParam id="877" interp="linr"  time="-9999999/1" value="0" leadInLength="0/1"   name="highlightBlurRadius"/>
           <InterpolatingParam id="878" interp="linr"  time="-9999999/1" value="0" leadInLength="0/1"   name="highlightColorBlue"/>
           <InterpolatingParam id="879" interp="linr"  time="-9999999/1" value="255" leadInLength="0/1"   name="highlightColorGreen"/>
           <InterpolatingParam id="880" interp="linr"  time="-9999999/1" value="255" leadInLength="0/1"   name="highlightColorRed"/>
           <InterpolatingParam id="881" interp="linr"  time="-9999999/1" value="5" leadInLength="0/1"   name="highlightFeatherSize"/>
           <InterpolatingParam id="882" interp="linr"  time="-9999999/1" value="2" leadInLength="0/1"   name="highlightMagnification"/>
           <InterpolatingParam id="883" interp="linr"  time="-9999999/1" value="1" leadInLength="0/1"   name="highlightOpacity"/>
           <InterpolatingParam id="884" interp="linr"  time="-9999999/1" value="45" leadInLength="0/1"   name="highlightSize"/>
           <Parameter id="885"   name="highlightType">
            <Keyframes>
            <Keyframe id="886"  time="-9999999/1" value="0" leadInLength="0/1"  />
            </Keyframes>
           </Parameter>
           <InterpolatingParam id="887" interp="linr"  time="-9999999/1" value="0" leadInLength="0/1"   name="leftClickColorBlue"/>
           <InterpolatingParam id="888" interp="linr"  time="-9999999/1" value="0" leadInLength="0/1"   name="leftClickColorGreen"/>
           <InterpolatingParam id="889" interp="linr"  time="-9999999/1" value="255" leadInLength="0/1"   name="leftClickColorRed"/>
           <InterpolatingParam id="890" interp="linr"  time="-9999999/1" value="0.80000000000000004" leadInLength="0/1"   name="leftClickDuration"/>
           <InterpolatingParam id="891" interp="linr"  time="-9999999/1" value="20" leadInLength="0/1"   name="leftClickSize"/>
           <Parameter id="892"   name="leftClickSoundFilename">
            <Keyframes>
            <Keyframe id="893"  time="-9999999/1" value="" leadInLength="0/1"  />
            </Keyframes>
           </Parameter>
           <InterpolatingParam id="894" interp="linr"  time="-9999999/1" value="1" leadInLength="0/1"   name="leftClickSoundVolume"/>
           <Parameter id="895"   name="leftClickType">
            <Keyframes>
            <Keyframe id="896"  time="-9999999/1" value="0" leadInLength="0/1"  />
            </Keyframes>
           </Parameter>
           <InterpolatingParam id="897" interp="linr"  time="-9999999/1" value="1" leadInLength="0/1"   name="opacity"/>
           <InterpolatingParam id="898" interp="linr"  time="-9999999/1" value="255" leadInLength="0/1"   name="rightClickColorBlue"/>
           <InterpolatingParam id="899" interp="linr"  time="-9999999/1" value="0" leadInLength="0/1"   name="rightClickColorGreen"/>
           <InterpolatingParam id="900" interp="linr"  time="-9999999/1" value="0" leadInLength="0/1"   name="rightClickColorRed"/>
           <InterpolatingParam id="901" interp="linr"  time="-9999999/1" value="0.80000000000000004" leadInLength="0/1"   name="rightClickDuration"/>
           <InterpolatingParam id="902" interp="linr"  time="-9999999/1" value="20" leadInLength="0/1"   name="rightClickSize"/>
           <Parameter id="903"   name="rightClickSoundFilename">
            <Keyframes>
            <Keyframe id="904"  time="-9999999/1" value="" leadInLength="0/1"  />
            </Keyframes>
           </Parameter>
           <InterpolatingParam id="905" interp="linr"  time="-9999999/1" value="1" leadInLength="0/1"   name="rightClickSoundVolume"/>
           <Parameter id="906"   name="rightClickType">
            <Keyframes>
            <Keyframe id="907"  time="-9999999/1" value="0" leadInLength="0/1"  />
            </Keyframes>
           </Parameter>
           </Parameters>
          </GenericEffect>
         </Effects>
         <Attributes>
          <Attribute id="908" value="" name="ident"/>
         </Attributes>
         <MetaData>
          <entry key="AutoAppliedSmartFocus" val="False"/>
          <entry key="WinSubProjectDisplayName" val=""/>
         </MetaData>
         <ExtraData>
          <Entry key="ZoomPanBin">
           <ZoomPanBin id="909"  >
            <ZoomPanKeyframes>
             <ZoomPanKeyframe id="910" timeRangeEnd="-9999999/1" timeRangeDuration="0/1" interpolaterName="linr"  />
            </ZoomPanKeyframes>
           </ZoomPanBin>
          </Entry>
          <Entry key="CursorEffectBin">
           <CursorEffectBin id="911"  >
            <CursorEffectKeyframes>
             <CursorEffectKeyframe id="912" timeRangeEnd="-9999999/1" timeRangeDuration="0/1" interpolaterName=""  />
            </CursorEffectKeyframes>
           </CursorEffectBin>
          </Entry>
         </ExtraData>
        </ScreenVMFile>
        <ScreenVMFile id="913" start="21756" duration="126" scalar="1/1" mediaStart="0/1" mediaDuration="126/1" trackNumber="0" src="31" >
         <Transformer>
          <VectorParam id="914"  name="translation">
           <InterpolatingParam id="915" interp="linr"  time="-9999999/1" value="0" leadInLength="0/1"  />
           <InterpolatingParam id="916" interp="linr"  time="-9999999/1" value="0" leadInLength="0/1"  />
           <InterpolatingParam id="917" interp="linr"  time="-9999999/1" value="0" leadInLength="0/1"  />
          </VectorParam>
          <VectorParam id="918"  name="rotation">
           <InterpolatingParam id="919" interp="linr"  time="-9999999/1" value="0" leadInLength="0/1"  />
           <InterpolatingParam id="920" interp="linr"  time="-9999999/1" value="0" leadInLength="0/1"  />
           <InterpolatingParam id="921" interp="linr"  time="-9999999/1" value="0" leadInLength="0/1"  />
          </VectorParam>
          <VectorParam id="922"  name="shear">
           <InterpolatingParam id="923" interp="linr"  time="-9999999/1" value="0" leadInLength="0/1"  />
           <InterpolatingParam id="924" interp="linr"  time="-9999999/1" value="0" leadInLength="0/1"  />
           <InterpolatingParam id="925" interp="linr"  time="-9999999/1" value="0" leadInLength="0/1"  />
          </VectorParam>
          <VectorParam id="926"  name="scale">
           <InterpolatingParam id="927" interp="linr"  time="-9999999/1" value="1" leadInLength="0/1"  />
           <InterpolatingParam id="928" interp="linr"  time="-9999999/1" value="1" leadInLength="0/1"  />
           <InterpolatingParam id="929" interp="linr"  time="-9999999/1" value="1" leadInLength="0/1"  />
          </VectorParam>
          <VectorParam id="930"  name="anchor">
           <InterpolatingParam id="931" interp="linr"  time="0/1" value="0" leadInLength="0/1"  />
           <InterpolatingParam id="932" interp="linr"  time="0/1" value="0" leadInLength="0/1"  />
           <InterpolatingParam id="933" interp="linr"  time="0/1" value="0" leadInLength="0/1"  />
          </VectorParam>
         </Transformer>
         <Parameters>
          <VectorParam id="934"  name="sourceCrop">
           <InterpolatingParam id="935" interp="linr"  time="0/1" value="0" leadInLength="0/1"  />
           <InterpolatingParam id="936" interp="linr"  time="0/1" value="0" leadInLength="0/1"  />
           <InterpolatingParam id="937" interp="linr"  time="0/1" value="0" leadInLength="0/1"  />
           <InterpolatingParam id="938" interp="linr"  time="0/1" value="0" leadInLength="0/1"  />
          </VectorParam>
          <VectorParam id="939"  name="geometryCrop">
           <InterpolatingParam id="940" interp="linr"  time="-9999999/1" value="0" leadInLength="0/1"  />
           <InterpolatingParam id="941" interp="linr"  time="-9999999/1" value="0" leadInLength="0/1"  />
           <InterpolatingParam id="942" interp="linr"  time="-9999999/1" value="0" leadInLength="0/1"  />
           <InterpolatingParam id="943" interp="linr"  time="-9999999/1" value="0" leadInLength="0/1"  />
          </VectorParam>
          <InterpolatingParam id="944" interp="linr"  time="-9999999/1" value="1" leadInLength="0/1"  name="opacity"/>
          <InterpolatingParam id="945" interp="linr"  time="0/1" value="1" leadInLength="0/1"  name="cursorOpacity"/>
          <InterpolatingParam id="946" interp="linr"  time="0/1" value="1" leadInLength="0/1"  name="cursorScale"/>
         </Parameters>
         <Effects>
          <GenericEffect id="947" name = "CursorBaseEffectName" >
           <Parameters>
           <InterpolatingParam id="948" interp="linr"  time="-9999999/1" value="1" leadInLength="0/1"   name="cursorSize"/>
           <InterpolatingParam id="949" interp="linr"  time="-9999999/1" value="0" leadInLength="0/1"   name="highlightBlurRadius"/>
           <InterpolatingParam id="950" interp="linr"  time="-9999999/1" value="0" leadInLength="0/1"   name="highlightColorBlue"/>
           <InterpolatingParam id="951" interp="linr"  time="-9999999/1" value="255" leadInLength="0/1"   name="highlightColorGreen"/>
           <InterpolatingParam id="952" interp="linr"  time="-9999999/1" value="255" leadInLength="0/1"   name="highlightColorRed"/>
           <InterpolatingParam id="953" interp="linr"  time="-9999999/1" value="5" leadInLength="0/1"   name="highlightFeatherSize"/>
           <InterpolatingParam id="954" interp="linr"  time="-9999999/1" value="2" leadInLength="0/1"   name="highlightMagnification"/>
           <InterpolatingParam id="955" interp="linr"  time="-9999999/1" value="1" leadInLength="0/1"   name="highlightOpacity"/>
           <InterpolatingParam id="956" interp="linr"  time="-9999999/1" value="45" leadInLength="0/1"   name="highlightSize"/>
           <Parameter id="957"   name="highlightType">
            <Keyframes>
            <Keyframe id="958"  time="-9999999/1" value="0" leadInLength="0/1"  />
            </Keyframes>
           </Parameter>
           <InterpolatingParam id="959" interp="linr"  time="-9999999/1" value="0" leadInLength="0/1"   name="leftClickColorBlue"/>
           <InterpolatingParam id="960" interp="linr"  time="-9999999/1" value="0" leadInLength="0/1"   name="leftClickColorGreen"/>
           <InterpolatingParam id="961" interp="linr"  time="-9999999/1" value="255" leadInLength="0/1"   name="leftClickColorRed"/>
           <InterpolatingParam id="962" interp="linr"  time="-9999999/1" value="0.80000000000000004" leadInLength="0/1"   name="leftClickDuration"/>
           <InterpolatingParam id="963" interp="linr"  time="-9999999/1" value="20" leadInLength="0/1"   name="leftClickSize"/>
           <Parameter id="964"   name="leftClickSoundFilename">
            <Keyframes>
            <Keyframe id="965"  time="-9999999/1" value="" leadInLength="0/1"  />
            </Keyframes>
           </Parameter>
           <InterpolatingParam id="966" interp="linr"  time="-9999999/1" value="1" leadInLength="0/1"   name="leftClickSoundVolume"/>
           <Parameter id="967"   name="leftClickType">
            <Keyframes>
            <Keyframe id="968"  time="-9999999/1" value="0" leadInLength="0/1"  />
            </Keyframes>
           </Parameter>
           <InterpolatingParam id="969" interp="linr"  time="-9999999/1" value="1" leadInLength="0/1"   name="opacity"/>
           <InterpolatingParam id="970" interp="linr"  time="-9999999/1" value="255" leadInLength="0/1"   name="rightClickColorBlue"/>
           <InterpolatingParam id="971" interp="linr"  time="-9999999/1" value="0" leadInLength="0/1"   name="rightClickColorGreen"/>
           <InterpolatingParam id="972" interp="linr"  time="-9999999/1" value="0" leadInLength="0/1"   name="rightClickColorRed"/>
           <InterpolatingParam id="973" interp="linr"  time="-9999999/1" value="0.80000000000000004" leadInLength="0/1"   name="rightClickDuration"/>
           <InterpolatingParam id="974" interp="linr"  time="-9999999/1" value="20" leadInLength="0/1"   name="rightClickSize"/>
           <Parameter id="975"   name="rightClickSoundFilename">
            <Keyframes>
            <Keyframe id="976"  time="-9999999/1" value="" leadInLength="0/1"  />
            </Keyframes>
           </Parameter>
           <InterpolatingParam id="977" interp="linr"  time="-9999999/1" value="1" leadInLength="0/1"   name="rightClickSoundVolume"/>
           <Parameter id="978"   name="rightClickType">
            <Keyframes>
            <Keyframe id="979"  time="-9999999/1" value="0" leadInLength="0/1"  />
            </Keyframes>
           </Parameter>
           </Parameters>
          </GenericEffect>
         </Effects>
         <Attributes>
          <Attribute id="980" value="" name="ident"/>
         </Attributes>
         <MetaData>
          <entry key="AutoAppliedSmartFocus" val="False"/>
          <entry key="WinSubProjectDisplayName" val=""/>
         </MetaData>
         <ExtraData>
          <Entry key="ZoomPanBin">
           <ZoomPanBin id="981"  >
            <ZoomPanKeyframes>
             <ZoomPanKeyframe id="982" timeRangeEnd="-9999999/1" timeRangeDuration="0/1" interpolaterName="linr"  />
            </ZoomPanKeyframes>
           </ZoomPanBin>
          </Entry>
          <Entry key="CursorEffectBin">
           <CursorEffectBin id="983"  >
            <CursorEffectKeyframes>
             <CursorEffectKeyframe id="984" timeRangeEnd="-9999999/1" timeRangeDuration="0/1" interpolaterName=""  />
            </CursorEffectKeyframes>
           </CursorEffectBin>
          </Entry>
         </ExtraData>
        </ScreenVMFile>
        <ScreenVMFile id="985" start="21882" duration="1360" scalar="1/1" mediaStart="46/1" mediaDuration="1360/1" trackNumber="0" src="32" >
         <Transformer>
          <VectorParam id="986"  name="translation">
           <InterpolatingParam id="987" interp="linr"  time="-9999999/1" value="0" leadInLength="0/1"  />
           <InterpolatingParam id="988" interp="linr"  time="-9999999/1" value="0" leadInLength="0/1"  />
           <InterpolatingParam id="989" interp="linr"  time="-9999999/1" value="0" leadInLength="0/1"  />
          </VectorParam>
          <VectorParam id="990"  name="rotation">
           <InterpolatingParam id="991" interp="linr"  time="-9999999/1" value="0" leadInLength="0/1"  />
           <InterpolatingParam id="992" interp="linr"  time="-9999999/1" value="0" leadInLength="0/1"  />
           <InterpolatingParam id="993" interp="linr"  time="-9999999/1" value="0" leadInLength="0/1"  />
          </VectorParam>
          <VectorParam id="994"  name="shear">
           <InterpolatingParam id="995" interp="linr"  time="-9999999/1" value="0" leadInLength="0/1"  />
           <InterpolatingParam id="996" interp="linr"  time="-9999999/1" value="0" leadInLength="0/1"  />
           <InterpolatingParam id="997" interp="linr"  time="-9999999/1" value="0" leadInLength="0/1"  />
          </VectorParam>
          <VectorParam id="998"  name="scale">
           <InterpolatingParam id="999" interp="linr"  time="-9999999/1" value="1" leadInLength="0/1"  />
           <InterpolatingParam id="1000" interp="linr"  time="-9999999/1" value="1" leadInLength="0/1"  />
           <InterpolatingParam id="1001" interp="linr"  time="-9999999/1" value="1" leadInLength="0/1"  />
          </VectorParam>
          <VectorParam id="1002"  name="anchor">
           <InterpolatingParam id="1003" interp="linr"  time="0/1" value="0" leadInLength="0/1"  />
           <InterpolatingParam id="1004" interp="linr"  time="0/1" value="0" leadInLength="0/1"  />
           <InterpolatingParam id="1005" interp="linr"  time="0/1" value="0" leadInLength="0/1"  />
          </VectorParam>
         </Transformer>
         <Parameters>
          <VectorParam id="1006"  name="sourceCrop">
           <InterpolatingParam id="1007" interp="linr"  time="0/1" value="0" leadInLength="0/1"  />
           <InterpolatingParam id="1008" interp="linr"  time="0/1" value="0" leadInLength="0/1"  />
           <InterpolatingParam id="1009" interp="linr"  time="0/1" value="0" leadInLength="0/1"  />
           <InterpolatingParam id="1010" interp="linr"  time="0/1" value="0" leadInLength="0/1"  />
          </VectorParam>
          <VectorParam id="1011"  name="geometryCrop">
           <InterpolatingParam id="1012" interp="linr"  time="-9999999/1" value="0" leadInLength="0/1"  />
           <InterpolatingParam id="1013" interp="linr"  time="-9999999/1" value="0" leadInLength="0/1"  />
           <InterpolatingParam id="1014" interp="linr"  time="-9999999/1" value="0" leadInLength="0/1"  />
           <InterpolatingParam id="1015" interp="linr"  time="-9999999/1" value="0" leadInLength="0/1"  />
          </VectorParam>
          <InterpolatingParam id="1016" interp="linr"  time="-9999999/1" value="1" leadInLength="0/1"  name="opacity"/>
          <InterpolatingParam id="1017" interp="linr"  time="0/1" value="1" leadInLength="0/1"  name="cursorOpacity"/>
          <InterpolatingParam id="1018" interp="linr"  time="0/1" value="1" leadInLength="0/1"  name="cursorScale"/>
         </Parameters>
         <Effects>
          <GenericEffect id="1019" name = "CursorBaseEffectName" >
           <Parameters>
           <InterpolatingParam id="1020" interp="linr"  time="-9999999/1" value="1" leadInLength="0/1"   name="cursorSize"/>
           <InterpolatingParam id="1021" interp="linr"  time="-9999999/1" value="0" leadInLength="0/1"   name="highlightBlurRadius"/>
           <InterpolatingParam id="1022" interp="linr"  time="-9999999/1" value="0" leadInLength="0/1"   name="highlightColorBlue"/>
           <InterpolatingParam id="1023" interp="linr"  time="-9999999/1" value="255" leadInLength="0/1"   name="highlightColorGreen"/>
           <InterpolatingParam id="1024" interp="linr"  time="-9999999/1" value="255" leadInLength="0/1"   name="highlightColorRed"/>
           <InterpolatingParam id="1025" interp="linr"  time="-9999999/1" value="5" leadInLength="0/1"   name="highlightFeatherSize"/>
           <InterpolatingParam id="1026" interp="linr"  time="-9999999/1" value="2" leadInLength="0/1"   name="highlightMagnification"/>
           <InterpolatingParam id="1027" interp="linr"  time="-9999999/1" value="1" leadInLength="0/1"   name="highlightOpacity"/>
           <InterpolatingParam id="1028" interp="linr"  time="-9999999/1" value="45" leadInLength="0/1"   name="highlightSize"/>
           <Parameter id="1029"   name="highlightType">
            <Keyframes>
            <Keyframe id="1030"  time="-9999999/1" value="0" leadInLength="0/1"  />
            </Keyframes>
           </Parameter>
           <InterpolatingParam id="1031" interp="linr"  time="-9999999/1" value="0" leadInLength="0/1"   name="leftClickColorBlue"/>
           <InterpolatingParam id="1032" interp="linr"  time="-9999999/1" value="0" leadInLength="0/1"   name="leftClickColorGreen"/>
           <InterpolatingParam id="1033" interp="linr"  time="-9999999/1" value="255" leadInLength="0/1"   name="leftClickColorRed"/>
           <InterpolatingParam id="1034" interp="linr"  time="-9999999/1" value="0.80000000000000004" leadInLength="0/1"   name="leftClickDuration"/>
           <InterpolatingParam id="1035" interp="linr"  time="-9999999/1" value="20" leadInLength="0/1"   name="leftClickSize"/>
           <Parameter id="1036"   name="leftClickSoundFilename">
            <Keyframes>
            <Keyframe id="1037"  time="-9999999/1" value="" leadInLength="0/1"  />
            </Keyframes>
           </Parameter>
           <InterpolatingParam id="1038" interp="linr"  time="-9999999/1" value="1" leadInLength="0/1"   name="leftClickSoundVolume"/>
           <Parameter id="1039"   name="leftClickType">
            <Keyframes>
            <Keyframe id="1040"  time="-9999999/1" value="0" leadInLength="0/1"  />
            </Keyframes>
           </Parameter>
           <InterpolatingParam id="1041" interp="linr"  time="-9999999/1" value="1" leadInLength="0/1"   name="opacity"/>
           <InterpolatingParam id="1042" interp="linr"  time="-9999999/1" value="255" leadInLength="0/1"   name="rightClickColorBlue"/>
           <InterpolatingParam id="1043" interp="linr"  time="-9999999/1" value="0" leadInLength="0/1"   name="rightClickColorGreen"/>
           <InterpolatingParam id="1044" interp="linr"  time="-9999999/1" value="0" leadInLength="0/1"   name="rightClickColorRed"/>
           <InterpolatingParam id="1045" interp="linr"  time="-9999999/1" value="0.80000000000000004" leadInLength="0/1"   name="rightClickDuration"/>
           <InterpolatingParam id="1046" interp="linr"  time="-9999999/1" value="20" leadInLength="0/1"   name="rightClickSize"/>
           <Parameter id="1047"   name="rightClickSoundFilename">
            <Keyframes>
            <Keyframe id="1048"  time="-9999999/1" value="" leadInLength="0/1"  />
            </Keyframes>
           </Parameter>
           <InterpolatingParam id="1049" interp="linr"  time="-9999999/1" value="1" leadInLength="0/1"   name="rightClickSoundVolume"/>
           <Parameter id="1050"   name="rightClickType">
            <Keyframes>
            <Keyframe id="1051"  time="-9999999/1" value="0" leadInLength="0/1"  />
            </Keyframes>
           </Parameter>
           </Parameters>
          </GenericEffect>
         </Effects>
         <Attributes>
          <Attribute id="1052" value="" name="ident"/>
         </Attributes>
         <MetaData>
          <entry key="AutoAppliedSmartFocus" val="False"/>
          <entry key="WinSubProjectDisplayName" val=""/>
         </MetaData>
         <ExtraData>
          <Entry key="ZoomPanBin">
           <ZoomPanBin id="1053"  >
            <ZoomPanKeyframes>
             <ZoomPanKeyframe id="1054" timeRangeEnd="-9999999/1" timeRangeDuration="0/1" interpolaterName="linr"  />
            </ZoomPanKeyframes>
           </ZoomPanBin>
          </Entry>
          <Entry key="CursorEffectBin">
           <CursorEffectBin id="1055"  >
            <CursorEffectKeyframes>
             <CursorEffectKeyframe id="1056" timeRangeEnd="-9999999/1" timeRangeDuration="0/1" interpolaterName=""  />
            </CursorEffectKeyframes>
           </CursorEffectBin>
          </Entry>
         </ExtraData>
        </ScreenVMFile>
        <ScreenVMFile id="1057" start="23242" duration="991" scalar="1/1" mediaStart="139/1" mediaDuration="991/1" trackNumber="0" src="33" >
         <Transformer>
          <VectorParam id="1058"  name="translation">
           <InterpolatingParam id="1059" interp="linr"  time="-9999999/1" value="0" leadInLength="0/1"  />
           <InterpolatingParam id="1060" interp="linr"  time="-9999999/1" value="0" leadInLength="0/1"  />
           <InterpolatingParam id="1061" interp="linr"  time="-9999999/1" value="0" leadInLength="0/1"  />
          </VectorParam>
          <VectorParam id="1062"  name="rotation">
           <InterpolatingParam id="1063" interp="linr"  time="-9999999/1" value="0" leadInLength="0/1"  />
           <InterpolatingParam id="1064" interp="linr"  time="-9999999/1" value="0" leadInLength="0/1"  />
           <InterpolatingParam id="1065" interp="linr"  time="-9999999/1" value="0" leadInLength="0/1"  />
          </VectorParam>
          <VectorParam id="1066"  name="shear">
           <InterpolatingParam id="1067" interp="linr"  time="-9999999/1" value="0" leadInLength="0/1"  />
           <InterpolatingParam id="1068" interp="linr"  time="-9999999/1" value="0" leadInLength="0/1"  />
           <InterpolatingParam id="1069" interp="linr"  time="-9999999/1" value="0" leadInLength="0/1"  />
          </VectorParam>
          <VectorParam id="1070"  name="scale">
           <InterpolatingParam id="1071" interp="linr"  time="-9999999/1" value="1" leadInLength="0/1"  />
           <InterpolatingParam id="1072" interp="linr"  time="-9999999/1" value="1" leadInLength="0/1"  />
           <InterpolatingParam id="1073" interp="linr"  time="-9999999/1" value="1" leadInLength="0/1"  />
          </VectorParam>
          <VectorParam id="1074"  name="anchor">
           <InterpolatingParam id="1075" interp="linr"  time="0/1" value="0" leadInLength="0/1"  />
           <InterpolatingParam id="1076" interp="linr"  time="0/1" value="0" leadInLength="0/1"  />
           <InterpolatingParam id="1077" interp="linr"  time="0/1" value="0" leadInLength="0/1"  />
          </VectorParam>
         </Transformer>
         <Parameters>
          <VectorParam id="1078"  name="sourceCrop">
           <InterpolatingParam id="1079" interp="linr"  time="0/1" value="0" leadInLength="0/1"  />
           <InterpolatingParam id="1080" interp="linr"  time="0/1" value="0" leadInLength="0/1"  />
           <InterpolatingParam id="1081" interp="linr"  time="0/1" value="0" leadInLength="0/1"  />
           <InterpolatingParam id="1082" interp="linr"  time="0/1" value="0" leadInLength="0/1"  />
          </VectorParam>
          <VectorParam id="1083"  name="geometryCrop">
           <InterpolatingParam id="1084" interp="linr"  time="-9999999/1" value="0" leadInLength="0/1"  />
           <InterpolatingParam id="1085" interp="linr"  time="-9999999/1" value="0" leadInLength="0/1"  />
           <InterpolatingParam id="1086" interp="linr"  time="-9999999/1" value="0" leadInLength="0/1"  />
           <InterpolatingParam id="1087" interp="linr"  time="-9999999/1" value="0" leadInLength="0/1"  />
          </VectorParam>
          <InterpolatingParam id="1088" interp="linr"  time="-9999999/1" value="1" leadInLength="0/1"  name="opacity"/>
          <InterpolatingParam id="1089" interp="linr"  time="0/1" value="1" leadInLength="0/1"  name="cursorOpacity"/>
          <InterpolatingParam id="1090" interp="linr"  time="0/1" value="1" leadInLength="0/1"  name="cursorScale"/>
         </Parameters>
         <Effects>
          <GenericEffect id="1091" name = "CursorBaseEffectName" >
           <Parameters>
           <InterpolatingParam id="1092" interp="linr"  time="-9999999/1" value="1" leadInLength="0/1"   name="cursorSize"/>
           <InterpolatingParam id="1093" interp="linr"  time="-9999999/1" value="0" leadInLength="0/1"   name="highlightBlurRadius"/>
           <InterpolatingParam id="1094" interp="linr"  time="-9999999/1" value="0" leadInLength="0/1"   name="highlightColorBlue"/>
           <InterpolatingParam id="1095" interp="linr"  time="-9999999/1" value="255" leadInLength="0/1"   name="highlightColorGreen"/>
           <InterpolatingParam id="1096" interp="linr"  time="-9999999/1" value="255" leadInLength="0/1"   name="highlightColorRed"/>
           <InterpolatingParam id="1097" interp="linr"  time="-9999999/1" value="5" leadInLength="0/1"   name="highlightFeatherSize"/>
           <InterpolatingParam id="1098" interp="linr"  time="-9999999/1" value="2" leadInLength="0/1"   name="highlightMagnification"/>
           <InterpolatingParam id="1099" interp="linr"  time="-9999999/1" value="1" leadInLength="0/1"   name="highlightOpacity"/>
           <InterpolatingParam id="1100" interp="linr"  time="-9999999/1" value="45" leadInLength="0/1"   name="highlightSize"/>
           <Parameter id="1101"   name="highlightType">
            <Keyframes>
            <Keyframe id="1102"  time="-9999999/1" value="0" leadInLength="0/1"  />
            </Keyframes>
           </Parameter>
           <InterpolatingParam id="1103" interp="linr"  time="-9999999/1" value="0" leadInLength="0/1"   name="leftClickColorBlue"/>
           <InterpolatingParam id="1104" interp="linr"  time="-9999999/1" value="0" leadInLength="0/1"   name="leftClickColorGreen"/>
           <InterpolatingParam id="1105" interp="linr"  time="-9999999/1" value="255" leadInLength="0/1"   name="leftClickColorRed"/>
           <InterpolatingParam id="1106" interp="linr"  time="-9999999/1" value="0.80000000000000004" leadInLength="0/1"   name="leftClickDuration"/>
           <InterpolatingParam id="1107" interp="linr"  time="-9999999/1" value="20" leadInLength="0/1"   name="leftClickSize"/>
           <Parameter id="1108"   name="leftClickSoundFilename">
            <Keyframes>
            <Keyframe id="1109"  time="-9999999/1" value="" leadInLength="0/1"  />
            </Keyframes>
           </Parameter>
           <InterpolatingParam id="1110" interp="linr"  time="-9999999/1" value="1" leadInLength="0/1"   name="leftClickSoundVolume"/>
           <Parameter id="1111"   name="leftClickType">
            <Keyframes>
            <Keyframe id="1112"  time="-9999999/1" value="0" leadInLength="0/1"  />
            </Keyframes>
           </Parameter>
           <InterpolatingParam id="1113" interp="linr"  time="-9999999/1" value="1" leadInLength="0/1"   name="opacity"/>
           <InterpolatingParam id="1114" interp="linr"  time="-9999999/1" value="255" leadInLength="0/1"   name="rightClickColorBlue"/>
           <InterpolatingParam id="1115" interp="linr"  time="-9999999/1" value="0" leadInLength="0/1"   name="rightClickColorGreen"/>
           <InterpolatingParam id="1116" interp="linr"  time="-9999999/1" value="0" leadInLength="0/1"   name="rightClickColorRed"/>
           <InterpolatingParam id="1117" interp="linr"  time="-9999999/1" value="0.80000000000000004" leadInLength="0/1"   name="rightClickDuration"/>
           <InterpolatingParam id="1118" interp="linr"  time="-9999999/1" value="20" leadInLength="0/1"   name="rightClickSize"/>
           <Parameter id="1119"   name="rightClickSoundFilename">
            <Keyframes>
            <Keyframe id="1120"  time="-9999999/1" value="" leadInLength="0/1"  />
            </Keyframes>
           </Parameter>
           <InterpolatingParam id="1121" interp="linr"  time="-9999999/1" value="1" leadInLength="0/1"   name="rightClickSoundVolume"/>
           <Parameter id="1122"   name="rightClickType">
            <Keyframes>
            <Keyframe id="1123"  time="-9999999/1" value="0" leadInLength="0/1"  />
            </Keyframes>
           </Parameter>
           </Parameters>
          </GenericEffect>
         </Effects>
         <Attributes>
          <Attribute id="1124" value="" name="ident"/>
         </Attributes>
         <MetaData>
          <entry key="AutoAppliedSmartFocus" val="False"/>
          <entry key="WinSubProjectDisplayName" val=""/>
         </MetaData>
         <ExtraData>
          <Entry key="ZoomPanBin">
           <ZoomPanBin id="1125"  >
            <ZoomPanKeyframes>
             <ZoomPanKeyframe id="1126" timeRangeEnd="-9999999/1" timeRangeDuration="0/1" interpolaterName="linr"  />
            </ZoomPanKeyframes>
           </ZoomPanBin>
          </Entry>
          <Entry key="CursorEffectBin">
           <CursorEffectBin id="1127"  >
            <CursorEffectKeyframes>
             <CursorEffectKeyframe id="1128" timeRangeEnd="-9999999/1" timeRangeDuration="0/1" interpolaterName=""  />
            </CursorEffectKeyframes>
           </CursorEffectBin>
          </Entry>
         </ExtraData>
        </ScreenVMFile>
        <ScreenVMFile id="1129" start="24233" duration="520" scalar="1/1" mediaStart="201/1" mediaDuration="520/1" trackNumber="0" src="34" >
         <Transformer>
          <VectorParam id="1130"  name="translation">
           <InterpolatingParam id="1131" interp="linr"  time="-9999999/1" value="0" leadInLength="0/1"  />
           <InterpolatingParam id="1132" interp="linr"  time="-9999999/1" value="0" leadInLength="0/1"  />
           <InterpolatingParam id="1133" interp="linr"  time="-9999999/1" value="0" leadInLength="0/1"  />
          </VectorParam>
          <VectorParam id="1134"  name="rotation">
           <InterpolatingParam id="1135" interp="linr"  time="-9999999/1" value="0" leadInLength="0/1"  />
           <InterpolatingParam id="1136" interp="linr"  time="-9999999/1" value="0" leadInLength="0/1"  />
           <InterpolatingParam id="1137" interp="linr"  time="-9999999/1" value="0" leadInLength="0/1"  />
          </VectorParam>
          <VectorParam id="1138"  name="shear">
           <InterpolatingParam id="1139" interp="linr"  time="-9999999/1" value="0" leadInLength="0/1"  />
           <InterpolatingParam id="1140" interp="linr"  time="-9999999/1" value="0" leadInLength="0/1"  />
           <InterpolatingParam id="1141" interp="linr"  time="-9999999/1" value="0" leadInLength="0/1"  />
          </VectorParam>
          <VectorParam id="1142"  name="scale">
           <InterpolatingParam id="1143" interp="linr"  time="-9999999/1" value="1" leadInLength="0/1"  />
           <InterpolatingParam id="1144" interp="linr"  time="-9999999/1" value="1" leadInLength="0/1"  />
           <InterpolatingParam id="1145" interp="linr"  time="-9999999/1" value="1" leadInLength="0/1"  />
          </VectorParam>
          <VectorParam id="1146"  name="anchor">
           <InterpolatingParam id="1147" interp="linr"  time="0/1" value="0" leadInLength="0/1"  />
           <InterpolatingParam id="1148" interp="linr"  time="0/1" value="0" leadInLength="0/1"  />
           <InterpolatingParam id="1149" interp="linr"  time="0/1" value="0" leadInLength="0/1"  />
          </VectorParam>
         </Transformer>
         <Parameters>
          <VectorParam id="1150"  name="sourceCrop">
           <InterpolatingParam id="1151" interp="linr"  time="0/1" value="0" leadInLength="0/1"  />
           <InterpolatingParam id="1152" interp="linr"  time="0/1" value="0" leadInLength="0/1"  />
           <InterpolatingParam id="1153" interp="linr"  time="0/1" value="0" leadInLength="0/1"  />
           <InterpolatingParam id="1154" interp="linr"  time="0/1" value="0" leadInLength="0/1"  />
          </VectorParam>
          <VectorParam id="1155"  name="geometryCrop">
           <InterpolatingParam id="1156" interp="linr"  time="-9999999/1" value="0" leadInLength="0/1"  />
           <InterpolatingParam id="1157" interp="linr"  time="-9999999/1" value="0" leadInLength="0/1"  />
           <InterpolatingParam id="1158" interp="linr"  time="-9999999/1" value="0" leadInLength="0/1"  />
           <InterpolatingParam id="1159" interp="linr"  time="-9999999/1" value="0" leadInLength="0/1"  />
          </VectorParam>
          <InterpolatingParam id="1160" interp="linr"  time="-9999999/1" value="1" leadInLength="0/1"  name="opacity"/>
          <InterpolatingParam id="1161" interp="linr"  time="0/1" value="1" leadInLength="0/1"  name="cursorOpacity"/>
          <InterpolatingParam id="1162" interp="linr"  time="0/1" value="1" leadInLength="0/1"  name="cursorScale"/>
         </Parameters>
         <Effects>
          <GenericEffect id="1163" name = "CursorBaseEffectName" >
           <Parameters>
           <InterpolatingParam id="1164" interp="linr"  time="-9999999/1" value="1" leadInLength="0/1"   name="cursorSize"/>
           <InterpolatingParam id="1165" interp="linr"  time="-9999999/1" value="0" leadInLength="0/1"   name="highlightBlurRadius"/>
           <InterpolatingParam id="1166" interp="linr"  time="-9999999/1" value="0" leadInLength="0/1"   name="highlightColorBlue"/>
           <InterpolatingParam id="1167" interp="linr"  time="-9999999/1" value="255" leadInLength="0/1"   name="highlightColorGreen"/>
           <InterpolatingParam id="1168" interp="linr"  time="-9999999/1" value="255" leadInLength="0/1"   name="highlightColorRed"/>
           <InterpolatingParam id="1169" interp="linr"  time="-9999999/1" value="5" leadInLength="0/1"   name="highlightFeatherSize"/>
           <InterpolatingParam id="1170" interp="linr"  time="-9999999/1" value="2" leadInLength="0/1"   name="highlightMagnification"/>
           <InterpolatingParam id="1171" interp="linr"  time="-9999999/1" value="1" leadInLength="0/1"   name="highlightOpacity"/>
           <InterpolatingParam id="1172" interp="linr"  time="-9999999/1" value="45" leadInLength="0/1"   name="highlightSize"/>
           <Parameter id="1173"   name="highlightType">
            <Keyframes>
            <Keyframe id="1174"  time="-9999999/1" value="0" leadInLength="0/1"  />
            </Keyframes>
           </Parameter>
           <InterpolatingParam id="1175" interp="linr"  time="-9999999/1" value="0" leadInLength="0/1"   name="leftClickColorBlue"/>
           <InterpolatingParam id="1176" interp="linr"  time="-9999999/1" value="0" leadInLength="0/1"   name="leftClickColorGreen"/>
           <InterpolatingParam id="1177" interp="linr"  time="-9999999/1" value="255" leadInLength="0/1"   name="leftClickColorRed"/>
           <InterpolatingParam id="1178" interp="linr"  time="-9999999/1" value="0.80000000000000004" leadInLength="0/1"   name="leftClickDuration"/>
           <InterpolatingParam id="1179" interp="linr"  time="-9999999/1" value="20" leadInLength="0/1"   name="leftClickSize"/>
           <Parameter id="1180"   name="leftClickSoundFilename">
            <Keyframes>
            <Keyframe id="1181"  time="-9999999/1" value="" leadInLength="0/1"  />
            </Keyframes>
           </Parameter>
           <InterpolatingParam id="1182" interp="linr"  time="-9999999/1" value="1" leadInLength="0/1"   name="leftClickSoundVolume"/>
           <Parameter id="1183"   name="leftClickType">
            <Keyframes>
            <Keyframe id="1184"  time="-9999999/1" value="0" leadInLength="0/1"  />
            </Keyframes>
           </Parameter>
           <InterpolatingParam id="1185" interp="linr"  time="-9999999/1" value="1" leadInLength="0/1"   name="opacity"/>
           <InterpolatingParam id="1186" interp="linr"  time="-9999999/1" value="255" leadInLength="0/1"   name="rightClickColorBlue"/>
           <InterpolatingParam id="1187" interp="linr"  time="-9999999/1" value="0" leadInLength="0/1"   name="rightClickColorGreen"/>
           <InterpolatingParam id="1188" interp="linr"  time="-9999999/1" value="0" leadInLength="0/1"   name="rightClickColorRed"/>
           <InterpolatingParam id="1189" interp="linr"  time="-9999999/1" value="0.80000000000000004" leadInLength="0/1"   name="rightClickDuration"/>
           <InterpolatingParam id="1190" interp="linr"  time="-9999999/1" value="20" leadInLength="0/1"   name="rightClickSize"/>
           <Parameter id="1191"   name="rightClickSoundFilename">
            <Keyframes>
            <Keyframe id="1192"  time="-9999999/1" value="" leadInLength="0/1"  />
            </Keyframes>
           </Parameter>
           <InterpolatingParam id="1193" interp="linr"  time="-9999999/1" value="1" leadInLength="0/1"   name="rightClickSoundVolume"/>
           <Parameter id="1194"   name="rightClickType">
            <Keyframes>
            <Keyframe id="1195"  time="-9999999/1" value="0" leadInLength="0/1"  />
            </Keyframes>
           </Parameter>
           </Parameters>
          </GenericEffect>
         </Effects>
         <Attributes>
          <Attribute id="1196" value="" name="ident"/>
         </Attributes>
         <MetaData>
          <entry key="AutoAppliedSmartFocus" val="False"/>
          <entry key="WinSubProjectDisplayName" val=""/>
         </MetaData>
         <ExtraData>
          <Entry key="ZoomPanBin">
           <ZoomPanBin id="1197"  >
            <ZoomPanKeyframes>
             <ZoomPanKeyframe id="1198" timeRangeEnd="-9999999/1" timeRangeDuration="0/1" interpolaterName="linr"  />
            </ZoomPanKeyframes>
           </ZoomPanBin>
          </Entry>
          <Entry key="CursorEffectBin">
           <CursorEffectBin id="1199"  >
            <CursorEffectKeyframes>
             <CursorEffectKeyframe id="1200" timeRangeEnd="-9999999/1" timeRangeDuration="0/1" interpolaterName=""  />
            </CursorEffectKeyframes>
           </CursorEffectBin>
          </Entry>
         </ExtraData>
        </ScreenVMFile>
        <ScreenVMFile id="1201" start="24753" duration="875" scalar="1/1" mediaStart="54/1" mediaDuration="875/1" trackNumber="0" src="35" >
         <Transformer>
          <VectorParam id="1202"  name="translation">
           <InterpolatingParam id="1203" interp="linr"  time="-9999999/1" value="0" leadInLength="0/1"  />
           <InterpolatingParam id="1204" interp="linr"  time="-9999999/1" value="0" leadInLength="0/1"  />
           <InterpolatingParam id="1205" interp="linr"  time="-9999999/1" value="0" leadInLength="0/1"  />
          </VectorParam>
          <VectorParam id="1206"  name="rotation">
           <InterpolatingParam id="1207" interp="linr"  time="-9999999/1" value="0" leadInLength="0/1"  />
           <InterpolatingParam id="1208" interp="linr"  time="-9999999/1" value="0" leadInLength="0/1"  />
           <InterpolatingParam id="1209" interp="linr"  time="-9999999/1" value="0" leadInLength="0/1"  />
          </VectorParam>
          <VectorParam id="1210"  name="shear">
           <InterpolatingParam id="1211" interp="linr"  time="-9999999/1" value="0" leadInLength="0/1"  />
           <InterpolatingParam id="1212" interp="linr"  time="-9999999/1" value="0" leadInLength="0/1"  />
           <InterpolatingParam id="1213" interp="linr"  time="-9999999/1" value="0" leadInLength="0/1"  />
          </VectorParam>
          <VectorParam id="1214"  name="scale">
           <InterpolatingParam id="1215" interp="linr"  time="-9999999/1" value="1" leadInLength="0/1"  />
           <InterpolatingParam id="1216" interp="linr"  time="-9999999/1" value="1" leadInLength="0/1"  />
           <InterpolatingParam id="1217" interp="linr"  time="-9999999/1" value="1" leadInLength="0/1"  />
          </VectorParam>
          <VectorParam id="1218"  name="anchor">
           <InterpolatingParam id="1219" interp="linr"  time="0/1" value="0" leadInLength="0/1"  />
           <InterpolatingParam id="1220" interp="linr"  time="0/1" value="0" leadInLength="0/1"  />
           <InterpolatingParam id="1221" interp="linr"  time="0/1" value="0" leadInLength="0/1"  />
          </VectorParam>
         </Transformer>
         <Parameters>
          <VectorParam id="1222"  name="sourceCrop">
           <InterpolatingParam id="1223" interp="linr"  time="0/1" value="0" leadInLength="0/1"  />
           <InterpolatingParam id="1224" interp="linr"  time="0/1" value="0" leadInLength="0/1"  />
           <InterpolatingParam id="1225" interp="linr"  time="0/1" value="0" leadInLength="0/1"  />
           <InterpolatingParam id="1226" interp="linr"  time="0/1" value="0" leadInLength="0/1"  />
          </VectorParam>
          <VectorParam id="1227"  name="geometryCrop">
           <InterpolatingParam id="1228" interp="linr"  time="-9999999/1" value="0" leadInLength="0/1"  />
           <InterpolatingParam id="1229" interp="linr"  time="-9999999/1" value="0" leadInLength="0/1"  />
           <InterpolatingParam id="1230" interp="linr"  time="-9999999/1" value="0" leadInLength="0/1"  />
           <InterpolatingParam id="1231" interp="linr"  time="-9999999/1" value="0" leadInLength="0/1"  />
          </VectorParam>
          <InterpolatingParam id="1232" interp="linr"  time="-9999999/1" value="1" leadInLength="0/1"  name="opacity"/>
          <InterpolatingParam id="1233" interp="linr"  time="0/1" value="1" leadInLength="0/1"  name="cursorOpacity"/>
          <InterpolatingParam id="1234" interp="linr"  time="0/1" value="1" leadInLength="0/1"  name="cursorScale"/>
         </Parameters>
         <Effects>
          <GenericEffect id="1235" name = "CursorBaseEffectName" >
           <Parameters>
           <InterpolatingParam id="1236" interp="linr"  time="-9999999/1" value="1" leadInLength="0/1"   name="cursorSize"/>
           <InterpolatingParam id="1237" interp="linr"  time="-9999999/1" value="0" leadInLength="0/1"   name="highlightBlurRadius"/>
           <InterpolatingParam id="1238" interp="linr"  time="-9999999/1" value="0" leadInLength="0/1"   name="highlightColorBlue"/>
           <InterpolatingParam id="1239" interp="linr"  time="-9999999/1" value="255" leadInLength="0/1"   name="highlightColorGreen"/>
           <InterpolatingParam id="1240" interp="linr"  time="-9999999/1" value="255" leadInLength="0/1"   name="highlightColorRed"/>
           <InterpolatingParam id="1241" interp="linr"  time="-9999999/1" value="5" leadInLength="0/1"   name="highlightFeatherSize"/>
           <InterpolatingParam id="1242" interp="linr"  time="-9999999/1" value="2" leadInLength="0/1"   name="highlightMagnification"/>
           <InterpolatingParam id="1243" interp="linr"  time="-9999999/1" value="1" leadInLength="0/1"   name="highlightOpacity"/>
           <InterpolatingParam id="1244" interp="linr"  time="-9999999/1" value="45" leadInLength="0/1"   name="highlightSize"/>
           <Parameter id="1245"   name="highlightType">
            <Keyframes>
            <Keyframe id="1246"  time="-9999999/1" value="0" leadInLength="0/1"  />
            </Keyframes>
           </Parameter>
           <InterpolatingParam id="1247" interp="linr"  time="-9999999/1" value="0" leadInLength="0/1"   name="leftClickColorBlue"/>
           <InterpolatingParam id="1248" interp="linr"  time="-9999999/1" value="0" leadInLength="0/1"   name="leftClickColorGreen"/>
           <InterpolatingParam id="1249" interp="linr"  time="-9999999/1" value="255" leadInLength="0/1"   name="leftClickColorRed"/>
           <InterpolatingParam id="1250" interp="linr"  time="-9999999/1" value="0.80000000000000004" leadInLength="0/1"   name="leftClickDuration"/>
           <InterpolatingParam id="1251" interp="linr"  time="-9999999/1" value="20" leadInLength="0/1"   name="leftClickSize"/>
           <Parameter id="1252"   name="leftClickSoundFilename">
            <Keyframes>
            <Keyframe id="1253"  time="-9999999/1" value="" leadInLength="0/1"  />
            </Keyframes>
           </Parameter>
           <InterpolatingParam id="1254" interp="linr"  time="-9999999/1" value="1" leadInLength="0/1"   name="leftClickSoundVolume"/>
           <Parameter id="1255"   name="leftClickType">
            <Keyframes>
            <Keyframe id="1256"  time="-9999999/1" value="0" leadInLength="0/1"  />
            </Keyframes>
           </Parameter>
           <InterpolatingParam id="1257" interp="linr"  time="-9999999/1" value="1" leadInLength="0/1"   name="opacity"/>
           <InterpolatingParam id="1258" interp="linr"  time="-9999999/1" value="255" leadInLength="0/1"   name="rightClickColorBlue"/>
           <InterpolatingParam id="1259" interp="linr"  time="-9999999/1" value="0" leadInLength="0/1"   name="rightClickColorGreen"/>
           <InterpolatingParam id="1260" interp="linr"  time="-9999999/1" value="0" leadInLength="0/1"   name="rightClickColorRed"/>
           <InterpolatingParam id="1261" interp="linr"  time="-9999999/1" value="0.80000000000000004" leadInLength="0/1"   name="rightClickDuration"/>
           <InterpolatingParam id="1262" interp="linr"  time="-9999999/1" value="20" leadInLength="0/1"   name="rightClickSize"/>
           <Parameter id="1263"   name="rightClickSoundFilename">
            <Keyframes>
            <Keyframe id="1264"  time="-9999999/1" value="" leadInLength="0/1"  />
            </Keyframes>
           </Parameter>
           <InterpolatingParam id="1265" interp="linr"  time="-9999999/1" value="1" leadInLength="0/1"   name="rightClickSoundVolume"/>
           <Parameter id="1266"   name="rightClickType">
            <Keyframes>
            <Keyframe id="1267"  time="-9999999/1" value="0" leadInLength="0/1"  />
            </Keyframes>
           </Parameter>
           </Parameters>
          </GenericEffect>
         </Effects>
         <Attributes>
          <Attribute id="1268" value="" name="ident"/>
         </Attributes>
         <MetaData>
          <entry key="AutoAppliedSmartFocus" val="False"/>
          <entry key="WinSubProjectDisplayName" val=""/>
         </MetaData>
         <ExtraData>
          <Entry key="ZoomPanBin">
           <ZoomPanBin id="1269"  >
            <ZoomPanKeyframes>
             <ZoomPanKeyframe id="1270" timeRangeEnd="-9999999/1" timeRangeDuration="0/1" interpolaterName="linr"  />
            </ZoomPanKeyframes>
           </ZoomPanBin>
          </Entry>
          <Entry key="CursorEffectBin">
           <CursorEffectBin id="1271"  >
            <CursorEffectKeyframes>
             <CursorEffectKeyframe id="1272" timeRangeEnd="-9999999/1" timeRangeDuration="0/1" interpolaterName=""  />
            </CursorEffectKeyframes>
           </CursorEffectBin>
          </Entry>
         </ExtraData>
        </ScreenVMFile>
        <ScreenVMFile id="1273" start="25628" duration="150" scalar="1/1" mediaStart="0/1" mediaDuration="150/1" trackNumber="0" src="36" >
         <Transformer>
          <VectorParam id="1274"  name="translation">
           <InterpolatingParam id="1275" interp="linr"  time="-9999999/1" value="0" leadInLength="0/1"  />
           <InterpolatingParam id="1276" interp="linr"  time="-9999999/1" value="0" leadInLength="0/1"  />
           <InterpolatingParam id="1277" interp="linr"  time="-9999999/1" value="0" leadInLength="0/1"  />
          </VectorParam>
          <VectorParam id="1278"  name="rotation">
           <InterpolatingParam id="1279" interp="linr"  time="-9999999/1" value="0" leadInLength="0/1"  />
           <InterpolatingParam id="1280" interp="linr"  time="-9999999/1" value="0" leadInLength="0/1"  />
           <InterpolatingParam id="1281" interp="linr"  time="-9999999/1" value="0" leadInLength="0/1"  />
          </VectorParam>
          <VectorParam id="1282"  name="shear">
           <InterpolatingParam id="1283" interp="linr"  time="-9999999/1" value="0" leadInLength="0/1"  />
           <InterpolatingParam id="1284" interp="linr"  time="-9999999/1" value="0" leadInLength="0/1"  />
           <InterpolatingParam id="1285" interp="linr"  time="-9999999/1" value="0" leadInLength="0/1"  />
          </VectorParam>
          <VectorParam id="1286"  name="scale">
           <InterpolatingParam id="1287" interp="linr"  time="-9999999/1" value="1" leadInLength="0/1"  />
           <InterpolatingParam id="1288" interp="linr"  time="-9999999/1" value="1" leadInLength="0/1"  />
           <InterpolatingParam id="1289" interp="linr"  time="-9999999/1" value="1" leadInLength="0/1"  />
          </VectorParam>
          <VectorParam id="1290"  name="anchor">
           <InterpolatingParam id="1291" interp="linr"  time="0/1" value="0" leadInLength="0/1"  />
           <InterpolatingParam id="1292" interp="linr"  time="0/1" value="0" leadInLength="0/1"  />
           <InterpolatingParam id="1293" interp="linr"  time="0/1" value="0" leadInLength="0/1"  />
          </VectorParam>
         </Transformer>
         <Parameters>
          <VectorParam id="1294"  name="sourceCrop">
           <InterpolatingParam id="1295" interp="linr"  time="0/1" value="0" leadInLength="0/1"  />
           <InterpolatingParam id="1296" interp="linr"  time="0/1" value="0" leadInLength="0/1"  />
           <InterpolatingParam id="1297" interp="linr"  time="0/1" value="0" leadInLength="0/1"  />
           <InterpolatingParam id="1298" interp="linr"  time="0/1" value="0" leadInLength="0/1"  />
          </VectorParam>
          <VectorParam id="1299"  name="geometryCrop">
           <InterpolatingParam id="1300" interp="linr"  time="-9999999/1" value="0" leadInLength="0/1"  />
           <InterpolatingParam id="1301" interp="linr"  time="-9999999/1" value="0" leadInLength="0/1"  />
           <InterpolatingParam id="1302" interp="linr"  time="-9999999/1" value="0" leadInLength="0/1"  />
           <InterpolatingParam id="1303" interp="linr"  time="-9999999/1" value="0" leadInLength="0/1"  />
          </VectorParam>
          <InterpolatingParam id="1304" interp="linr"  time="-9999999/1" value="1" leadInLength="0/1"  name="opacity"/>
          <InterpolatingParam id="1305" interp="linr"  time="0/1" value="1" leadInLength="0/1"  name="cursorOpacity"/>
          <InterpolatingParam id="1306" interp="linr"  time="0/1" value="1" leadInLength="0/1"  name="cursorScale"/>
         </Parameters>
         <Effects>
          <GenericEffect id="1307" name = "CursorBaseEffectName" >
           <Parameters>
           <InterpolatingParam id="1308" interp="linr"  time="-9999999/1" value="1" leadInLength="0/1"   name="cursorSize"/>
           <InterpolatingParam id="1309" interp="linr"  time="-9999999/1" value="0" leadInLength="0/1"   name="highlightBlurRadius"/>
           <InterpolatingParam id="1310" interp="linr"  time="-9999999/1" value="0" leadInLength="0/1"   name="highlightColorBlue"/>
           <InterpolatingParam id="1311" interp="linr"  time="-9999999/1" value="255" leadInLength="0/1"   name="highlightColorGreen"/>
           <InterpolatingParam id="1312" interp="linr"  time="-9999999/1" value="255" leadInLength="0/1"   name="highlightColorRed"/>
           <InterpolatingParam id="1313" interp="linr"  time="-9999999/1" value="5" leadInLength="0/1"   name="highlightFeatherSize"/>
           <InterpolatingParam id="1314" interp="linr"  time="-9999999/1" value="2" leadInLength="0/1"   name="highlightMagnification"/>
           <InterpolatingParam id="1315" interp="linr"  time="-9999999/1" value="1" leadInLength="0/1"   name="highlightOpacity"/>
           <InterpolatingParam id="1316" interp="linr"  time="-9999999/1" value="45" leadInLength="0/1"   name="highlightSize"/>
           <Parameter id="1317"   name="highlightType">
            <Keyframes>
            <Keyframe id="1318"  time="-9999999/1" value="0" leadInLength="0/1"  />
            </Keyframes>
           </Parameter>
           <InterpolatingParam id="1319" interp="linr"  time="-9999999/1" value="0" leadInLength="0/1"   name="leftClickColorBlue"/>
           <InterpolatingParam id="1320" interp="linr"  time="-9999999/1" value="0" leadInLength="0/1"   name="leftClickColorGreen"/>
           <InterpolatingParam id="1321" interp="linr"  time="-9999999/1" value="255" leadInLength="0/1"   name="leftClickColorRed"/>
           <InterpolatingParam id="1322" interp="linr"  time="-9999999/1" value="0.80000000000000004" leadInLength="0/1"   name="leftClickDuration"/>
           <InterpolatingParam id="1323" interp="linr"  time="-9999999/1" value="20" leadInLength="0/1"   name="leftClickSize"/>
           <Parameter id="1324"   name="leftClickSoundFilename">
            <Keyframes>
            <Keyframe id="1325"  time="-9999999/1" value="" leadInLength="0/1"  />
            </Keyframes>
           </Parameter>
           <InterpolatingParam id="1326" interp="linr"  time="-9999999/1" value="1" leadInLength="0/1"   name="leftClickSoundVolume"/>
           <Parameter id="1327"   name="leftClickType">
            <Keyframes>
            <Keyframe id="1328"  time="-9999999/1" value="0" leadInLength="0/1"  />
            </Keyframes>
           </Parameter>
           <InterpolatingParam id="1329" interp="linr"  time="-9999999/1" value="1" leadInLength="0/1"   name="opacity"/>
           <InterpolatingParam id="1330" interp="linr"  time="-9999999/1" value="255" leadInLength="0/1"   name="rightClickColorBlue"/>
           <InterpolatingParam id="1331" interp="linr"  time="-9999999/1" value="0" leadInLength="0/1"   name="rightClickColorGreen"/>
           <InterpolatingParam id="1332" interp="linr"  time="-9999999/1" value="0" leadInLength="0/1"   name="rightClickColorRed"/>
           <InterpolatingParam id="1333" interp="linr"  time="-9999999/1" value="0.80000000000000004" leadInLength="0/1"   name="rightClickDuration"/>
           <InterpolatingParam id="1334" interp="linr"  time="-9999999/1" value="20" leadInLength="0/1"   name="rightClickSize"/>
           <Parameter id="1335"   name="rightClickSoundFilename">
            <Keyframes>
            <Keyframe id="1336"  time="-9999999/1" value="" leadInLength="0/1"  />
            </Keyframes>
           </Parameter>
           <InterpolatingParam id="1337" interp="linr"  time="-9999999/1" value="1" leadInLength="0/1"   name="rightClickSoundVolume"/>
           <Parameter id="1338"   name="rightClickType">
            <Keyframes>
            <Keyframe id="1339"  time="-9999999/1" value="0" leadInLength="0/1"  />
            </Keyframes>
           </Parameter>
           </Parameters>
          </GenericEffect>
         </Effects>
         <Attributes>
          <Attribute id="1340" value="" name="ident"/>
         </Attributes>
         <MetaData>
          <entry key="AutoAppliedSmartFocus" val="False"/>
          <entry key="WinSubProjectDisplayName" val=""/>
         </MetaData>
         <ExtraData>
          <Entry key="ZoomPanBin">
           <ZoomPanBin id="1341"  >
            <ZoomPanKeyframes>
             <ZoomPanKeyframe id="1342" timeRangeEnd="-9999999/1" timeRangeDuration="0/1" interpolaterName="linr"  />
            </ZoomPanKeyframes>
           </ZoomPanBin>
          </Entry>
          <Entry key="CursorEffectBin">
           <CursorEffectBin id="1343"  >
            <CursorEffectKeyframes>
             <CursorEffectKeyframe id="1344" timeRangeEnd="-9999999/1" timeRangeDuration="0/1" interpolaterName=""  />
            </CursorEffectKeyframes>
           </CursorEffectBin>
          </Entry>
         </ExtraData>
        </ScreenVMFile>
        <ScreenVMFile id="1345" start="25778" duration="760" scalar="1/1" mediaStart="39/1" mediaDuration="760/1" trackNumber="0" src="37" >
         <Transformer>
          <VectorParam id="1346"  name="translation">
           <InterpolatingParam id="1347" interp="linr"  time="-9999999/1" value="0" leadInLength="0/1"  />
           <InterpolatingParam id="1348" interp="linr"  time="-9999999/1" value="0" leadInLength="0/1"  />
           <InterpolatingParam id="1349" interp="linr"  time="-9999999/1" value="0" leadInLength="0/1"  />
          </VectorParam>
          <VectorParam id="1350"  name="rotation">
           <InterpolatingParam id="1351" interp="linr"  time="-9999999/1" value="0" leadInLength="0/1"  />
           <InterpolatingParam id="1352" interp="linr"  time="-9999999/1" value="0" leadInLength="0/1"  />
           <InterpolatingParam id="1353" interp="linr"  time="-9999999/1" value="0" leadInLength="0/1"  />
          </VectorParam>
          <VectorParam id="1354"  name="shear">
           <InterpolatingParam id="1355" interp="linr"  time="-9999999/1" value="0" leadInLength="0/1"  />
           <InterpolatingParam id="1356" interp="linr"  time="-9999999/1" value="0" leadInLength="0/1"  />
           <InterpolatingParam id="1357" interp="linr"  time="-9999999/1" value="0" leadInLength="0/1"  />
          </VectorParam>
          <VectorParam id="1358"  name="scale">
           <InterpolatingParam id="1359" interp="linr"  time="-9999999/1" value="1" leadInLength="0/1"  />
           <InterpolatingParam id="1360" interp="linr"  time="-9999999/1" value="1" leadInLength="0/1"  />
           <InterpolatingParam id="1361" interp="linr"  time="-9999999/1" value="1" leadInLength="0/1"  />
          </VectorParam>
          <VectorParam id="1362"  name="anchor">
           <InterpolatingParam id="1363" interp="linr"  time="0/1" value="0" leadInLength="0/1"  />
           <InterpolatingParam id="1364" interp="linr"  time="0/1" value="0" leadInLength="0/1"  />
           <InterpolatingParam id="1365" interp="linr"  time="0/1" value="0" leadInLength="0/1"  />
          </VectorParam>
         </Transformer>
         <Parameters>
          <VectorParam id="1366"  name="sourceCrop">
           <InterpolatingParam id="1367" interp="linr"  time="0/1" value="0" leadInLength="0/1"  />
           <InterpolatingParam id="1368" interp="linr"  time="0/1" value="0" leadInLength="0/1"  />
           <InterpolatingParam id="1369" interp="linr"  time="0/1" value="0" leadInLength="0/1"  />
           <InterpolatingParam id="1370" interp="linr"  time="0/1" value="0" leadInLength="0/1"  />
          </VectorParam>
          <VectorParam id="1371"  name="geometryCrop">
           <InterpolatingParam id="1372" interp="linr"  time="-9999999/1" value="0" leadInLength="0/1"  />
           <InterpolatingParam id="1373" interp="linr"  time="-9999999/1" value="0" leadInLength="0/1"  />
           <InterpolatingParam id="1374" interp="linr"  time="-9999999/1" value="0" leadInLength="0/1"  />
           <InterpolatingParam id="1375" interp="linr"  time="-9999999/1" value="0" leadInLength="0/1"  />
          </VectorParam>
          <InterpolatingParam id="1376" interp="linr"  time="-9999999/1" value="1" leadInLength="0/1"  name="opacity"/>
          <InterpolatingParam id="1377" interp="linr"  time="0/1" value="1" leadInLength="0/1"  name="cursorOpacity"/>
          <InterpolatingParam id="1378" interp="linr"  time="0/1" value="1" leadInLength="0/1"  name="cursorScale"/>
         </Parameters>
         <Effects>
          <GenericEffect id="1379" name = "CursorBaseEffectName" >
           <Parameters>
           <InterpolatingParam id="1380" interp="linr"  time="-9999999/1" value="1" leadInLength="0/1"   name="cursorSize"/>
           <InterpolatingParam id="1381" interp="linr"  time="-9999999/1" value="0" leadInLength="0/1"   name="highlightBlurRadius"/>
           <InterpolatingParam id="1382" interp="linr"  time="-9999999/1" value="0" leadInLength="0/1"   name="highlightColorBlue"/>
           <InterpolatingParam id="1383" interp="linr"  time="-9999999/1" value="255" leadInLength="0/1"   name="highlightColorGreen"/>
           <InterpolatingParam id="1384" interp="linr"  time="-9999999/1" value="255" leadInLength="0/1"   name="highlightColorRed"/>
           <InterpolatingParam id="1385" interp="linr"  time="-9999999/1" value="5" leadInLength="0/1"   name="highlightFeatherSize"/>
           <InterpolatingParam id="1386" interp="linr"  time="-9999999/1" value="2" leadInLength="0/1"   name="highlightMagnification"/>
           <InterpolatingParam id="1387" interp="linr"  time="-9999999/1" value="1" leadInLength="0/1"   name="highlightOpacity"/>
           <InterpolatingParam id="1388" interp="linr"  time="-9999999/1" value="45" leadInLength="0/1"   name="highlightSize"/>
           <Parameter id="1389"   name="highlightType">
            <Keyframes>
            <Keyframe id="1390"  time="-9999999/1" value="0" leadInLength="0/1"  />
            </Keyframes>
           </Parameter>
           <InterpolatingParam id="1391" interp="linr"  time="-9999999/1" value="0" leadInLength="0/1"   name="leftClickColorBlue"/>
           <InterpolatingParam id="1392" interp="linr"  time="-9999999/1" value="0" leadInLength="0/1"   name="leftClickColorGreen"/>
           <InterpolatingParam id="1393" interp="linr"  time="-9999999/1" value="255" leadInLength="0/1"   name="leftClickColorRed"/>
           <InterpolatingParam id="1394" interp="linr"  time="-9999999/1" value="0.80000000000000004" leadInLength="0/1"   name="leftClickDuration"/>
           <InterpolatingParam id="1395" interp="linr"  time="-9999999/1" value="20" leadInLength="0/1"   name="leftClickSize"/>
           <Parameter id="1396"   name="leftClickSoundFilename">
            <Keyframes>
            <Keyframe id="1397"  time="-9999999/1" value="" leadInLength="0/1"  />
            </Keyframes>
           </Parameter>
           <InterpolatingParam id="1398" interp="linr"  time="-9999999/1" value="1" leadInLength="0/1"   name="leftClickSoundVolume"/>
           <Parameter id="1399"   name="leftClickType">
            <Keyframes>
            <Keyframe id="1400"  time="-9999999/1" value="0" leadInLength="0/1"  />
            </Keyframes>
           </Parameter>
           <InterpolatingParam id="1401" interp="linr"  time="-9999999/1" value="1" leadInLength="0/1"   name="opacity"/>
           <InterpolatingParam id="1402" interp="linr"  time="-9999999/1" value="255" leadInLength="0/1"   name="rightClickColorBlue"/>
           <InterpolatingParam id="1403" interp="linr"  time="-9999999/1" value="0" leadInLength="0/1"   name="rightClickColorGreen"/>
           <InterpolatingParam id="1404" interp="linr"  time="-9999999/1" value="0" leadInLength="0/1"   name="rightClickColorRed"/>
           <InterpolatingParam id="1405" interp="linr"  time="-9999999/1" value="0.80000000000000004" leadInLength="0/1"   name="rightClickDuration"/>
           <InterpolatingParam id="1406" interp="linr"  time="-9999999/1" value="20" leadInLength="0/1"   name="rightClickSize"/>
           <Parameter id="1407"   name="rightClickSoundFilename">
            <Keyframes>
            <Keyframe id="1408"  time="-9999999/1" value="" leadInLength="0/1"  />
            </Keyframes>
           </Parameter>
           <InterpolatingParam id="1409" interp="linr"  time="-9999999/1" value="1" leadInLength="0/1"   name="rightClickSoundVolume"/>
           <Parameter id="1410"   name="rightClickType">
            <Keyframes>
            <Keyframe id="1411"  time="-9999999/1" value="0" leadInLength="0/1"  />
            </Keyframes>
           </Parameter>
           </Parameters>
          </GenericEffect>
         </Effects>
         <Attributes>
          <Attribute id="1412" value="" name="ident"/>
         </Attributes>
         <MetaData>
          <entry key="AutoAppliedSmartFocus" val="False"/>
          <entry key="WinSubProjectDisplayName" val=""/>
         </MetaData>
         <ExtraData>
          <Entry key="ZoomPanBin">
           <ZoomPanBin id="1413"  >
            <ZoomPanKeyframes>
             <ZoomPanKeyframe id="1414" timeRangeEnd="-9999999/1" timeRangeDuration="0/1" interpolaterName="linr"  />
            </ZoomPanKeyframes>
           </ZoomPanBin>
          </Entry>
          <Entry key="CursorEffectBin">
           <CursorEffectBin id="1415"  >
            <CursorEffectKeyframes>
             <CursorEffectKeyframe id="1416" timeRangeEnd="-9999999/1" timeRangeDuration="0/1" interpolaterName=""  />
            </CursorEffectKeyframes>
           </CursorEffectBin>
          </Entry>
         </ExtraData>
        </ScreenVMFile>
        <ScreenVMFile id="1417" start="26538" duration="232" scalar="1/1" mediaStart="7/1" mediaDuration="232/1" trackNumber="0" src="38" >
         <Transformer>
          <VectorParam id="1418"  name="translation">
           <InterpolatingParam id="1419" interp="linr"  time="-9999999/1" value="0" leadInLength="0/1"  />
           <InterpolatingParam id="1420" interp="linr"  time="-9999999/1" value="0" leadInLength="0/1"  />
           <InterpolatingParam id="1421" interp="linr"  time="-9999999/1" value="0" leadInLength="0/1"  />
          </VectorParam>
          <VectorParam id="1422"  name="rotation">
           <InterpolatingParam id="1423" interp="linr"  time="-9999999/1" value="0" leadInLength="0/1"  />
           <InterpolatingParam id="1424" interp="linr"  time="-9999999/1" value="0" leadInLength="0/1"  />
           <InterpolatingParam id="1425" interp="linr"  time="-9999999/1" value="0" leadInLength="0/1"  />
          </VectorParam>
          <VectorParam id="1426"  name="shear">
           <InterpolatingParam id="1427" interp="linr"  time="-9999999/1" value="0" leadInLength="0/1"  />
           <InterpolatingParam id="1428" interp="linr"  time="-9999999/1" value="0" leadInLength="0/1"  />
           <InterpolatingParam id="1429" interp="linr"  time="-9999999/1" value="0" leadInLength="0/1"  />
          </VectorParam>
          <VectorParam id="1430"  name="scale">
           <InterpolatingParam id="1431" interp="linr"  time="-9999999/1" value="1" leadInLength="0/1"  />
           <InterpolatingParam id="1432" interp="linr"  time="-9999999/1" value="1" leadInLength="0/1"  />
           <InterpolatingParam id="1433" interp="linr"  time="-9999999/1" value="1" leadInLength="0/1"  />
          </VectorParam>
          <VectorParam id="1434"  name="anchor">
           <InterpolatingParam id="1435" interp="linr"  time="0/1" value="0" leadInLength="0/1"  />
           <InterpolatingParam id="1436" interp="linr"  time="0/1" value="0" leadInLength="0/1"  />
           <InterpolatingParam id="1437" interp="linr"  time="0/1" value="0" leadInLength="0/1"  />
          </VectorParam>
         </Transformer>
         <Parameters>
          <VectorParam id="1438"  name="sourceCrop">
           <InterpolatingParam id="1439" interp="linr"  time="0/1" value="0" leadInLength="0/1"  />
           <InterpolatingParam id="1440" interp="linr"  time="0/1" value="0" leadInLength="0/1"  />
           <InterpolatingParam id="1441" interp="linr"  time="0/1" value="0" leadInLength="0/1"  />
           <InterpolatingParam id="1442" interp="linr"  time="0/1" value="0" leadInLength="0/1"  />
          </VectorParam>
          <VectorParam id="1443"  name="geometryCrop">
           <InterpolatingParam id="1444" interp="linr"  time="-9999999/1" value="0" leadInLength="0/1"  />
           <InterpolatingParam id="1445" interp="linr"  time="-9999999/1" value="0" leadInLength="0/1"  />
           <InterpolatingParam id="1446" interp="linr"  time="-9999999/1" value="0" leadInLength="0/1"  />
           <InterpolatingParam id="1447" interp="linr"  time="-9999999/1" value="0" leadInLength="0/1"  />
          </VectorParam>
          <InterpolatingParam id="1448" interp="linr"  time="-9999999/1" value="1" leadInLength="0/1"  name="opacity"/>
          <InterpolatingParam id="1449" interp="linr"  time="0/1" value="1" leadInLength="0/1"  name="cursorOpacity"/>
          <InterpolatingParam id="1450" interp="linr"  time="0/1" value="1" leadInLength="0/1"  name="cursorScale"/>
         </Parameters>
         <Effects>
          <GenericEffect id="1451" name = "CursorBaseEffectName" >
           <Parameters>
           <InterpolatingParam id="1452" interp="linr"  time="-9999999/1" value="1" leadInLength="0/1"   name="cursorSize"/>
           <InterpolatingParam id="1453" interp="linr"  time="-9999999/1" value="0" leadInLength="0/1"   name="highlightBlurRadius"/>
           <InterpolatingParam id="1454" interp="linr"  time="-9999999/1" value="0" leadInLength="0/1"   name="highlightColorBlue"/>
           <InterpolatingParam id="1455" interp="linr"  time="-9999999/1" value="255" leadInLength="0/1"   name="highlightColorGreen"/>
           <InterpolatingParam id="1456" interp="linr"  time="-9999999/1" value="255" leadInLength="0/1"   name="highlightColorRed"/>
           <InterpolatingParam id="1457" interp="linr"  time="-9999999/1" value="5" leadInLength="0/1"   name="highlightFeatherSize"/>
           <InterpolatingParam id="1458" interp="linr"  time="-9999999/1" value="2" leadInLength="0/1"   name="highlightMagnification"/>
           <InterpolatingParam id="1459" interp="linr"  time="-9999999/1" value="1" leadInLength="0/1"   name="highlightOpacity"/>
           <InterpolatingParam id="1460" interp="linr"  time="-9999999/1" value="45" leadInLength="0/1"   name="highlightSize"/>
           <Parameter id="1461"   name="highlightType">
            <Keyframes>
            <Keyframe id="1462"  time="-9999999/1" value="0" leadInLength="0/1"  />
            </Keyframes>
           </Parameter>
           <InterpolatingParam id="1463" interp="linr"  time="-9999999/1" value="0" leadInLength="0/1"   name="leftClickColorBlue"/>
           <InterpolatingParam id="1464" interp="linr"  time="-9999999/1" value="0" leadInLength="0/1"   name="leftClickColorGreen"/>
           <InterpolatingParam id="1465" interp="linr"  time="-9999999/1" value="255" leadInLength="0/1"   name="leftClickColorRed"/>
           <InterpolatingParam id="1466" interp="linr"  time="-9999999/1" value="0.80000000000000004" leadInLength="0/1"   name="leftClickDuration"/>
           <InterpolatingParam id="1467" interp="linr"  time="-9999999/1" value="20" leadInLength="0/1"   name="leftClickSize"/>
           <Parameter id="1468"   name="leftClickSoundFilename">
            <Keyframes>
            <Keyframe id="1469"  time="-9999999/1" value="" leadInLength="0/1"  />
            </Keyframes>
           </Parameter>
           <InterpolatingParam id="1470" interp="linr"  time="-9999999/1" value="1" leadInLength="0/1"   name="leftClickSoundVolume"/>
           <Parameter id="1471"   name="leftClickType">
            <Keyframes>
            <Keyframe id="1472"  time="-9999999/1" value="0" leadInLength="0/1"  />
            </Keyframes>
           </Parameter>
           <InterpolatingParam id="1473" interp="linr"  time="-9999999/1" value="1" leadInLength="0/1"   name="opacity"/>
           <InterpolatingParam id="1474" interp="linr"  time="-9999999/1" value="255" leadInLength="0/1"   name="rightClickColorBlue"/>
           <InterpolatingParam id="1475" interp="linr"  time="-9999999/1" value="0" leadInLength="0/1"   name="rightClickColorGreen"/>
           <InterpolatingParam id="1476" interp="linr"  time="-9999999/1" value="0" leadInLength="0/1"   name="rightClickColorRed"/>
           <InterpolatingParam id="1477" interp="linr"  time="-9999999/1" value="0.80000000000000004" leadInLength="0/1"   name="rightClickDuration"/>
           <InterpolatingParam id="1478" interp="linr"  time="-9999999/1" value="20" leadInLength="0/1"   name="rightClickSize"/>
           <Parameter id="1479"   name="rightClickSoundFilename">
            <Keyframes>
            <Keyframe id="1480"  time="-9999999/1" value="" leadInLength="0/1"  />
            </Keyframes>
           </Parameter>
           <InterpolatingParam id="1481" interp="linr"  time="-9999999/1" value="1" leadInLength="0/1"   name="rightClickSoundVolume"/>
           <Parameter id="1482"   name="rightClickType">
            <Keyframes>
            <Keyframe id="1483"  time="-9999999/1" value="0" leadInLength="0/1"  />
            </Keyframes>
           </Parameter>
           </Parameters>
          </GenericEffect>
         </Effects>
         <Attributes>
          <Attribute id="1484" value="" name="ident"/>
         </Attributes>
         <MetaData>
          <entry key="AutoAppliedSmartFocus" val="False"/>
          <entry key="WinSubProjectDisplayName" val=""/>
         </MetaData>
         <ExtraData>
          <Entry key="ZoomPanBin">
           <ZoomPanBin id="1485"  >
            <ZoomPanKeyframes>
             <ZoomPanKeyframe id="1486" timeRangeEnd="-9999999/1" timeRangeDuration="0/1" interpolaterName="linr"  />
            </ZoomPanKeyframes>
           </ZoomPanBin>
          </Entry>
          <Entry key="CursorEffectBin">
           <CursorEffectBin id="1487"  >
            <CursorEffectKeyframes>
             <CursorEffectKeyframe id="1488" timeRangeEnd="-9999999/1" timeRangeDuration="0/1" interpolaterName=""  />
            </CursorEffectKeyframes>
           </CursorEffectBin>
          </Entry>
         </ExtraData>
        </ScreenVMFile>
       </Medias>
      </GenericTrack>
      <GenericTrack id="1489"  >
       <Attributes>
        <Attribute id="1490" value="" name="ident"/>
        <Attribute id="1491" value="0" name="audioMuted"/>
        <Attribute id="1492" value="0" name="videoHidden"/>
       </Attributes>
       <MetaData>
        <entry key="IsLocked" val="False"/>
        <entry key="WinTrackHeight" val="62"/>
       </MetaData>
       <Medias>
        <AMFile id="1493" start="0" duration="1176" scalar="1/1" mediaStart="0/1" mediaDuration="1176/1" trackNumber="0" src="4" channelNumber="0" >
         <Parameters>
          <InterpolatingParam id="1494" interp="linr"  time="0/1" value="5" leadInLength="0/1"  name="volume"/>
          <Parameter id="1495"  name="captions"/>
         </Parameters>
         <Attributes>
          <Attribute id="1496" value="" name="ident"/>
          <Attribute id="1497" value="22050" name="sampleRate"/>
          <Attribute id="1498" value="16" name="bitDepth"/>
          <Attribute id="1499" value="1" name="gain"/>
          <Attribute id="1500" value="0" name="mixToMono"/>
         </Attributes>
         <MetaData>
          <entry key="WinSubProjectDisplayName" val=""/>
         </MetaData>
        </AMFile>
        <AMFile id="1501" start="1176" duration="3798" scalar="1/1" mediaStart="0/1" mediaDuration="3798/1" trackNumber="0" src="5" channelNumber="0" >
         <Parameters>
          <InterpolatingParam id="1502" interp="linr"  time="0/1" value="5" leadInLength="0/1"  name="volume"/>
          <Parameter id="1503"  name="captions"/>
         </Parameters>
         <Attributes>
          <Attribute id="1504" value="" name="ident"/>
          <Attribute id="1505" value="22050" name="sampleRate"/>
          <Attribute id="1506" value="16" name="bitDepth"/>
          <Attribute id="1507" value="1" name="gain"/>
          <Attribute id="1508" value="0" name="mixToMono"/>
         </Attributes>
         <MetaData>
          <entry key="WinSubProjectDisplayName" val=""/>
         </MetaData>
        </AMFile>
        <AMFile id="1509" start="4974" duration="3741" scalar="1/1" mediaStart="0/1" mediaDuration="3741/1" trackNumber="0" src="6" channelNumber="0" >
         <Parameters>
          <InterpolatingParam id="1510" interp="linr"  time="0/1" value="5" leadInLength="0/1"  name="volume"/>
          <Parameter id="1511"  name="captions"/>
         </Parameters>
         <Attributes>
          <Attribute id="1512" value="" name="ident"/>
          <Attribute id="1513" value="22050" name="sampleRate"/>
          <Attribute id="1514" value="16" name="bitDepth"/>
          <Attribute id="1515" value="1" name="gain"/>
          <Attribute id="1516" value="0" name="mixToMono"/>
         </Attributes>
         <MetaData>
          <entry key="WinSubProjectDisplayName" val=""/>
         </MetaData>
        </AMFile>
        <AMFile id="1517" start="8715" duration="2704" scalar="1/1" mediaStart="14/1" mediaDuration="2704/1" trackNumber="0" src="7" channelNumber="0" >
         <Parameters>
          <InterpolatingParam id="1518" interp="linr"  name="volume">
           <Keyframes>
           <Keyframe id="1519"  time="0/1" value="1" leadInLength="0/1"  />
           <Keyframe id="1520"  time="13/1" value="1" leadInLength="0/1"  />
           <Keyframe id="1521"  time="14/1" value="5" leadInLength="0/1"  />
           <Keyframe id="1522"  time="2718/1" value="5" leadInLength="0/1"  />
           <Keyframe id="1523"  time="2719/1" value="1" leadInLength="0/1"  />
           </Keyframes>
          </InterpolatingParam>
          <Parameter id="1524"  name="captions"/>
         </Parameters>
         <Attributes>
          <Attribute id="1525" value="" name="ident"/>
          <Attribute id="1526" value="22050" name="sampleRate"/>
          <Attribute id="1527" value="16" name="bitDepth"/>
          <Attribute id="1528" value="1" name="gain"/>
          <Attribute id="1529" value="0" name="mixToMono"/>
         </Attributes>
         <MetaData>
          <entry key="WinSubProjectDisplayName" val=""/>
         </MetaData>
        </AMFile>
        <AMFile id="1530" start="11419" duration="2823" scalar="1/1" mediaStart="0/1" mediaDuration="2823/1" trackNumber="0" src="8" channelNumber="0" >
         <Parameters>
          <InterpolatingParam id="1531" interp="linr"  time="0/1" value="5" leadInLength="0/1"  name="volume"/>
          <Parameter id="1532"  name="captions"/>
         </Parameters>
         <Attributes>
          <Attribute id="1533" value="" name="ident"/>
          <Attribute id="1534" value="22050" name="sampleRate"/>
          <Attribute id="1535" value="16" name="bitDepth"/>
          <Attribute id="1536" value="1" name="gain"/>
          <Attribute id="1537" value="0" name="mixToMono"/>
         </Attributes>
         <MetaData>
          <entry key="WinSubProjectDisplayName" val=""/>
         </MetaData>
        </AMFile>
        <AMFile id="1538" start="14242" duration="1170" scalar="1/1" mediaStart="0/1" mediaDuration="1170/1" trackNumber="0" src="9" channelNumber="0" >
         <Parameters>
          <InterpolatingParam id="1539" interp="linr"  time="0/1" value="5" leadInLength="0/1"  name="volume"/>
          <Parameter id="1540"  name="captions"/>
         </Parameters>
         <Attributes>
          <Attribute id="1541" value="" name="ident"/>
          <Attribute id="1542" value="22050" name="sampleRate"/>
          <Attribute id="1543" value="16" name="bitDepth"/>
          <Attribute id="1544" value="1" name="gain"/>
          <Attribute id="1545" value="0" name="mixToMono"/>
         </Attributes>
         <MetaData>
          <entry key="WinSubProjectDisplayName" val=""/>
         </MetaData>
        </AMFile>
        <AMFile id="1546" start="15448" duration="3066" scalar="1/1" mediaStart="0/1" mediaDuration="3066/1" trackNumber="0" src="10" channelNumber="0" >
         <Parameters>
          <InterpolatingParam id="1547" interp="linr"  time="0/1" value="5" leadInLength="0/1"  name="volume"/>
          <Parameter id="1548"  name="captions"/>
         </Parameters>
         <Attributes>
          <Attribute id="1549" value="" name="ident"/>
          <Attribute id="1550" value="22050" name="sampleRate"/>
          <Attribute id="1551" value="16" name="bitDepth"/>
          <Attribute id="1552" value="1" name="gain"/>
          <Attribute id="1553" value="0" name="mixToMono"/>
         </Attributes>
         <MetaData>
          <entry key="WinSubProjectDisplayName" val=""/>
         </MetaData>
        </AMFile>
        <AMFile id="1554" start="18556" duration="1215" scalar="1/1" mediaStart="0/1" mediaDuration="1215/1" trackNumber="0" src="11" channelNumber="0" >
         <Parameters>
          <InterpolatingParam id="1555" interp="linr"  time="0/1" value="5" leadInLength="0/1"  name="volume"/>
          <Parameter id="1556"  name="captions"/>
         </Parameters>
         <Attributes>
          <Attribute id="1557" value="" name="ident"/>
          <Attribute id="1558" value="22050" name="sampleRate"/>
          <Attribute id="1559" value="16" name="bitDepth"/>
          <Attribute id="1560" value="1" name="gain"/>
          <Attribute id="1561" value="0" name="mixToMono"/>
         </Attributes>
         <MetaData>
          <entry key="WinSubProjectDisplayName" val=""/>
         </MetaData>
        </AMFile>
        <AMFile id="1562" start="19771" duration="1961" scalar="1/1" mediaStart="0/1" mediaDuration="1961/1" trackNumber="0" src="12" channelNumber="0" >
         <Parameters>
          <InterpolatingParam id="1563" interp="linr"  time="0/1" value="5" leadInLength="0/1"  name="volume"/>
          <Parameter id="1564"  name="captions"/>
         </Parameters>
         <Attributes>
          <Attribute id="1565" value="" name="ident"/>
          <Attribute id="1566" value="22050" name="sampleRate"/>
          <Attribute id="1567" value="16" name="bitDepth"/>
          <Attribute id="1568" value="1" name="gain"/>
          <Attribute id="1569" value="0" name="mixToMono"/>
         </Attributes>
         <MetaData>
          <entry key="WinSubProjectDisplayName" val=""/>
         </MetaData>
        </AMFile>
        <AMFile id="1570" start="21882" duration="1383" scalar="1/1" mediaStart="0/1" mediaDuration="1383/1" trackNumber="0" src="13" channelNumber="0" >
         <Parameters>
          <InterpolatingParam id="1571" interp="linr"  time="0/1" value="5" leadInLength="0/1"  name="volume"/>
          <Parameter id="1572"  name="captions"/>
         </Parameters>
         <Attributes>
          <Attribute id="1573" value="" name="ident"/>
          <Attribute id="1574" value="22050" name="sampleRate"/>
          <Attribute id="1575" value="16" name="bitDepth"/>
          <Attribute id="1576" value="1" name="gain"/>
          <Attribute id="1577" value="0" name="mixToMono"/>
         </Attributes>
         <MetaData>
          <entry key="WinSubProjectDisplayName" val=""/>
         </MetaData>
        </AMFile>
        <AMFile id="1578" start="23265" duration="926" scalar="1/1" mediaStart="0/1" mediaDuration="926/1" trackNumber="0" src="14" channelNumber="0" >
         <Parameters>
          <InterpolatingParam id="1579" interp="linr"  time="0/1" value="5" leadInLength="0/1"  name="volume"/>
          <Parameter id="1580"  name="captions"/>
         </Parameters>
         <Attributes>
          <Attribute id="1581" value="" name="ident"/>
          <Attribute id="1582" value="22050" name="sampleRate"/>
          <Attribute id="1583" value="16" name="bitDepth"/>
          <Attribute id="1584" value="1" name="gain"/>
          <Attribute id="1585" value="0" name="mixToMono"/>
         </Attributes>
         <MetaData>
          <entry key="WinSubProjectDisplayName" val=""/>
         </MetaData>
        </AMFile>
        <AMFile id="1586" start="24191" duration="561" scalar="1/1" mediaStart="0/1" mediaDuration="561/1" trackNumber="0" src="22" channelNumber="0" >
         <Parameters>
          <InterpolatingParam id="1587" interp="linr"  time="0/1" value="5" leadInLength="0/1"  name="volume"/>
          <Parameter id="1588"  name="captions"/>
         </Parameters>
         <Attributes>
          <Attribute id="1589" value="" name="ident"/>
          <Attribute id="1590" value="22050" name="sampleRate"/>
          <Attribute id="1591" value="16" name="bitDepth"/>
          <Attribute id="1592" value="1" name="gain"/>
          <Attribute id="1593" value="0" name="mixToMono"/>
         </Attributes>
         <MetaData>
          <entry key="WinSubProjectDisplayName" val=""/>
         </MetaData>
        </AMFile>
        <AMFile id="1594" start="24752" duration="804" scalar="1/1" mediaStart="0/1" mediaDuration="804/1" trackNumber="0" src="23" channelNumber="0" >
         <Parameters>
          <InterpolatingParam id="1595" interp="linr"  time="0/1" value="5" leadInLength="0/1"  name="volume"/>
          <Parameter id="1596"  name="captions"/>
         </Parameters>
         <Attributes>
          <Attribute id="1597" value="" name="ident"/>
          <Attribute id="1598" value="22050" name="sampleRate"/>
          <Attribute id="1599" value="16" name="bitDepth"/>
          <Attribute id="1600" value="1" name="gain"/>
          <Attribute id="1601" value="0" name="mixToMono"/>
         </Attributes>
         <MetaData>
          <entry key="WinSubProjectDisplayName" val=""/>
         </MetaData>
        </AMFile>
        <AMFile id="1602" start="25556" duration="150" scalar="1/1" mediaStart="0/1" mediaDuration="150/1" trackNumber="0" src="24" channelNumber="0" >
         <Parameters>
          <InterpolatingParam id="1603" interp="linr"  time="0/1" value="5" leadInLength="0/1"  name="volume"/>
          <Parameter id="1604"  name="captions"/>
         </Parameters>
         <Attributes>
          <Attribute id="1605" value="" name="ident"/>
          <Attribute id="1606" value="22050" name="sampleRate"/>
          <Attribute id="1607" value="16" name="bitDepth"/>
          <Attribute id="1608" value="1" name="gain"/>
          <Attribute id="1609" value="0" name="mixToMono"/>
         </Attributes>
         <MetaData>
          <entry key="WinSubProjectDisplayName" val=""/>
         </MetaData>
        </AMFile>
        <AMFile id="1610" start="25706" duration="832" scalar="1/1" mediaStart="0/1" mediaDuration="832/1" trackNumber="0" src="25" channelNumber="0" >
         <Parameters>
          <InterpolatingParam id="1611" interp="linr"  time="0/1" value="5" leadInLength="0/1"  name="volume"/>
          <Parameter id="1612"  name="captions"/>
         </Parameters>
         <Attributes>
          <Attribute id="1613" value="" name="ident"/>
          <Attribute id="1614" value="22050" name="sampleRate"/>
          <Attribute id="1615" value="16" name="bitDepth"/>
          <Attribute id="1616" value="1" name="gain"/>
          <Attribute id="1617" value="0" name="mixToMono"/>
         </Attributes>
         <MetaData>
          <entry key="WinSubProjectDisplayName" val=""/>
         </MetaData>
        </AMFile>
        <AMFile id="1618" start="26538" duration="232" scalar="1/1" mediaStart="24/1" mediaDuration="232/1" trackNumber="0" src="26" channelNumber="0" >
         <Parameters>
          <InterpolatingParam id="1619" interp="linr"  name="volume">
           <Keyframes>
           <Keyframe id="1620"  time="0/1" value="1" leadInLength="0/1"  />
           <Keyframe id="1621"  time="23/1" value="1" leadInLength="0/1"  />
           <Keyframe id="1622"  time="24/1" value="5" leadInLength="0/1"  />
           <Keyframe id="1623"  time="256/1" value="5" leadInLength="0/1"  />
           <Keyframe id="1624"  time="257/1" value="1" leadInLength="0/1"  />
           </Keyframes>
          </InterpolatingParam>
          <Parameter id="1625"  name="captions"/>
         </Parameters>
         <Attributes>
          <Attribute id="1626" value="" name="ident"/>
          <Attribute id="1627" value="22050" name="sampleRate"/>
          <Attribute id="1628" value="16" name="bitDepth"/>
          <Attribute id="1629" value="1" name="gain"/>
          <Attribute id="1630" value="0" name="mixToMono"/>
         </Attributes>
         <MetaData>
          <entry key="WinSubProjectDisplayName" val=""/>
         </MetaData>
        </AMFile>
       </Medias>
      </GenericTrack>
      <GenericTrack id="1631"  >
       <Attributes>
        <Attribute id="1632" value="" name="ident"/>
        <Attribute id="1633" value="0" name="audioMuted"/>
        <Attribute id="1634" value="0" name="videoHidden"/>
       </Attributes>
       <MetaData>
        <entry key="IsLocked" val="False"/>
        <entry key="WinTrackHeight" val="62"/>
       </MetaData>
       <Medias>
       </Medias>
      </GenericTrack>
     </Tracks>
    </GenericMixer>
   <CaptionAttributes id="1635"  >
    <Attribute id="1636" value="1" name="captionsEnabled"/>
    <Attribute id="1637" value="Arial" name="captionsFontName"/>
    <Attribute id="1638" value="24" name="captionsFontSize"/>
    <Attribute id="1639" value="(0,0,0,255)" name="captionsBackgroundColor"/>
    <Attribute id="1640" value="(255,255,255,255)" name="captionsForegroundColor"/>
    <Attribute id="1641" value="en" name="lang"/>
    <Attribute id="1642" value="0" name="captionsAlignment"/>
    <Attribute id="1643" value="1" name="captionsDefaultFontSize"/>
    <Attribute id="1644" value="0.5" name="captionsOpacity"/>
    <Attribute id="1645" value="1" name="captionsBackgroundEnabled"/>
    <Attribute id="1646" value="1" name="captionsBackgroundOnlyAroundText"/>
   </CaptionAttributes>
   <Parameters>
    <VectorParam id="1647"  name="eyePosition">
     <InterpolatingParam id="1648" interp="linr"  time="0/1" value="0" leadInLength="0/1"  />
     <InterpolatingParam id="1649" interp="linr"  time="0/1" value="0" leadInLength="0/1"  />
     <InterpolatingParam id="1650" interp="linr"  time="0/1" value="3000" leadInLength="0/1"  />
    </VectorParam>
    <VectorParam id="1651"  name="eyeLookAtPosition">
     <InterpolatingParam id="1652" interp="linr"  time="0/1" value="0" leadInLength="0/1"  />
     <InterpolatingParam id="1653" interp="linr"  time="0/1" value="0" leadInLength="0/1"  />
     <InterpolatingParam id="1654" interp="linr"  time="0/1" value="0" leadInLength="0/1"  />
    </VectorParam>
    <VectorParam id="1655"  name="eyeUpVector">
     <InterpolatingParam id="1656" interp="linr"  time="0/1" value="0" leadInLength="0/1"  />
     <InterpolatingParam id="1657" interp="linr"  time="0/1" value="1" leadInLength="0/1"  />
     <InterpolatingParam id="1658" interp="linr"  time="0/1" value="0" leadInLength="0/1"  />
    </VectorParam>
    <InterpolatingParam id="1659" interp="linr"  time="0/1" value="0.207254916" leadInLength="0/1"  name="fov"/>
    <InterpolatingParam id="1660" interp="linr"  time="0/1" value="1.5" leadInLength="0/1"  name="nearClipDistance"/>
    <InterpolatingParam id="1661" interp="linr"  time="0/1" value="6000" leadInLength="0/1"  name="farClipDistance"/>
   </Parameters>
  </Timeline>
 </Project>
</GoProject>
</CSMLData>

</Project_Data>
